<svg width="112" height="54" viewBox="0 0 112 54" fill="none" xmlns="http://www.w3.org/2000/svg">
<rect x="0.294189" y="0.105469" width="111.456" height="53.156" rx="4.28678" fill="white"/>
<rect x="47.4488" y="30.9707" width="53.156" height="3.42942" fill="#ECEFF6"/>
<rect x="47.4488" y="19.8242" width="30.8648" height="3.42942" fill="#ECEFF6"/>
<circle cx="26.4435" cy="27.1122" r="14.1464" fill="#00D9FF"/>
<g clip-path="url(#clip0_104_4921)">
<path d="M29.8086 24.9593L26.8388 25.6088L28.2909 20.5239C28.417 20.0819 27.8261 19.7988 27.5611 20.1752L21.7686 28.4049C21.5508 28.7144 21.8347 29.1297 22.202 29.0392L24.8482 28.3878L23.4008 33.4776C23.2761 33.9161 23.8567 34.1956 24.1248 33.834L30.2257 25.6043C30.4508 25.3005 30.1779 24.8786 29.8086 24.9593V24.9593ZM24.8047 31.5395L25.8302 27.9329C25.916 27.6314 25.6439 27.3471 25.3377 27.4225L23.0701 27.9807L26.8364 22.6298L25.8616 26.0434C25.7768 26.3405 26.0399 26.6232 26.3436 26.5567L28.9154 25.9943L24.8047 31.5395Z" fill="white"/>
<path d="M29.5438 31.5391L28.5596 31.5226L29.0823 30.4945C29.185 30.2926 29.1046 30.0457 28.9027 29.9431C28.7007 29.8404 28.4539 29.9209 28.3512 30.1228L27.5309 31.7359C27.3641 32.0631 27.5825 32.2775 27.897 32.332L28.8789 32.3484L28.35 33.4062C28.2487 33.6088 28.3308 33.8551 28.5334 33.9565C28.7364 34.058 28.9825 33.9752 29.0836 33.7731L29.9038 32.1326C30.0386 31.863 29.8436 31.5435 29.5438 31.5391V31.5391Z" fill="white"/>
<path d="M23.1585 20.0444C22.9559 19.9431 22.7095 20.0252 22.6082 20.2278L21.788 21.8682C21.6546 22.1351 21.8448 22.4618 22.1572 22.4618H23.1317L22.6082 23.5087C22.5069 23.7113 22.5891 23.9576 22.7916 24.059C22.9946 24.1604 23.2408 24.0777 23.3419 23.8756L24.1621 22.2351C24.2986 21.9621 24.0979 21.6415 23.7953 21.6415H22.8184L23.3419 20.5946C23.4432 20.392 23.361 20.1457 23.1585 20.0444V20.0444Z" fill="white"/>
</g>
<defs>
<clipPath id="clip0_104_4921">
<rect width="14" height="14" fill="white" transform="translate(19 20)"/>
</clipPath>
</defs>
</svg>
