<svg width="33" height="32" viewBox="0 0 33 32" fill="none" xmlns="http://www.w3.org/2000/svg">
<path d="M29.5493 13.3885H28.4753V13.3332H16.4753V18.6665H24.0106C22.9113 21.7712 19.9573 23.9998 16.4753 23.9998C12.0573 23.9998 8.4753 20.4178 8.4753 15.9998C8.4753 11.5818 12.0573 7.99984 16.4753 7.99984C18.5146 7.99984 20.37 8.76917 21.7826 10.0258L25.554 6.2545C23.1726 4.03517 19.9873 2.6665 16.4753 2.6665C9.11197 2.6665 3.14197 8.6365 3.14197 15.9998C3.14197 23.3632 9.11197 29.3332 16.4753 29.3332C23.8386 29.3332 29.8086 23.3632 29.8086 15.9998C29.8086 15.1058 29.7166 14.2332 29.5493 13.3885Z" fill="#FFC107"/>
<path d="M4.6793 9.79384L9.05997 13.0065C10.2453 10.0718 13.116 7.99984 16.4753 7.99984C18.5146 7.99984 20.37 8.76917 21.7826 10.0258L25.554 6.2545C23.1726 4.03517 19.9873 2.6665 16.4753 2.6665C11.354 2.6665 6.91264 5.55784 4.6793 9.79384Z" fill="#FF3D00"/>
<path d="M16.4753 29.3333C19.9193 29.3333 23.0486 28.0153 25.4146 25.872L21.288 22.38C19.9043 23.4322 18.2136 24.0013 16.4753 24C13.0073 24 10.0626 21.7886 8.9533 18.7026L4.6053 22.0526C6.81197 26.3706 11.2933 29.3333 16.4753 29.3333Z" fill="#4CAF50"/>
<path d="M29.5493 13.3888H28.4753V13.3335H16.4753V18.6668H24.0106C23.4848 20.1444 22.5375 21.4356 21.286 22.3808L21.288 22.3795L25.4146 25.8715C25.1226 26.1368 29.8086 22.6668 29.8086 16.0002C29.8086 15.1062 29.7166 14.2335 29.5493 13.3888Z" fill="#1976D2"/>
</svg>
