<svg width="127" height="102" viewBox="0 0 127 102" fill="none" xmlns="http://www.w3.org/2000/svg">
<g clip-path="url(#clip0_190_5)">
<path d="M106.16 45.2263C106.968 43.1326 107.421 40.8433 107.421 38.4561C107.421 28.0854 98.9478 19.6715 88.504 19.6715C84.622 19.6715 80.9962 20.8455 78.001 22.8414C72.5426 13.4491 62.355 7.14844 50.6697 7.14844C33.2502 7.14844 19.1411 21.1586 19.1411 38.4561C19.1411 38.9844 19.1608 39.5127 19.1805 40.041C8.14555 43.8958 0.223999 54.3447 0.223999 66.6329C0.223999 82.1889 12.9339 94.8098 28.5997 94.8098H101.115C115.047 94.8098 126.338 83.5977 126.338 69.7637C126.338 57.6516 117.668 47.5353 106.16 45.2263ZM77.7448 57.2406H64.8575V79.156C64.8575 80.8779 63.4388 82.2867 61.7047 82.2867H52.2461C50.512 82.2867 49.0933 80.8779 49.0933 79.156V57.2406H36.206C33.3881 57.2406 31.989 53.8751 33.9793 51.8988L54.7487 31.2749C55.9704 30.0617 57.9804 30.0617 59.2021 31.2749L79.9715 51.8988C81.9618 53.8751 80.543 57.2406 77.7448 57.2406Z" fill="#5E9BFF"/>
</g>
<defs>
<clipPath id="clip0_190_5">
<rect width="126.114" height="100.184" fill="white" transform="translate(0.223999 0.886719)"/>
</clipPath>
</defs>
</svg>
