<svg width="887" height="456" viewBox="0 0 887 456" fill="none" xmlns="http://www.w3.org/2000/svg">
<path d="M777.64 198.75C773.654 175.926 765.292 152.816 749.298 135.818C733.748 119.294 710.88 111.892 689.176 108.517C674.772 106.277 658.704 103.951 644.23 104.453C626.43 105.072 609.457 107.706 591.467 106.38C555.179 103.703 519.801 94.2714 484.584 85.5289C421.228 69.8065 360.298 61.9452 297.011 84.3617C204.08 117.278 143.523 198.713 114.922 291.678C108.454 312.698 103.544 334.2 100.014 355.918C121.917 355.918 143.814 355.918 165.717 355.918C218.308 355.918 270.896 355.918 323.487 355.918C387.18 355.918 450.869 355.918 514.562 355.918C569.764 355.918 624.97 355.918 680.172 355.918C707.614 355.918 735.055 355.965 762.497 355.895C760.811 348.77 762.728 341.34 764.52 334.242C775.525 290.713 785.499 243.7 777.64 198.75Z" fill="url(#paint0_radial_104_5154)"/>
<path d="M-2.67029e-05 317.714L887 317.714V456L-2.67029e-05 456V317.714Z" fill="url(#paint1_radial_104_5154)"/>
<path d="M354.338 339.98H187.102" stroke="#0061FE" stroke-width="0.489583" stroke-miterlimit="10"/>
<path d="M418.553 332.479H251.317" stroke="#0061FE" stroke-width="0.489583" stroke-miterlimit="10"/>
<path d="M607.272 362.95H702.901" stroke="#0061FE" stroke-width="0.489583" stroke-miterlimit="10"/>
<path d="M402.846 131.613C402.846 131.613 406.08 157.395 397.302 159.271C388.525 161.146 372.817 161.614 372.817 161.614L368.66 181.303L382.519 212.71L403.308 222.554L430.103 211.772L459.669 177.084L465.213 154.114C465.213 154.114 449.968 158.802 445.348 154.583C440.728 150.364 437.952 127.568 445.348 107.561C452.744 87.5539 434.723 96.9245 434.723 96.9245L399.15 126.926L402.846 131.613Z" fill="#FFDE99"/>
<path d="M402.846 131.613C402.846 131.613 406.08 157.395 397.302 159.271C388.525 161.146 372.817 161.614 372.817 161.614L368.66 181.303L382.519 212.71L403.308 222.554L430.103 211.772L459.669 177.084L465.213 154.114C465.213 154.114 449.968 158.802 445.348 154.583C440.728 150.364 437.952 127.568 445.348 107.561C452.744 87.5539 434.723 96.9245 434.723 96.9245L399.15 126.926L402.846 131.613Z" fill="url(#paint2_radial_104_5154)"/>
<path d="M402.846 131.613C402.846 131.613 406.08 157.395 397.302 159.271C388.525 161.146 372.817 161.614 372.817 161.614L368.66 181.303L382.519 212.71L403.308 222.554L430.103 211.772L459.669 177.084L465.213 154.114C465.213 154.114 449.968 158.802 445.348 154.583C440.728 150.364 437.952 127.568 445.348 107.561C452.744 87.5539 434.723 96.9245 434.723 96.9245L399.15 126.926L402.846 131.613Z" fill="url(#paint3_radial_104_5154)"/>
<path d="M381.826 69.0331C381.826 69.0331 372.037 119.608 393.075 139.653C393.837 140.379 394.877 140.74 395.921 140.661C401.691 140.225 421.27 137.848 428.717 125.519C437.494 110.988 443.5 105.831 443.5 105.831C443.5 105.831 454.356 117.316 458.052 107.941C461.748 98.5654 459.438 86.8462 448.351 86.8462L423.404 44.6572L398.457 47.4698L381.826 69.0331Z" fill="#FFDE99"/>
<path d="M417.167 92.7055L426.407 94.5805L416.936 111.925L393.606 134.426C393.606 134.426 390.146 132.18 385.494 128.711C380.218 117.245 379.248 102.601 379.627 90.6851C403.049 86.8318 417.167 92.7055 417.167 92.7055Z" fill="url(#paint4_radial_104_5154)"/>
<path d="M413.01 52.3923C413.01 52.3923 414.395 89.4249 443.5 92.7063C443.5 92.7063 424.097 88.0186 419.477 61.2989C419.477 61.2989 433.799 94.5813 448.582 89.4249C453.197 87.8123 455.96 91.0937 457.591 94.722C459.854 99.7659 457.919 105.86 452.957 108.18C450.291 109.427 447.011 109.394 443.5 105.832C443.5 105.832 436.108 147.083 450.43 144.739C450.43 144.739 441.19 145.208 443.5 123.176C443.5 123.176 455.05 120.364 466.599 123.645C478.149 126.926 497.552 103.019 488.312 52.3923L469.833 27.5477C469.833 27.5477 421.866 13.4566 397.81 32.5447C395.87 34.0823 393.814 35.4652 391.722 36.7824C386.677 39.97 376.629 50.8688 376.975 87.0811C376.975 87.0811 376.513 73.9556 383.905 65.9866C383.905 65.9866 381.151 67.3085 380.449 78.8355C380.449 78.8355 388.063 59.8926 413.01 52.3923Z" fill="#241921"/>
<path d="M479.534 25.2034C479.996 24.2658 480.92 -5.26648 512.797 0.827492C519.916 2.18692 525.469 4.55418 529.798 7.40897C544.858 17.3375 545.135 33.1724 545.135 33.1724L522.96 5.98393C522.96 5.98393 494.78 -7.14154 488.312 16.7656C488.312 16.7656 506.717 -8.58534 534.722 10.2356C542.423 15.4108 548.332 22.9017 551.903 31.5458C557.655 45.4681 569.445 69.919 579.788 65.5173C579.788 65.5173 571.819 79.3975 557.613 81.4554C541.444 83.7992 516.996 78.024 504.306 50.8824C502.97 48.0276 500.739 45.6744 497.921 44.329C495.602 43.2228 492.885 42.8056 490.626 44.8916C485.545 49.5792 479.539 27.0784 479.539 27.0784V25.2034H479.534Z" fill="#241921"/>
<path d="M469.833 27.5469C469.833 27.5469 470.757 19.5779 476.762 19.1091C482.768 18.6404 506.329 53.7979 488.312 52.3916C488.312 52.3916 473.99 37.391 469.833 27.5469Z" fill="#0061FE"/>
<path d="M469.833 27.5469C469.833 27.5469 470.757 19.5779 476.762 19.1091C482.768 18.6404 506.329 53.7979 488.312 52.3916C488.312 52.3916 473.99 37.391 469.833 27.5469Z" fill="url(#paint5_radial_104_5154)"/>
<path d="M490.807 39.8477L485.406 44.2541" stroke="#0144B9" stroke-width="0.489583" stroke-miterlimit="10"/>
<path d="M487.767 36.0127L482.371 40.4191" stroke="#0144B9" stroke-width="0.489583" stroke-miterlimit="10"/>
<path d="M480.823 27.2471L475.423 31.6535" stroke="#0144B9" stroke-width="0.489583" stroke-miterlimit="10"/>
<path d="M489.504 38.207L484.103 42.6134" stroke="#0144B9" stroke-width="0.489583" stroke-miterlimit="10"/>
<path d="M484.584 31.9961L479.183 36.4025" stroke="#0144B9" stroke-width="0.489583" stroke-miterlimit="10"/>
<path d="M484.847 89.1904C484.847 89.1904 478.841 121.067 464.982 115.441" stroke="#0144B9" stroke-width="0.489583" stroke-miterlimit="10"/>
<path d="M412.778 47.001C412.778 47.001 396.609 47.9385 384.135 64.3453" stroke="#0144B9" stroke-width="0.489583" stroke-miterlimit="10"/>
<path d="M548.601 202.631C548.601 202.631 515.347 199.008 496.531 200.142C489.957 200.541 484.422 205.256 482.912 211.758C480.819 220.768 477.192 234.114 472.836 240.597C467.362 248.744 471.981 297.575 474.162 317.709H382.514C376.61 304.49 365.652 279.148 361.037 263.097C354.569 240.597 364.733 237.784 366.119 218.565C366.119 218.565 347.178 235.44 341.634 242.003C341.634 242.003 343.944 243.409 343.02 245.284C342.096 247.159 341.634 249.972 341.634 249.972C341.634 249.972 312.991 243.409 306.985 250.91L304.214 246.691L307.909 238.722L312.529 234.503C312.529 234.503 349.026 173.094 361.499 165.125C373.972 157.156 386.996 160.709 386.996 160.709C386.996 160.709 381.364 212.939 404.925 210.596C428.486 208.252 453.779 156.28 453.779 156.28C453.779 156.28 456.205 152.004 465.444 151.536C474.684 151.067 582.325 168.411 597.57 182.474C597.57 182.474 605.424 182.006 606.81 188.568C606.81 188.568 618.359 189.506 614.664 203.1L548.601 202.631Z" fill="#0061FE"/>
<path d="M306.986 250.915C306.986 250.915 313.453 288.885 321.769 301.541C321.769 301.541 328.237 295.447 337.476 295.916C337.476 295.916 334.769 265.432 339.356 249.499C339.356 249.499 314.839 243.414 306.986 250.915Z" fill="#FFDE99"/>
<path d="M306.986 250.915C306.986 250.915 313.453 288.885 321.769 301.541C321.769 301.541 328.237 295.447 337.476 295.916C337.476 295.916 334.769 265.432 339.356 249.499C339.356 249.499 314.839 243.414 306.986 250.915Z" fill="url(#paint6_radial_104_5154)"/>
<path d="M337.55 294.238L349.718 286.775C349.718 286.775 359.42 309.276 359.42 316.308C359.42 316.308 356.648 320.058 351.104 306.932L349.718 312.089L342.788 313.026L340.941 311.151L340.017 313.495L337.707 313.964L333.549 312.089L331.701 313.964L326.619 313.495C326.619 313.495 321.537 308.339 321.537 301.307C321.537 294.276 337.55 294.238 337.55 294.238Z" fill="#FFDE99"/>
<path d="M346.484 297.088L351.104 306.932L349.718 312.088L342.788 313.026L340.941 311.151L340.017 313.495L337.707 313.963L333.549 312.088L331.701 313.963L326.619 313.495C326.619 313.495 321.537 308.338 321.537 301.307C334.473 294.275 346.484 297.088 346.484 297.088Z" fill="url(#paint7_radial_104_5154)"/>
<path d="M476.744 232.698C476.564 233.162 476.379 233.617 476.194 234.062C476.157 234.146 476.125 234.226 476.088 234.311C475.903 234.756 475.714 235.192 475.52 235.614C475.492 235.679 475.459 235.74 475.432 235.806C475.228 236.251 475.025 236.683 474.822 237.104C474.693 237.367 474.563 237.62 474.434 237.873C474.046 238.623 473.644 239.331 473.242 239.978C473.108 240.194 472.974 240.405 472.835 240.606C472.757 240.719 472.688 240.845 472.614 240.972C472.6 241 472.581 241.028 472.567 241.061C472.498 241.192 472.429 241.328 472.364 241.469C472.355 241.492 472.346 241.516 472.336 241.534C472.276 241.67 472.216 241.806 472.161 241.951C472.147 241.98 472.138 242.012 472.124 242.041C472.064 242.2 472.004 242.369 471.944 242.547C471.93 242.584 471.921 242.622 471.907 242.659C471.851 242.823 471.801 242.997 471.75 243.175C471.745 243.194 471.736 243.217 471.731 243.236C471.676 243.428 471.625 243.63 471.574 243.836C471.56 243.883 471.551 243.934 471.537 243.981C471.486 244.192 471.436 244.408 471.389 244.628C471.385 244.647 471.38 244.666 471.38 244.684C471.334 244.895 471.292 245.116 471.251 245.336C471.242 245.388 471.232 245.439 471.223 245.486C471.182 245.72 471.14 245.964 471.098 246.208C471.089 246.255 471.085 246.302 471.075 246.348C471.038 246.574 471.006 246.803 470.974 247.038C470.969 247.084 470.96 247.127 470.955 247.174C470.918 247.436 470.886 247.703 470.854 247.975C470.844 248.036 470.84 248.097 470.83 248.158C470.798 248.425 470.77 248.697 470.743 248.974C470.743 248.992 470.738 249.006 470.738 249.025C470.71 249.316 470.683 249.611 470.655 249.911C470.65 249.981 470.641 250.047 470.636 250.117C470.613 250.413 470.586 250.717 470.563 251.022C470.558 251.069 470.558 251.116 470.553 251.158C470.535 251.439 470.516 251.721 470.498 252.007C470.493 252.077 470.489 252.142 470.484 252.213C470.465 252.532 470.447 252.85 470.429 253.174C470.424 253.244 470.424 253.314 470.419 253.385C470.405 253.685 470.392 253.985 470.378 254.294C470.378 254.341 470.373 254.393 470.373 254.439C470.359 254.777 470.345 255.124 470.336 255.471C470.332 255.55 470.332 255.63 470.327 255.714C470.318 256.066 470.308 256.422 470.299 256.788C470.299 256.802 470.299 256.821 470.299 256.835C470.29 257.186 470.285 257.538 470.281 257.899C470.281 257.983 470.276 258.068 470.276 258.157C470.271 258.518 470.267 258.883 470.262 259.254C470.262 259.319 470.262 259.39 470.262 259.455C470.262 259.788 470.258 260.121 470.258 260.454C470.258 260.529 470.258 260.604 470.258 260.683C470.258 261.063 470.258 261.443 470.262 261.827C470.262 261.912 470.262 261.996 470.262 262.08C470.262 262.441 470.267 262.802 470.271 263.168C470.271 263.21 470.271 263.257 470.271 263.299C470.276 263.693 470.281 264.096 470.29 264.494C470.29 264.588 470.295 264.682 470.295 264.776C470.304 265.174 470.308 265.577 470.318 265.985C470.318 266.037 470.322 266.088 470.322 266.135C470.332 266.505 470.341 266.88 470.35 267.26C470.355 267.354 470.355 267.443 470.359 267.537C470.368 267.945 470.382 268.352 470.396 268.765C470.401 268.845 470.401 268.929 470.405 269.009C470.419 269.379 470.429 269.749 470.442 270.12C470.447 270.195 470.447 270.27 470.452 270.345C470.465 270.757 470.484 271.174 470.498 271.592C470.502 271.695 470.507 271.798 470.512 271.901C470.53 272.313 470.544 272.726 470.563 273.143C470.563 273.162 470.563 273.185 470.567 273.204C470.586 273.631 470.604 274.062 470.627 274.493C470.632 274.596 470.636 274.699 470.641 274.807C470.66 275.234 470.683 275.665 470.706 276.092C470.71 276.153 470.71 276.209 470.715 276.27C470.733 276.664 470.757 277.057 470.775 277.451C470.78 277.545 470.784 277.639 470.789 277.732C470.812 278.154 470.835 278.581 470.858 279.007C470.863 279.106 470.872 279.209 470.877 279.307C470.9 279.706 470.923 280.1 470.946 280.498C470.951 280.55 470.951 280.606 470.955 280.658C470.983 281.093 471.006 281.529 471.034 281.965C471.038 282.069 471.048 282.176 471.052 282.279C471.08 282.72 471.108 283.165 471.135 283.606C471.135 283.62 471.135 283.634 471.14 283.648C471.168 284.084 471.195 284.52 471.228 284.956C471.232 285.045 471.242 285.139 471.246 285.228C471.274 285.664 471.306 286.1 471.339 286.536C471.343 286.616 471.348 286.691 471.357 286.77C471.385 287.164 471.413 287.553 471.44 287.947C471.445 288.027 471.45 288.102 471.459 288.181C471.491 288.613 471.523 289.044 471.556 289.47C471.565 289.569 471.57 289.663 471.579 289.761C471.611 290.197 471.644 290.633 471.68 291.064C471.68 291.069 471.68 291.069 471.68 291.074C471.713 291.514 471.75 291.95 471.782 292.386C471.791 292.485 471.796 292.588 471.805 292.686C471.838 293.117 471.875 293.549 471.907 293.975C471.911 294.013 471.911 294.05 471.916 294.088C471.948 294.5 471.985 294.908 472.018 295.316C472.022 295.391 472.032 295.466 472.036 295.536C472.073 295.963 472.106 296.385 472.142 296.807C472.147 296.886 472.156 296.966 472.161 297.041C472.193 297.435 472.23 297.828 472.263 298.222C472.267 298.26 472.267 298.297 472.272 298.339C472.309 298.771 472.346 299.197 472.383 299.624C472.387 299.694 472.397 299.76 472.401 299.83C472.475 300.688 472.554 301.532 472.628 302.366C472.632 302.427 472.637 302.488 472.646 302.544C472.683 302.952 472.72 303.36 472.757 303.763C472.762 303.815 472.766 303.866 472.771 303.918C472.808 304.307 472.845 304.687 472.877 305.071C472.882 305.104 472.882 305.132 472.886 305.165C472.923 305.568 472.965 305.966 473.002 306.36C473.006 306.421 473.016 306.482 473.02 306.548C473.057 306.932 473.094 307.312 473.131 307.687C473.131 307.696 473.131 307.701 473.131 307.71C473.168 308.099 473.205 308.484 473.247 308.868C473.251 308.924 473.256 308.98 473.265 309.037C473.339 309.801 473.418 310.551 473.491 311.282C473.496 311.32 473.501 311.357 473.501 311.39C473.538 311.756 473.575 312.121 473.612 312.477C473.612 312.496 473.616 312.515 473.616 312.538C473.653 312.899 473.69 313.256 473.727 313.607C473.727 313.612 473.727 313.617 473.727 313.626C473.764 313.968 473.796 314.306 473.833 314.638C473.838 314.69 473.843 314.737 473.847 314.788C473.916 315.445 473.986 316.082 474.05 316.696C474.055 316.729 474.055 316.762 474.06 316.79C474.092 317.104 474.124 317.414 474.161 317.714H382.514C382.491 317.662 382.468 317.61 382.445 317.559C382.311 317.259 382.172 316.949 382.033 316.64C381.987 316.532 381.936 316.424 381.886 316.312C381.724 315.946 381.558 315.571 381.387 315.192C381.336 315.074 381.285 314.957 381.23 314.84C381.105 314.554 380.975 314.263 380.846 313.968C380.777 313.813 380.708 313.654 380.638 313.495C380.477 313.129 380.31 312.754 380.144 312.379C380.065 312.201 379.987 312.023 379.908 311.84C379.797 311.587 379.687 311.334 379.576 311.08C379.479 310.865 379.386 310.645 379.289 310.424C379.169 310.148 379.049 309.871 378.929 309.594C378.795 309.28 378.656 308.966 378.518 308.652C378.416 308.418 378.315 308.184 378.213 307.944C378.102 307.691 377.991 307.433 377.88 307.176C377.792 306.969 377.7 306.763 377.612 306.557C377.427 306.126 377.238 305.685 377.049 305.244C376.956 305.033 376.868 304.822 376.776 304.612C376.661 304.335 376.541 304.063 376.42 303.786C376.337 303.59 376.249 303.388 376.166 303.191C375.954 302.694 375.741 302.193 375.529 301.686C375.455 301.508 375.376 301.33 375.302 301.152C375.173 300.843 375.039 300.533 374.91 300.219C374.84 300.055 374.771 299.896 374.702 299.732C374.466 299.169 374.231 298.607 373.99 298.039C373.921 297.88 373.856 297.721 373.787 297.557C373.648 297.228 373.51 296.896 373.376 296.563C373.311 296.413 373.251 296.258 373.187 296.108C372.942 295.513 372.692 294.917 372.447 294.317C372.383 294.163 372.323 294.013 372.258 293.858C372.119 293.52 371.981 293.183 371.842 292.845C371.777 292.686 371.713 292.527 371.648 292.372C371.403 291.767 371.158 291.163 370.914 290.558C370.854 290.408 370.793 290.258 370.733 290.108C370.595 289.766 370.456 289.423 370.322 289.077C370.258 288.922 370.197 288.762 370.133 288.608C369.893 288.008 369.652 287.403 369.417 286.803C369.352 286.644 369.287 286.48 369.227 286.32C369.093 285.983 368.959 285.645 368.83 285.308C368.765 285.139 368.701 284.975 368.636 284.806C368.41 284.22 368.179 283.634 367.957 283.053C367.892 282.884 367.828 282.715 367.758 282.542C367.634 282.219 367.509 281.89 367.384 281.567C367.315 281.379 367.241 281.197 367.172 281.009C366.964 280.456 366.756 279.908 366.548 279.359C366.479 279.176 366.409 278.989 366.34 278.806C366.224 278.492 366.109 278.182 365.994 277.873C365.92 277.676 365.846 277.475 365.776 277.278C365.592 276.781 365.411 276.289 365.236 275.796C365.157 275.576 365.074 275.356 364.996 275.135C364.889 274.845 364.788 274.559 364.686 274.273C364.608 274.057 364.534 273.842 364.46 273.631C364.303 273.19 364.15 272.759 364.002 272.323C363.915 272.074 363.827 271.826 363.744 271.578C363.651 271.31 363.559 271.043 363.471 270.776C363.397 270.556 363.319 270.331 363.245 270.11C363.125 269.749 363.005 269.388 362.884 269.032C362.787 268.741 362.69 268.451 362.598 268.16C362.519 267.916 362.441 267.673 362.362 267.429C362.288 267.195 362.215 266.965 362.141 266.735C362.067 266.505 361.997 266.276 361.923 266.051C363.175 266.773 364.335 267.255 368.202 267.574C385.295 268.981 385.295 261.48 407.932 266.168C430.569 270.856 450.896 270.387 454.592 243.198C458.191 216.727 471.685 192.103 499.866 190.228C528.047 188.353 555.179 197.086 555.179 197.086L550.896 202.664L548.609 202.65C548.609 202.65 548.595 202.65 548.577 202.645C548.568 202.645 548.558 202.645 548.545 202.641C548.531 202.641 548.517 202.636 548.498 202.636C548.48 202.636 548.461 202.631 548.443 202.631C548.415 202.627 548.378 202.627 548.341 202.622C548.314 202.617 548.286 202.617 548.254 202.613C548.226 202.608 548.193 202.608 548.161 202.603C548.115 202.598 548.073 202.594 548.027 202.589C547.949 202.58 547.861 202.57 547.768 202.561C547.741 202.556 547.708 202.556 547.676 202.552C547.593 202.542 547.505 202.533 547.413 202.523C547.385 202.519 547.353 202.519 547.32 202.514C547.223 202.505 547.126 202.495 547.02 202.481C546.978 202.477 546.937 202.472 546.891 202.467C546.794 202.458 546.697 202.448 546.59 202.439C546.53 202.434 546.47 202.425 546.406 202.42C546.276 202.406 546.142 202.392 545.999 202.378C545.967 202.373 545.944 202.373 545.911 202.369C545.736 202.35 545.556 202.331 545.366 202.317C545.311 202.313 545.251 202.308 545.191 202.298C545.052 202.284 544.909 202.27 544.766 202.256C544.696 202.252 544.622 202.242 544.548 202.238C544.391 202.223 544.23 202.205 544.068 202.191C544.017 202.186 543.962 202.181 543.911 202.177C543.726 202.158 543.532 202.139 543.333 202.12C543.283 202.116 543.232 202.111 543.181 202.106C542.936 202.083 542.682 202.059 542.423 202.036C542.419 202.036 542.41 202.036 542.405 202.036C542.169 202.013 541.924 201.994 541.68 201.97C541.587 201.961 541.49 201.952 541.393 201.942C541.208 201.923 541.019 201.909 540.825 201.891C540.737 201.881 540.654 201.877 540.566 201.867C540.363 201.848 540.155 201.83 539.943 201.811C539.859 201.802 539.776 201.797 539.693 201.788C539.434 201.764 539.171 201.741 538.898 201.717C538.861 201.713 538.825 201.713 538.788 201.708C538.483 201.68 538.173 201.656 537.859 201.628C537.776 201.619 537.693 201.614 537.61 201.605C537.374 201.586 537.138 201.563 536.893 201.544C536.787 201.534 536.681 201.525 536.579 201.516C536.348 201.497 536.113 201.478 535.877 201.459C535.775 201.45 535.674 201.441 535.572 201.436C535.323 201.417 535.073 201.394 534.819 201.375C534.722 201.366 534.625 201.361 534.528 201.352C533.835 201.295 533.128 201.239 532.403 201.187C532.301 201.178 532.204 201.173 532.103 201.164C531.844 201.145 531.59 201.127 531.327 201.108C531.197 201.098 531.063 201.089 530.929 201.08C530.68 201.061 530.43 201.042 530.176 201.023C530.052 201.014 529.927 201.005 529.802 200.995C529.506 200.972 529.206 200.953 528.906 200.93C528.827 200.925 528.749 200.92 528.67 200.911C528.287 200.883 527.903 200.859 527.515 200.831C527.437 200.827 527.358 200.822 527.28 200.817C526.97 200.798 526.656 200.775 526.342 200.756C526.222 200.747 526.102 200.742 525.986 200.733C525.714 200.714 525.436 200.695 525.164 200.681C525.025 200.672 524.891 200.662 524.753 200.653C524.475 200.634 524.198 200.62 523.916 200.602C523.796 200.592 523.672 200.587 523.552 200.578C518.904 200.302 514.044 200.081 509.387 199.987C509.031 199.978 508.68 199.973 508.325 199.969C508.315 199.969 508.306 199.969 508.302 199.969C507.84 199.959 507.382 199.955 506.925 199.95C506.814 199.95 506.699 199.95 506.588 199.945C505.659 199.936 504.74 199.936 503.839 199.941C503.728 199.941 503.622 199.941 503.511 199.941C502.615 199.945 501.732 199.959 500.868 199.983C500.762 199.987 500.656 199.987 500.55 199.992C499.69 200.016 498.854 200.044 498.041 200.081C497.939 200.086 497.838 200.091 497.741 200.095C497.334 200.114 496.932 200.137 496.54 200.161C494.895 200.259 493.32 200.63 491.85 201.23C491.513 201.366 491.181 201.52 490.857 201.684C490.816 201.708 490.769 201.727 490.728 201.745C490.418 201.9 490.118 202.069 489.822 202.247C489.772 202.28 489.716 202.313 489.665 202.341C489.374 202.519 489.092 202.711 488.815 202.908C488.769 202.941 488.723 202.974 488.677 203.011C488.395 203.217 488.118 203.433 487.85 203.663C487.827 203.681 487.804 203.705 487.78 203.724C487.517 203.953 487.258 204.188 487.009 204.436C486.986 204.459 486.967 204.478 486.944 204.497C486.695 204.745 486.459 205.003 486.228 205.27C486.191 205.313 486.154 205.355 486.117 205.402C485.896 205.664 485.683 205.931 485.48 206.213C485.443 206.264 485.406 206.311 485.369 206.363C485.166 206.644 484.972 206.935 484.787 207.235C484.764 207.277 484.736 207.319 484.713 207.356C484.524 207.671 484.339 207.994 484.172 208.322C484.011 208.646 483.858 208.978 483.72 209.316C483.678 209.414 483.641 209.518 483.6 209.616C483.498 209.869 483.406 210.122 483.322 210.385C483.285 210.488 483.253 210.591 483.221 210.699C483.11 211.055 483.008 211.411 482.925 211.777C482.837 212.152 482.75 212.536 482.657 212.921C482.634 213.019 482.611 213.118 482.588 213.216C482.495 213.605 482.403 213.999 482.301 214.397C482.297 214.411 482.297 214.425 482.292 214.435C482.195 214.833 482.093 215.236 481.992 215.644C481.964 215.747 481.941 215.851 481.913 215.954C481.701 216.788 481.484 217.646 481.253 218.513C481.225 218.621 481.193 218.733 481.165 218.841C480.934 219.713 480.694 220.594 480.44 221.48C480.407 221.588 480.38 221.701 480.347 221.809C480.222 222.254 480.093 222.704 479.959 223.149C479.765 223.815 479.562 224.485 479.359 225.151C479.155 225.816 478.943 226.482 478.73 227.138C478.518 227.795 478.296 228.451 478.074 229.098V229.103C477.853 229.749 477.626 230.387 477.395 231.015C477.21 231.517 477.021 232.009 476.832 232.496C476.799 232.557 476.772 232.628 476.744 232.698Z" fill="url(#paint8_radial_104_5154)"/>
<path d="M541.398 355.932H673.145C676.056 355.932 678.416 353.537 678.416 350.584V214.585L536.127 214.585V350.584C536.127 353.537 538.488 355.932 541.398 355.932Z" fill="#FB8F8F"/>
<path d="M476.028 214.806L536.127 214.806V350.579C536.127 353.532 538.488 355.928 541.398 355.928H609.272C608.796 356.069 608.298 356.148 607.776 356.148H476.028C473.118 356.148 470.757 353.753 470.757 350.8V220.154C470.757 217.201 473.118 214.806 476.028 214.806Z" fill="#EECFF8"/>
<path d="M472.771 226.946C472.771 226.946 464.289 234.742 461.979 238.961C459.669 243.18 459.669 248.336 457.821 255.368C457.821 255.368 464.289 254.43 467.985 241.305C471.681 228.179 472.771 226.946 472.771 226.946Z" fill="url(#paint9_radial_104_5154)"/>
<path opacity="0.57" d="M547.907 225.367L536.127 226.947V220.323L546.059 221.148L547.907 225.367Z" fill="url(#paint10_radial_104_5154)"/>
<path d="M560.381 244.586L702.67 244.586L678.185 214.585L535.896 214.585L560.381 244.586Z" fill="#F9C1DA"/>
<path d="M382.722 318.182C377.211 305.863 366.987 282.303 361.919 266.032C363.171 266.754 364.331 267.237 368.198 267.556C385.291 268.962 385.291 261.462 407.928 266.149C430.565 270.837 450.892 270.368 454.588 243.18C458.187 216.709 471.681 192.084 499.862 190.209C528.042 188.334 555.174 197.067 555.174 197.067L550.892 202.646L548.605 202.631C548.605 202.631 536.256 201.286 522.351 200.489C520.923 200.41 519.482 200.33 518.036 200.264C517.311 200.231 516.585 200.199 515.865 200.17C513.693 200.081 511.522 200.011 509.392 199.969C509.037 199.96 508.686 199.955 508.33 199.95C504.103 199.885 500.065 199.931 496.54 200.142C494.895 200.241 493.32 200.611 491.851 201.211C488.552 202.561 485.813 205.074 484.178 208.308C483.632 209.386 483.207 210.544 482.926 211.763C482.14 215.143 481.142 219.132 479.969 223.14C479.775 223.806 479.572 224.476 479.368 225.142C479.165 225.807 478.953 226.473 478.74 227.129C478.528 227.79 478.306 228.442 478.084 229.089C477.862 229.736 477.636 230.373 477.405 231.001C476.596 233.2 475.737 235.272 474.841 237.1C474.328 238.145 473.801 239.111 473.261 239.973C473.127 240.189 472.993 240.4 472.854 240.602C470.946 243.438 470.267 251.205 470.277 260.974C470.258 279.303 472.744 304.945 474.176 318.182H382.722Z" fill="url(#paint11_radial_104_5154)"/>
<path d="M503.095 215.522H534.048L536.127 220.21V227.242C536.127 227.242 511.873 227.71 502.171 238.492C492.47 249.274 486.464 298.963 470.757 295.213V242.045L503.095 215.522Z" fill="url(#paint12_radial_104_5154)"/>
<path d="M549.755 231.461L535.896 214.585H612.123C612.123 214.585 622.286 232.398 549.755 231.461Z" fill="url(#paint13_radial_104_5154)"/>
<path d="M606.699 194.643C610.505 195.168 613.651 198.037 614.404 201.858C615.083 205.317 614.732 210.085 611.198 215.991C603.663 228.587 539.984 219.601 505.456 225.891C502.762 226.384 500.365 227.935 498.771 230.195C494.742 235.9 486.977 247.506 484.616 255.367C481.382 266.149 477.686 281.618 475.376 287.712C475.376 287.712 473.759 288.416 473.297 283.259V263.102L469.602 275.759L467.754 287.947C467.754 287.947 465.444 287.947 463.596 282.79C463.596 282.79 461.748 284.197 460.824 278.103V270.602L458.052 264.04L461.748 242.476C461.748 242.476 475.82 220.416 481.95 215.743C488.081 211.069 525.501 205.444 553.682 197.475C575.215 191.385 597.417 193.368 606.699 194.643Z" fill="#FFDE99"/>
<path d="M495.186 235.44C495.186 235.44 495.181 235.44 495.186 235.44C490.1 229.44 485.66 222.483 483.447 214.861C492.696 210.361 527.252 204.952 553.682 197.475C575.215 191.385 597.417 193.368 606.699 194.643C610.505 195.168 613.651 198.037 614.404 201.858C615.083 205.317 614.732 210.085 611.198 215.991C604.051 227.935 546.396 220.468 511.013 225.034C504.869 225.826 499.344 229.224 495.86 234.423C495.639 234.756 495.412 235.093 495.186 235.44Z" fill="url(#paint14_radial_104_5154)"/>
<path d="M467.754 287.947C467.754 287.947 465.444 287.947 463.596 282.79C463.596 282.79 461.748 284.197 460.824 278.103V270.602L458.052 264.04L461.448 244.604C461.448 244.604 472.143 252.086 478.148 250.211L473.067 262.868L472.947 264.302L469.602 275.759L467.754 287.947Z" fill="url(#paint15_radial_104_5154)"/>
<path d="M328.929 238.961C344.174 236.617 366.349 202.866 366.349 202.866V218.336L366.095 218.842C366.105 218.753 366.109 218.664 366.118 218.57C366.118 218.57 347.177 235.445 341.634 242.008C341.634 242.008 343.943 243.415 343.019 245.29C342.096 247.165 341.634 249.977 341.634 249.977C341.634 249.977 339.772 249.551 336.898 249.04C336.88 247.816 336.288 246.204 334.011 244.586C329.391 241.305 310.45 244.586 310.45 244.586C310.45 244.586 313.684 241.305 328.929 238.961Z" fill="url(#paint16_radial_104_5154)"/>
<path d="M485.078 158.802C485.078 158.802 460.131 152.708 455.973 162.084" stroke="#0061FE" stroke-width="0.489583" stroke-miterlimit="10"/>
<path d="M376.744 163.255C376.744 163.255 364.732 165.599 359.189 171.693" stroke="#0061FE" stroke-width="0.489583" stroke-miterlimit="10"/>
<path d="M407.9 254.58C407.9 254.58 420.618 261.663 431.747 254.763" stroke="#0061FE" stroke-width="0.489583" stroke-miterlimit="10"/>
<path d="M492.701 38.5633C492.701 38.5633 500.093 34.3444 511.18 52.6263C522.415 71.152 536.127 71.377 549.062 69.9707" stroke="#0061FE" stroke-width="0.489583" stroke-miterlimit="10"/>
<path d="M152.283 129.035H167.634L162.774 113.463H147.423L152.283 129.035Z" stroke="#0061FE" stroke-width="0.489583" stroke-miterlimit="10"/>
<path d="M224.421 154.283C222.545 151.911 219.006 150.843 217.089 152.066C216.17 152.652 215.638 153.646 214.802 154.326C213.62 155.291 211.818 155.582 209.975 155.104C208.127 154.63 206.265 153.393 204.981 151.794" stroke="#FA404B" stroke-width="0.489583" stroke-miterlimit="10"/>
<path d="M142.119 81.6896H157.47L152.61 66.1172H137.259L142.119 81.6896Z" fill="url(#paint17_radial_104_5154)"/>
<path d="M148.291 101.463H163.638L158.778 85.8857H143.431L148.291 101.463Z" fill="url(#paint18_radial_104_5154)"/>
<path d="M154.458 121.23H169.805L164.945 105.653H149.598L154.458 121.23Z" fill="url(#paint19_radial_104_5154)"/>
<path d="M151.428 73.8521L149.806 77.9679L140.072 69.7363" stroke="white" stroke-width="0.489583" stroke-miterlimit="10"/>
<path d="M204.185 142.395H263.166C265.139 142.395 266.266 140.773 265.684 138.771L256.107 105.882C255.525 103.881 253.456 102.259 251.483 102.259L192.502 102.259C190.529 102.259 189.402 103.881 189.984 105.882L199.561 138.771C200.143 140.773 202.213 142.395 204.185 142.395Z" fill="#FB8F8F"/>
<path d="M190.123 131.614H251.76C253.733 131.614 254.86 129.992 254.278 127.99L244.235 93.4888C243.653 91.4872 241.583 89.8652 239.61 89.8652L177.973 89.8652C176 89.8652 174.873 91.4872 175.455 93.4888L185.499 127.99C186.081 129.992 188.151 131.614 190.123 131.614Z" stroke="#FB8F8F" stroke-width="0.489583" stroke-miterlimit="10"/>
<path d="M198 133.408H264.118L262.201 126.817L196.078 126.817L198 133.408Z" fill="url(#paint20_linear_104_5154)"/>
<path d="M242.101 118.338H249.612C250.633 118.338 251.22 117.499 250.915 116.458L249.451 111.424C249.15 110.388 248.074 109.544 247.053 109.544H239.541C238.52 109.544 237.934 110.383 238.238 111.424L239.703 116.458C240.003 117.499 241.08 118.338 242.101 118.338Z" fill="url(#paint21_radial_104_5154)"/>
<path d="M246.392 109.544L247.58 113.627L246.494 116.139L247.131 118.338" stroke="#F9C1DA" stroke-width="0.489583" stroke-miterlimit="10"/>
<path d="M246.494 116.14L243.722 113.627H238.88" stroke="#F9C1DA" stroke-width="0.489583" stroke-miterlimit="10"/>
<path d="M240.691 109.544L241.883 113.627" stroke="#F9C1DA" stroke-width="0.489583" stroke-miterlimit="10"/>
<path d="M204.186 142.395C202.213 142.395 200.143 140.773 199.561 138.771L189.985 105.882C189.402 103.881 190.53 102.259 192.502 102.259H203.031L232.542 142.395H204.186Z" fill="url(#paint22_radial_104_5154)"/>
<path d="M178.121 210.835H308.778L277.839 113.331L147.182 113.331L178.121 210.835Z" fill="url(#paint23_radial_104_5154)"/>
<path d="M176.245 175.911H287.582L284.348 167.005H173.011L176.245 175.911Z" stroke="white" stroke-width="0.489583" stroke-miterlimit="10"/>
<path d="M181.327 188.1H292.664L289.43 179.193H178.093L181.327 188.1Z" stroke="white" stroke-width="0.489583" stroke-miterlimit="10"/>
<path d="M185.485 200.287H296.822L293.588 191.381H182.251L185.485 200.287Z" stroke="white" stroke-width="0.489583" stroke-miterlimit="10"/>
<path d="M185.115 321.487H417.421C418.622 321.487 419.597 320.498 419.597 319.279V316.092C419.597 314.873 418.622 313.884 417.421 313.884L185.115 313.884C183.914 313.884 182.939 314.873 182.939 316.092V319.279C182.939 320.498 183.914 321.487 185.115 321.487Z" fill="#FB8F8F"/>
<path d="M185.115 321.487H323.755C324.957 321.487 325.931 320.498 325.931 319.279V316.092C325.931 314.873 324.957 313.884 323.755 313.884H185.111C183.91 313.884 182.935 314.873 182.935 316.092V319.279C182.939 320.498 183.914 321.487 185.115 321.487Z" fill="#F9C1DA"/>
<path d="M150.642 194.766L284.81 194.766C286.616 194.766 288.224 195.942 288.788 197.686L324.115 306.402C325.007 309.154 322.988 311.985 320.138 311.985H185.965C184.159 311.985 182.551 310.809 181.987 309.065L146.66 200.349C145.768 197.597 147.787 194.766 150.642 194.766Z" fill="#EECFF8"/>
<path d="M341.449 319.584H352.878C353.516 319.584 354.033 319.059 354.033 318.412V317.587C354.033 316.94 353.516 316.415 352.878 316.415H341.449C340.812 316.415 340.294 316.94 340.294 317.587V318.412C340.294 319.059 340.812 319.584 341.449 319.584Z" stroke="#0061FE" stroke-width="0.489583" stroke-miterlimit="10"/>
<path d="M191.897 319.903H203.326C203.964 319.903 204.481 319.378 204.481 318.731V317.906C204.481 317.259 203.964 316.734 203.326 316.734H191.897C191.26 316.734 190.742 317.259 190.742 317.906V318.731C190.742 319.378 191.26 319.903 191.897 319.903Z" stroke="#0061FE" stroke-width="0.489583" stroke-miterlimit="10"/>
<path d="M364.243 319.903H375.673C376.31 319.903 376.828 319.378 376.828 318.731V317.906C376.828 317.259 376.31 316.734 375.673 316.734H364.243C363.606 316.734 363.088 317.259 363.088 317.906V318.731C363.088 319.378 363.606 319.903 364.243 319.903Z" stroke="#0061FE" stroke-width="0.489583" stroke-miterlimit="10"/>
<path d="M333.018 319.903H333.831C334.469 319.903 334.986 319.378 334.986 318.731V317.906C334.986 317.259 334.469 316.734 333.831 316.734H333.018C332.381 316.734 331.863 317.259 331.863 317.906V318.731C331.863 319.378 332.381 319.903 333.018 319.903Z" stroke="#0061FE" stroke-width="0.489583" stroke-miterlimit="10"/>
<path d="M148.18 195.581C148.864 195.075 149.704 194.766 150.642 194.766L284.81 194.766C286.617 194.766 288.224 195.942 288.788 197.686L323.7 305.123L148.18 195.581Z" fill="url(#paint24_linear_104_5154)"/>
<path d="M170.725 203.067L213.19 229.679" stroke="white" stroke-width="0.489583" stroke-miterlimit="10"/>
<path d="M672.642 270.537H792.576V355.595H672.642V270.537Z" fill="#DEF4FF"/>
<path d="M792.576 270.537H824.171V355.595H792.576V270.537Z" fill="url(#paint25_radial_104_5154)"/>
<path d="M616.28 254.739H716.225V356.152H616.28V254.739Z" fill="#FFDE99"/>
<path d="M648.462 254.739H748.406V356.152H648.462V254.739Z" fill="#F1D23C"/>
<path d="M708.653 254.739H725.691V285.472H708.653V254.739Z" fill="#FB8F8F"/>
<path d="M449.506 300.369H540.054V364.59H449.506V300.369Z" fill="#F2F6FF"/>
<path d="M494.78 300.369H585.327V364.59H494.78V300.369Z" fill="url(#paint26_radial_104_5154)"/>
<path d="M824.171 270.537L808.695 290.816L792.576 270.537" stroke="white" stroke-width="0.489583" stroke-miterlimit="10"/>
<path d="M823.847 355.918L808.371 336.942L792.899 355.918" stroke="white" stroke-width="0.489583" stroke-miterlimit="10"/>
<path d="M808.371 336.943V291.145" stroke="white" stroke-width="0.489583" stroke-miterlimit="10"/>
<path d="M494.78 300.369L470.757 319.584L449.506 300.369" stroke="#0061FE" stroke-width="0.489583" stroke-miterlimit="10"/>
<path d="M495.011 364.825L470.988 350.762L449.737 364.825" stroke="#0061FE" stroke-width="0.489583" stroke-miterlimit="10"/>
<path d="M470.988 319.354V350.762" stroke="#0061FE" stroke-width="0.489583" stroke-miterlimit="10"/>
<path d="M731.161 104.406C733.461 107.486 733.369 112.169 730.943 115.15C728.144 118.591 723.062 119.505 720.42 123.068C718.405 125.782 718.318 129.809 720.212 132.612" stroke="#0061FE" stroke-width="0.489583" stroke-miterlimit="10"/>
<path d="M296.591 41.844C294.678 41.844 293.126 40.2699 293.126 38.3283C293.126 36.3866 294.678 34.8125 296.591 34.8125C298.503 34.8125 300.056 36.3866 300.056 38.3283C300.056 40.2699 298.503 41.844 296.591 41.844Z" stroke="#0061FE" stroke-width="0.489583" stroke-miterlimit="10"/>
<path d="M609.811 137.879L614.272 139.097L613.071 143.624L608.61 142.405L609.811 137.879Z" stroke="#FA404B" stroke-width="0.489583" stroke-miterlimit="10"/>
<path d="M113.661 164.134L118.124 165.352L116.923 169.879L112.46 168.66L113.661 164.134Z" stroke="#0061FE" stroke-width="0.489583" stroke-miterlimit="10"/>
<path d="M257.553 377.95C257.553 377.95 240.922 359.2 216.899 369.513" stroke="#FA404B" stroke-width="0.489583" stroke-miterlimit="10"/>
<path d="M688.118 29.6562L695.509 40.9067" stroke="#FA404B" stroke-width="0.489583" stroke-miterlimit="10"/>
<path d="M732.468 377.95L725.538 383.107" stroke="#FA404B" stroke-width="0.489583" stroke-miterlimit="10"/>
<path d="M177.77 263.486C176.629 268.966 171.773 273.429 166.29 274.048C164.276 274.273 162.234 274.034 160.219 274.268C156.505 274.704 153.022 276.856 150.934 280.001" stroke="#0061FE" stroke-width="0.489583" stroke-miterlimit="10"/>
<defs>
<radialGradient id="paint0_radial_104_5154" cx="0" cy="0" r="1" gradientUnits="userSpaceOnUse" gradientTransform="translate(580.374 18.4845) rotate(165.99) scale(461.637 285.214)">
<stop stop-color="#EECFF8"/>
<stop offset="0.9011" stop-color="white" stop-opacity="0"/>
</radialGradient>
<radialGradient id="paint1_radial_104_5154" cx="0" cy="0" r="1" gradientUnits="userSpaceOnUse" gradientTransform="translate(449.102 278.464) rotate(180) scale(314.916 164.118)">
<stop offset="0.3362" stop-color="#DEF4FF"/>
<stop offset="0.5609" stop-color="#E4F6FF" stop-opacity="0.6615"/>
<stop offset="0.8543" stop-color="#F4FBFF" stop-opacity="0.2196"/>
<stop offset="1" stop-color="white" stop-opacity="0"/>
</radialGradient>
<radialGradient id="paint2_radial_104_5154" cx="0" cy="0" r="1" gradientUnits="userSpaceOnUse" gradientTransform="translate(400.282 136.375) rotate(180) scale(49.3237 50.0484)">
<stop stop-color="#FA404B"/>
<stop offset="0.025" stop-color="#FA484F" stop-opacity="0.975"/>
<stop offset="0.1916" stop-color="#FC7565" stop-opacity="0.8084"/>
<stop offset="0.3589" stop-color="#FD9B78" stop-opacity="0.6411"/>
<stop offset="0.5244" stop-color="#FEB886" stop-opacity="0.4756"/>
<stop offset="0.6876" stop-color="#FECD91" stop-opacity="0.3124"/>
<stop offset="0.8474" stop-color="#FFDA97" stop-opacity="0.1526"/>
<stop offset="1" stop-color="#FFDE99" stop-opacity="0"/>
</radialGradient>
<radialGradient id="paint3_radial_104_5154" cx="0" cy="0" r="1" gradientUnits="userSpaceOnUse" gradientTransform="translate(466.808 145.612) rotate(180) scale(81.7029 82.9033)">
<stop stop-color="#FA404B"/>
<stop offset="0.025" stop-color="#FA484F" stop-opacity="0.975"/>
<stop offset="0.1916" stop-color="#FC7565" stop-opacity="0.8084"/>
<stop offset="0.3589" stop-color="#FD9B78" stop-opacity="0.6411"/>
<stop offset="0.5244" stop-color="#FEB886" stop-opacity="0.4756"/>
<stop offset="0.6876" stop-color="#FECD91" stop-opacity="0.3124"/>
<stop offset="0.8474" stop-color="#FFDA97" stop-opacity="0.1526"/>
<stop offset="1" stop-color="#FFDE99" stop-opacity="0"/>
</radialGradient>
<radialGradient id="paint4_radial_104_5154" cx="0" cy="0" r="1" gradientUnits="userSpaceOnUse" gradientTransform="translate(396.78 80.5963) rotate(180) scale(46.5148 47.1982)">
<stop stop-color="#FA404B"/>
<stop offset="0.025" stop-color="#FA484F" stop-opacity="0.975"/>
<stop offset="0.1916" stop-color="#FC7565" stop-opacity="0.8084"/>
<stop offset="0.3589" stop-color="#FD9B78" stop-opacity="0.6411"/>
<stop offset="0.5244" stop-color="#FEB886" stop-opacity="0.4756"/>
<stop offset="0.6876" stop-color="#FECD91" stop-opacity="0.3124"/>
<stop offset="0.8474" stop-color="#FFDA97" stop-opacity="0.1526"/>
<stop offset="1" stop-color="#FFDE99" stop-opacity="0"/>
</radialGradient>
<radialGradient id="paint5_radial_104_5154" cx="0" cy="0" r="1" gradientUnits="userSpaceOnUse" gradientTransform="translate(498.645 77.2067) rotate(180) scale(70.1899 71.2211)">
<stop offset="0.0936" stop-color="#241921"/>
<stop offset="1" stop-color="#0144B9" stop-opacity="0"/>
</radialGradient>
<radialGradient id="paint6_radial_104_5154" cx="0" cy="0" r="1" gradientUnits="userSpaceOnUse" gradientTransform="translate(321.27 235.94) rotate(180) scale(71.9324 72.9893)">
<stop stop-color="#FA404B"/>
<stop offset="0.025" stop-color="#FA484F" stop-opacity="0.975"/>
<stop offset="0.1916" stop-color="#FC7565" stop-opacity="0.8084"/>
<stop offset="0.3589" stop-color="#FD9B78" stop-opacity="0.6411"/>
<stop offset="0.5244" stop-color="#FEB886" stop-opacity="0.4756"/>
<stop offset="0.6876" stop-color="#FECD91" stop-opacity="0.3124"/>
<stop offset="0.8474" stop-color="#FFDA97" stop-opacity="0.1526"/>
<stop offset="1" stop-color="#FFDE99" stop-opacity="0"/>
</radialGradient>
<radialGradient id="paint7_radial_104_5154" cx="0" cy="0" r="1" gradientUnits="userSpaceOnUse" gradientTransform="translate(348.231 292.933) rotate(180) scale(25.9911 26.373)">
<stop stop-color="#FA404B"/>
<stop offset="0.025" stop-color="#FA484F" stop-opacity="0.975"/>
<stop offset="0.1916" stop-color="#FC7565" stop-opacity="0.8084"/>
<stop offset="0.3589" stop-color="#FD9B78" stop-opacity="0.6411"/>
<stop offset="0.5244" stop-color="#FEB886" stop-opacity="0.4756"/>
<stop offset="0.6876" stop-color="#FECD91" stop-opacity="0.3124"/>
<stop offset="0.8474" stop-color="#FFDA97" stop-opacity="0.1526"/>
<stop offset="1" stop-color="#FFDE99" stop-opacity="0"/>
</radialGradient>
<radialGradient id="paint8_radial_104_5154" cx="0" cy="0" r="1" gradientUnits="userSpaceOnUse" gradientTransform="translate(515.243 243.359) rotate(180) scale(84.9312 86.179)">
<stop offset="0.0936" stop-color="#241921"/>
<stop offset="1" stop-color="#0144B9" stop-opacity="0"/>
</radialGradient>
<radialGradient id="paint9_radial_104_5154" cx="0" cy="0" r="1" gradientUnits="userSpaceOnUse" gradientTransform="translate(483.002 235.65) rotate(180) scale(32.6097 33.0888)">
<stop stop-color="#FA404B"/>
<stop offset="0.025" stop-color="#FA484F"/>
<stop offset="0.1916" stop-color="#FC7565"/>
<stop offset="0.3589" stop-color="#FD9B78"/>
<stop offset="0.5244" stop-color="#FEB886"/>
<stop offset="0.6876" stop-color="#FECD91"/>
<stop offset="0.8474" stop-color="#FFDA97"/>
<stop offset="1" stop-color="#FFDE99"/>
</radialGradient>
<radialGradient id="paint10_radial_104_5154" cx="0" cy="0" r="1" gradientUnits="userSpaceOnUse" gradientTransform="translate(560.094 203.982) rotate(180) scale(34.3954 34.9007)">
<stop offset="0.0936" stop-color="#241921"/>
<stop offset="1" stop-color="#0144B9" stop-opacity="0"/>
</radialGradient>
<radialGradient id="paint11_radial_104_5154" cx="0" cy="0" r="1" gradientUnits="userSpaceOnUse" gradientTransform="translate(331.895 261.976) rotate(180) scale(88.7582 90.0623)">
<stop offset="0.0936" stop-color="#241921"/>
<stop offset="1" stop-color="#0144B9" stop-opacity="0"/>
</radialGradient>
<radialGradient id="paint12_radial_104_5154" cx="0" cy="0" r="1" gradientUnits="userSpaceOnUse" gradientTransform="translate(499.506 208.007) rotate(180) scale(81.8918 83.095)">
<stop stop-color="#FB8F8F"/>
<stop offset="1" stop-color="#F9C1DA" stop-opacity="0"/>
</radialGradient>
<radialGradient id="paint13_radial_104_5154" cx="0" cy="0" r="1" gradientUnits="userSpaceOnUse" gradientTransform="translate(585.592 193.146) rotate(180) scale(65.9069 66.8752)">
<stop stop-color="#FB8F8F"/>
<stop offset="1" stop-color="#F9C1DA" stop-opacity="0"/>
</radialGradient>
<radialGradient id="paint14_radial_104_5154" cx="0" cy="0" r="1" gradientUnits="userSpaceOnUse" gradientTransform="translate(657.279 234.609) rotate(180) scale(191.668 194.483)">
<stop stop-color="#FA404B"/>
<stop offset="0.025" stop-color="#FA484F" stop-opacity="0.975"/>
<stop offset="0.1916" stop-color="#FC7565" stop-opacity="0.8084"/>
<stop offset="0.3589" stop-color="#FD9B78" stop-opacity="0.6411"/>
<stop offset="0.5244" stop-color="#FEB886" stop-opacity="0.4756"/>
<stop offset="0.6876" stop-color="#FECD91" stop-opacity="0.3124"/>
<stop offset="0.8474" stop-color="#FFDA97" stop-opacity="0.1526"/>
<stop offset="1" stop-color="#FFDE99" stop-opacity="0"/>
</radialGradient>
<radialGradient id="paint15_radial_104_5154" cx="0" cy="0" r="1" gradientUnits="userSpaceOnUse" gradientTransform="translate(470.208 238.575) rotate(180) scale(42.8017 43.4306)">
<stop stop-color="#FA404B"/>
<stop offset="0.025" stop-color="#FA484F" stop-opacity="0.975"/>
<stop offset="0.1916" stop-color="#FC7565" stop-opacity="0.8084"/>
<stop offset="0.3589" stop-color="#FD9B78" stop-opacity="0.6411"/>
<stop offset="0.5244" stop-color="#FEB886" stop-opacity="0.4756"/>
<stop offset="0.6876" stop-color="#FECD91" stop-opacity="0.3124"/>
<stop offset="0.8474" stop-color="#FFDA97" stop-opacity="0.1526"/>
<stop offset="1" stop-color="#FFDE99" stop-opacity="0"/>
</radialGradient>
<radialGradient id="paint16_radial_104_5154" cx="0" cy="0" r="1" gradientUnits="userSpaceOnUse" gradientTransform="translate(355.816 270.196) rotate(180) scale(76.6733 77.7998)">
<stop offset="0.0936" stop-color="#241921"/>
<stop offset="1" stop-color="#0144B9" stop-opacity="0"/>
</radialGradient>
<radialGradient id="paint17_radial_104_5154" cx="0" cy="0" r="1" gradientUnits="userSpaceOnUse" gradientTransform="translate(156.86 59.1471) rotate(180) scale(50.055 50.7904)">
<stop stop-color="#0061FE"/>
<stop offset="1" stop-color="white"/>
</radialGradient>
<radialGradient id="paint18_radial_104_5154" cx="0" cy="0" r="1" gradientUnits="userSpaceOnUse" gradientTransform="translate(173.898 70.9902) rotate(180) scale(90.8644 92.1993)">
<stop stop-color="#0061FE"/>
<stop offset="1" stop-color="white"/>
</radialGradient>
<radialGradient id="paint19_radial_104_5154" cx="0" cy="0" r="1" gradientUnits="userSpaceOnUse" gradientTransform="translate(171.565 78.0955) rotate(180) scale(71.7372 72.7906)">
<stop stop-color="#0061FE"/>
<stop offset="1" stop-color="white"/>
</radialGradient>
<linearGradient id="paint20_linear_104_5154" x1="263.157" y1="130.114" x2="202.202" y2="147.86" gradientUnits="userSpaceOnUse">
<stop offset="0.1791" stop-color="#F9C1DA"/>
<stop offset="1" stop-color="#EECFF8" stop-opacity="0"/>
</linearGradient>
<radialGradient id="paint21_radial_104_5154" cx="0" cy="0" r="1" gradientUnits="userSpaceOnUse" gradientTransform="translate(241.925 98.6573) rotate(180) scale(38.5963 47.5559)">
<stop stop-color="#0061FE"/>
<stop offset="1" stop-color="white"/>
</radialGradient>
<radialGradient id="paint22_radial_104_5154" cx="0" cy="0" r="1" gradientUnits="userSpaceOnUse" gradientTransform="translate(197.057 73.2899) rotate(180) scale(57.1117 57.9508)">
<stop offset="0.1791" stop-color="#F9C1DA"/>
<stop offset="1" stop-color="#EECFF8" stop-opacity="0"/>
</radialGradient>
<radialGradient id="paint23_radial_104_5154" cx="0" cy="0" r="1" gradientUnits="userSpaceOnUse" gradientTransform="translate(203.401 265.646) rotate(180) scale(304.927 309.407)">
<stop stop-color="#0061FE"/>
<stop offset="0.0281" stop-color="#106CFE" stop-opacity="0.9719"/>
<stop offset="0.1219" stop-color="#408BFE" stop-opacity="0.8781"/>
<stop offset="0.2211" stop-color="#6AA7FE" stop-opacity="0.7789"/>
<stop offset="0.3241" stop-color="#8EBFFF" stop-opacity="0.6759"/>
<stop offset="0.4318" stop-color="#ABD2FF" stop-opacity="0.5682"/>
<stop offset="0.546" stop-color="#C2E1FF" stop-opacity="0.454"/>
<stop offset="0.6696" stop-color="#D2ECFF" stop-opacity="0.3304"/>
<stop offset="0.8094" stop-color="#DBF2FF" stop-opacity="0.1906"/>
<stop offset="1" stop-color="#DEF4FF" stop-opacity="0"/>
</radialGradient>
<linearGradient id="paint24_linear_104_5154" x1="323.704" y1="249.942" x2="148.18" y2="249.942" gradientUnits="userSpaceOnUse">
<stop offset="0.1791" stop-color="#F9C1DA"/>
<stop offset="1" stop-color="#EECFF8" stop-opacity="0"/>
</linearGradient>
<radialGradient id="paint25_radial_104_5154" cx="0" cy="0" r="1" gradientUnits="userSpaceOnUse" gradientTransform="translate(750.746 201.209) rotate(180) scale(187.147 275.172)">
<stop stop-color="#0061FE"/>
<stop offset="1" stop-color="white"/>
</radialGradient>
<radialGradient id="paint26_radial_104_5154" cx="0" cy="0" r="1" gradientUnits="userSpaceOnUse" gradientTransform="translate(616.494 211.298) rotate(180) scale(202.503 205.478)">
<stop stop-color="#0061FE"/>
<stop offset="1" stop-color="white"/>
</radialGradient>
</defs>
</svg>
