<svg width="45" height="45" viewBox="0 0 45 45" fill="none" xmlns="http://www.w3.org/2000/svg">
<g clip-path="url(#clip0_104_5119)">
<path d="M34.7418 15.9408L25.196 18.0282L29.8634 1.68382C30.2689 0.263282 28.3695 -0.646743 27.5178 0.563138L8.89889 27.0158C8.19882 28.0105 9.11139 29.3453 10.292 29.0546L18.7976 26.9607L14.1455 43.3208C13.7447 44.7304 15.6108 45.6289 16.4724 44.4664L36.0825 18.0137C36.8061 17.0374 35.9288 15.6813 34.7418 15.9408V15.9408ZM18.6578 37.0911L21.9542 25.4986C22.2299 24.5294 21.3555 23.6157 20.3712 23.858L13.0825 25.6523L25.1885 8.45298L22.0552 19.4253C21.7825 20.3803 22.6283 21.2889 23.6044 21.0751L31.871 19.2673L18.6578 37.0911Z" fill="white"/>
<path d="M33.8907 37.0898L30.727 37.0371L32.4074 33.7324C32.7374 33.0834 32.4788 32.2898 31.8298 31.9599C31.1807 31.6298 30.3872 31.8885 30.0572 32.5375L27.4207 37.7226C26.8844 38.7741 27.5863 39.4633 28.5972 39.6385L31.7534 39.6911L30.0533 43.0914C29.7277 43.7426 29.9916 44.5344 30.6428 44.8601C31.2953 45.1863 32.0864 44.9204 32.4114 44.2705L35.0479 38.9976C35.4809 38.1312 34.8543 37.1041 33.8907 37.0898V37.0898Z" fill="white"/>
<path d="M13.3664 0.142349C12.7152 -0.183168 11.9234 0.0807437 11.5978 0.731867L8.9613 6.00483C8.53252 6.86248 9.14401 7.91259 10.1481 7.91259H13.2804L11.5978 11.2778C11.2722 11.929 11.5362 12.7207 12.1873 13.0464C12.8397 13.3727 13.6309 13.1068 13.9559 12.4569L16.5924 7.18395C17.031 6.30662 16.3859 5.27619 15.4133 5.27619H12.2733L13.9559 1.91099C14.2815 1.25978 14.0175 0.467955 13.3664 0.142349V0.142349Z" fill="white"/>
</g>
<defs>
<clipPath id="clip0_104_5119">
<rect width="45" height="45" fill="white"/>
</clipPath>
</defs>
</svg>
