<svg width="45" height="45" viewBox="0 0 45 45" fill="none" xmlns="http://www.w3.org/2000/svg">
<g clip-path="url(#clip0_104_5100)">
<path d="M41.1796 26.945C40.8157 26.0451 39.7911 25.6101 38.8911 25.9742C37.991 26.338 37.5563 27.3626 37.9202 28.2627L39.9905 33.3837L33.8418 30.6732C33.3967 30.4771 32.8902 30.474 32.4429 30.6649C30.3416 31.5615 28.0905 32.016 25.7523 32.016C16.3416 32.016 10.0199 24.6477 10.0199 17.7658C10.0199 9.90824 17.0774 3.51562 25.7523 3.51562C34.4272 3.51562 41.4847 9.90824 41.4847 17.7658C41.4847 18.3789 41.4275 19.1129 41.3281 19.7797C41.1849 20.7399 41.8471 21.6343 42.8073 21.7776C43.7676 21.9212 44.6621 21.2586 44.8053 20.2984C44.931 19.4555 45.0003 18.556 45.0003 17.7658C45.0003 12.9907 42.9783 8.51026 39.3065 5.14977C35.6782 1.82891 30.8645 0 25.7523 0C20.6401 0 15.8265 1.82891 12.1981 5.14968C8.91697 8.15272 6.95455 12.0505 6.5739 16.2533C2.44682 18.9864 0.0003943 23.3659 0.0003943 28.0832C0.0003943 31.03 0.928781 33.826 2.69599 36.2321L0.128539 42.5833C-0.139615 43.2465 0.0209607 44.0061 0.53468 44.5041C0.869455 44.8288 1.31058 45 1.75855 45C1.99788 44.9999 2.23923 44.9511 2.46722 44.8506L9.87014 41.5872C11.7324 42.2804 13.7008 42.6314 15.7327 42.6314C15.7766 42.6314 15.8198 42.6279 15.8629 42.6248C18.8017 42.6025 21.6588 41.8295 24.1333 40.3829C26.3497 39.0871 28.1729 37.307 29.4511 35.2047C30.699 34.9806 31.9188 34.642 33.1027 34.1895L42.5334 38.3467C42.7615 38.4472 43.0027 38.4961 43.242 38.4961C43.69 38.496 44.1312 38.3248 44.466 38.0002C44.9797 37.5022 45.1403 36.7427 44.8722 36.0794L41.1796 26.945ZM15.7329 39.1113C15.7089 39.1113 15.6855 39.1139 15.6617 39.1149C13.8668 39.1057 12.1392 38.7529 10.5258 38.0646C10.0785 37.8736 9.57201 37.8767 9.12694 38.0729L5.01041 39.8875L6.33835 36.6026C6.58383 35.9954 6.47124 35.3019 6.04638 34.8035C4.39096 32.8614 3.51601 30.5376 3.51601 28.0832C3.51601 25.2741 4.6977 22.6125 6.76523 20.5944C7.40894 24.1034 9.2252 27.4601 11.965 30.097C15.3744 33.3782 19.884 35.2791 24.7536 35.508C22.4674 37.7584 19.1958 39.1113 15.7329 39.1113Z" fill="white"/>
<path d="M25.6641 19.5996C26.6349 19.5996 27.4219 18.8126 27.4219 17.8418C27.4219 16.871 26.6349 16.084 25.6641 16.084C24.6933 16.084 23.9063 16.871 23.9063 17.8418C23.9063 18.8126 24.6933 19.5996 25.6641 19.5996Z" fill="white"/>
<path d="M32.6953 19.5996C33.6661 19.5996 34.4531 18.8126 34.4531 17.8418C34.4531 16.871 33.6661 16.084 32.6953 16.084C31.7245 16.084 30.9375 16.871 30.9375 17.8418C30.9375 18.8126 31.7245 19.5996 32.6953 19.5996Z" fill="white"/>
<path d="M18.6329 19.5996C19.6037 19.5996 20.3907 18.8126 20.3907 17.8418C20.3907 16.871 19.6037 16.084 18.6329 16.084C17.6621 16.084 16.8751 16.871 16.8751 17.8418C16.8751 18.8126 17.6621 19.5996 18.6329 19.5996Z" fill="white"/>
</g>
<defs>
<clipPath id="clip0_104_5100">
<rect width="45" height="45" fill="white"/>
</clipPath>
</defs>
</svg>
