<svg width="40" height="42" viewBox="0 0 40 42" fill="none" xmlns="http://www.w3.org/2000/svg">
<rect x="0.561462" y="1.43262" width="38.7318" height="39.4413" rx="13.6899" stroke="#F2F2F2"/>
<g clip-path="url(#clip0_104_5070)">
<path d="M28.6614 17.1063C28.4509 16.9761 28.1878 16.9642 27.9664 17.0749L23.2857 19.4156V17.7141C23.2857 16.5307 22.3263 15.5713 21.1428 15.5713H11.1429C9.95939 15.5713 9 16.5307 9 17.7141V26.2856C9 27.469 9.95939 28.4284 11.1429 28.4284H21.1428C22.3263 28.4284 23.2857 27.469 23.2857 26.2856V24.5841L27.9664 26.9284C28.3193 27.1047 28.7483 26.9617 28.9247 26.6088C28.9748 26.5084 29.0006 26.3977 29 26.2856V17.7141C29.0001 17.4665 28.872 17.2366 28.6614 17.1063ZM21.8571 26.2856C21.8571 26.6801 21.5373 26.9999 21.1428 26.9999H11.1429C10.7484 26.9999 10.4286 26.6801 10.4286 26.2856V17.7141C10.4286 17.3196 10.7484 16.9998 11.1429 16.9998H21.1428C21.5373 16.9998 21.8571 17.3196 21.8571 17.7141V26.2856ZM27.5714 25.1299L23.2857 22.987V21.0128L27.5714 18.8699V25.1299V25.1299Z" fill="#FF5600"/>
<path d="M16.1429 19.1426C14.5649 19.1426 13.2857 20.4218 13.2857 21.9997C13.2857 23.5777 14.5649 24.8569 16.1429 24.8569C17.7208 24.8569 19 23.5777 19 21.9997C19 20.4218 17.7208 19.1426 16.1429 19.1426ZM16.1429 23.4283C15.3539 23.4283 14.7143 22.7887 14.7143 21.9997C14.7143 21.2108 15.3539 20.5712 16.1429 20.5712C16.9318 20.5712 17.5714 21.2108 17.5714 21.9997C17.5714 22.7887 16.9318 23.4283 16.1429 23.4283Z" fill="#FF5600"/>
</g>
<defs>
<clipPath id="clip0_104_5070">
<rect width="20" height="20" fill="white" transform="translate(9 12)"/>
</clipPath>
</defs>
</svg>
