<svg width="95" height="100" viewBox="0 0 95 100" fill="none" xmlns="http://www.w3.org/2000/svg">
<g filter="url(#filter0_d_104_4982)">
<circle cx="47.5" cy="32.5" r="32.5" fill="#001CAF"/>
</g>
<g clip-path="url(#clip0_104_4982)">
<path d="M62.9988 34.8399C62.9988 27.5822 57.0958 21.776 49.838 21.776C47.5155 21.776 45.3866 22.3566 43.4512 23.4211L38.3224 18.2923C38.0321 18.0987 37.7417 18.002 37.4514 18.002C37.0644 18.0987 36.8708 18.2923 36.6773 18.5826L35.9031 20.905L33.6774 21.6792C33.2903 21.8727 33.0968 22.0663 33 22.4534C33 22.7437 33.0968 23.034 33.2903 23.3243L38.4191 28.4531C37.3547 30.3885 36.774 32.6143 36.774 34.9367C36.774 42.1945 42.677 48.0007 49.9348 48.0007C57.1925 48.0007 63.0956 42.0977 62.9988 34.8399ZM38.0321 20.7115L42.29 24.9694L41.9996 25.6468L37.7417 21.3888L38.0321 20.7115ZM35.7096 23.034L36.387 22.7437L40.6449 27.0016L39.9674 27.2918L35.7096 23.034ZM49.9348 46.0653C43.7416 46.0653 38.7095 41.0332 38.7095 34.9367C38.7095 32.9045 39.1934 30.969 40.2578 29.324L42.1932 28.5498L49.1607 35.5173C49.3542 35.7108 49.6445 35.8076 49.8381 35.8076C50.0316 35.8076 50.3219 35.7108 50.5155 35.5173C50.9026 35.1303 50.9026 34.5496 50.5155 34.1625L43.548 27.1951L44.3222 25.2597C45.9673 24.292 47.9027 23.7113 49.9349 23.7113C56.1282 23.7113 61.1602 28.7434 61.1602 34.8399C61.0634 41.0332 56.0313 46.0653 49.9348 46.0653Z" fill="white"/>
<path d="M55.8378 28.8392C54.2895 27.2909 52.1606 26.4199 49.838 26.4199C48.7736 26.4199 47.6123 26.6134 46.6446 27.0973C46.1608 27.2908 45.8705 27.8715 46.1608 28.3553C46.3543 28.8392 46.935 29.1295 47.4188 28.8392C48.193 28.5488 49.0639 28.3553 49.8381 28.3553C51.58 28.3553 53.2251 29.0327 54.4831 30.2907C55.7411 31.5487 56.4184 33.1938 56.4184 34.9356C56.4184 38.5162 53.5154 41.4192 49.9348 41.4192C48.193 41.4192 46.5479 40.7418 45.3867 39.4839C44.1287 38.2258 43.4513 36.5808 43.4513 34.8389C43.4513 33.968 43.6448 33.1938 43.9351 32.4196C44.1287 31.9358 43.9351 31.3551 43.3545 31.1616C42.8707 30.9681 42.29 31.1616 42.0965 31.7422C41.7094 32.7099 41.5159 33.7744 41.5159 34.8389C41.5159 37.0646 42.3868 39.1936 44.0319 40.8387C45.5802 42.387 47.7091 43.258 50.0316 43.258C54.6766 43.258 58.4507 39.484 58.4507 34.8389C58.257 32.6133 57.3861 30.4843 55.8378 28.8392Z" fill="white"/>
<path d="M51.096 31.2579C50.6122 31.0644 50.0315 31.3547 49.838 31.8385C49.6445 32.3224 49.9348 32.903 50.4186 33.0965C51.1928 33.3868 51.6767 34.0642 51.6767 34.8384C51.6767 35.8061 50.9025 36.677 49.8381 36.677C49.0639 36.677 48.3865 36.1931 48.0962 35.419C47.9027 34.9351 47.4188 34.6448 46.8382 34.8383C46.3543 35.0319 46.064 35.5158 46.2575 36.0963C46.8382 37.6447 48.2897 38.6124 49.838 38.6124C51.8702 38.6124 53.612 36.9673 53.612 34.8385C53.612 33.1933 52.5476 31.8385 51.096 31.2579Z" fill="white"/>
</g>
<defs>
<filter id="filter0_d_104_4982" x="0" y="0" width="95" height="100" filterUnits="userSpaceOnUse" color-interpolation-filters="sRGB">
<feFlood flood-opacity="0" result="BackgroundImageFix"/>
<feColorMatrix in="SourceAlpha" type="matrix" values="0 0 0 0 0 0 0 0 0 0 0 0 0 0 0 0 0 0 127 0" result="hardAlpha"/>
<feMorphology radius="20" operator="erode" in="SourceAlpha" result="effect1_dropShadow_104_4982"/>
<feOffset dy="20"/>
<feGaussianBlur stdDeviation="17.5"/>
<feColorMatrix type="matrix" values="0 0 0 0 0 0 0 0 0 0.109804 0 0 0 0 0.686275 0 0 0 0.4 0"/>
<feBlend mode="normal" in2="BackgroundImageFix" result="effect1_dropShadow_104_4982"/>
<feBlend mode="normal" in="SourceGraphic" in2="effect1_dropShadow_104_4982" result="shape"/>
</filter>
<clipPath id="clip0_104_4982">
<rect width="30" height="30" fill="white" transform="translate(33 18)"/>
</clipPath>
</defs>
</svg>
