<svg width="125" height="93" viewBox="0 0 125 93" fill="none" xmlns="http://www.w3.org/2000/svg">
<g clip-path="url(#clip0_104_5038)">
<path d="M50.0188 19.2861H49.5628V7.07021C49.5628 6.14174 49.3758 5.22236 49.0125 4.36456C48.6491 3.50676 48.1165 2.72735 47.4452 2.07082C46.7738 1.41429 45.9767 0.893502 45.0995 0.53819C44.2223 0.182878 43.2822 7.86675e-07 42.3327 0H15.8663C13.9488 -3.57465e-06 12.1098 0.744886 10.7539 2.0708C9.39795 3.39672 8.6362 5.19505 8.6362 7.07019V74.0873C8.6362 75.0158 8.82321 75.9352 9.18656 76.793C9.54991 77.6508 10.0825 78.4302 10.7539 79.0867C11.4252 79.7432 12.2223 80.264 13.0995 80.6193C13.9767 80.9746 14.9168 81.1575 15.8663 81.1575H42.3327C44.2502 81.1575 46.0892 80.4126 47.4451 79.0867C48.8011 77.7608 49.5628 75.9625 49.5628 74.0873V27.9815H50.0188V19.2861Z" fill="#292E37"/>
<path d="M42.6243 1.83984H39.1696C39.3285 2.22074 39.3891 2.63399 39.3462 3.0432C39.3033 3.45242 39.1581 3.84503 38.9234 4.18645C38.6888 4.52787 38.3719 4.80762 38.0006 5.00106C37.6294 5.1945 37.2152 5.2957 36.7945 5.29573H21.6323C21.2116 5.2957 20.7974 5.19451 20.4262 5.00106C20.0549 4.80762 19.738 4.52787 19.5034 4.18645C19.2688 3.84503 19.1236 3.45242 19.0806 3.04321C19.0377 2.63399 19.0984 2.22074 19.2572 1.83984H16.0305C15.3215 1.83984 14.6193 1.97641 13.9643 2.24176C13.3092 2.5071 12.714 2.89601 12.2126 3.3863C11.7112 3.87659 11.3135 4.45865 11.0421 5.09924C10.7708 5.73983 10.6311 6.42642 10.6311 7.11979V74.0386C10.6311 74.732 10.7708 75.4185 11.0421 76.0591C11.3135 76.6997 11.7112 77.2818 12.2126 77.7721C12.714 78.2624 13.3092 78.6513 13.9643 78.9166C14.6193 79.182 15.3215 79.3185 16.0305 79.3185H42.6243C43.3334 79.3185 44.0355 79.182 44.6906 78.9166C45.3457 78.6513 45.9409 78.2624 46.4423 77.7721C46.9436 77.2818 47.3413 76.6997 47.6127 76.0591C47.884 75.4185 48.0237 74.732 48.0237 74.0386V7.11979C48.0237 6.42642 47.884 5.73983 47.6127 5.09924C47.3413 4.45865 46.9436 3.87659 46.4423 3.3863C45.9409 2.89601 45.3457 2.5071 44.6906 2.24176C44.0355 1.97641 43.3334 1.83984 42.6243 1.83984Z" fill="white"/>
<path d="M58.5017 81.1687H0.153146C0.112529 81.1687 0.0735757 81.1529 0.0448553 81.1248C0.0161348 81.0967 0 81.0586 0 81.0189C0 80.9792 0.0161348 80.9411 0.0448553 80.913C0.0735757 80.8849 0.112529 80.8691 0.153146 80.8691H58.5017C58.5423 80.8691 58.5813 80.8849 58.61 80.913C58.6387 80.9411 58.6549 80.9792 58.6549 81.0189C58.6549 81.0586 58.6387 81.0967 58.61 81.1248C58.5813 81.1529 58.5423 81.1687 58.5017 81.1687Z" fill="#CBCBCB"/>
<path d="M29.3275 51.7687C36.47 51.7687 42.2601 46.1066 42.2601 39.1221C42.2601 32.1376 36.47 26.4756 29.3275 26.4756C22.185 26.4756 16.3949 32.1376 16.3949 39.1221C16.3949 46.1066 22.185 51.7687 29.3275 51.7687Z" fill="#00D9FF"/>
<path d="M28.0459 43.9464C27.7549 43.9469 27.4717 43.8548 27.2389 43.6842L27.2245 43.6736L24.1852 41.4C24.0444 41.2945 23.9263 41.1629 23.8375 41.0127C23.7488 40.8625 23.6911 40.6967 23.6679 40.5248C23.6447 40.3528 23.6563 40.1781 23.7022 40.0105C23.748 39.843 23.8271 39.6859 23.935 39.5482C24.0429 39.4106 24.1775 39.2951 24.3311 39.2083C24.4847 39.1215 24.6542 39.0651 24.8301 39.0424C25.0059 39.0197 25.1846 39.0311 25.356 39.0759C25.5273 39.1207 25.6879 39.1981 25.8287 39.3036L27.7973 40.7799L32.4493 34.8451C32.5572 34.7075 32.6917 34.592 32.8452 34.5053C32.9987 34.4185 33.1682 34.3622 33.344 34.3395C33.5198 34.3168 33.6984 34.3282 33.8696 34.373C34.0409 34.4178 34.2015 34.4951 34.3422 34.6006L34.3426 34.6009L34.3137 34.6401L34.3434 34.6009C34.6272 34.8142 34.813 35.129 34.8598 35.4761C34.9066 35.8232 34.8107 36.1743 34.5931 36.4523L29.1214 43.4298C28.9948 43.5905 28.832 43.7206 28.6457 43.81C28.4594 43.8993 28.2546 43.9454 28.0471 43.9449L28.0459 43.9464Z" fill="white"/>
<path d="M106.321 82.4119C106.478 82.1631 106.663 81.9323 106.873 81.7237C106.959 81.636 107.051 81.5534 107.145 81.473C107.716 80.9753 108.414 80.6355 109.164 80.4886C109.915 80.3417 110.692 80.3929 111.416 80.637C112.139 80.8811 112.783 81.3093 113.282 81.8776C113.78 82.4458 114.115 83.1336 114.251 83.8702C114.883 81.5861 113.238 79.3362 111.585 77.608C109.931 75.8804 108.041 73.9852 108.051 71.6179C108.055 70.3007 108.714 69.1255 109.709 68.2543C109.74 68.2279 109.77 68.2016 109.802 68.1761C111.004 67.1682 112.551 66.641 114.134 66.6997C117.074 66.8538 119.641 68.7862 121.424 71.0783C124.294 74.7665 125.552 79.9435 123.543 84.1419C121.775 87.8344 118.007 90.0271 114.16 91.7899C113.623 92.0361 113.087 92.2749 112.552 92.5063C112.548 92.5072 112.545 92.5096 112.541 92.5106C112.515 92.5216 112.489 92.5327 112.465 92.5441C112.355 92.5917 112.244 92.6394 112.135 92.6864L112.186 92.7188L112.344 92.819C112.289 92.7865 112.235 92.755 112.18 92.7225C112.164 92.7127 112.146 92.7034 112.13 92.6936C110.241 91.5851 108.325 90.4124 107.02 88.6819C105.667 86.8851 105.123 84.3114 106.321 82.4119Z" fill="#F3F8FF"/>
<path d="M118.925 78.2391C119.343 79.1697 119.621 80.155 119.748 81.1638C119.849 82.0634 119.811 82.9727 119.636 83.8614C119.261 85.6876 118.443 87.399 117.251 88.8517C116.351 89.9545 115.313 90.9418 114.16 91.7899C113.623 92.0361 113.087 92.2749 112.552 92.5063C112.548 92.5072 112.545 92.5097 112.541 92.5106C112.515 92.5216 112.489 92.5327 112.465 92.5441C112.355 92.5917 112.244 92.6394 112.135 92.6864L112.186 92.7189L112.344 92.819C112.289 92.7865 112.235 92.755 112.18 92.7225C112.164 92.7127 112.146 92.7035 112.13 92.6936C112.546 91.2715 112.607 89.7727 112.308 88.3227C112.01 86.8727 111.36 85.5139 110.414 84.3601C109.462 83.2207 108.249 82.3174 106.873 81.7238C106.959 81.6361 107.051 81.5534 107.145 81.4731C107.675 81.7111 108.182 81.9945 108.661 82.3199C110.375 83.4779 111.661 85.1446 112.33 87.0732C112.928 88.8229 113.003 90.703 112.546 92.4928C112.64 92.4321 112.736 92.3699 112.828 92.308C114.588 91.1474 116.21 89.7536 117.432 88.0443C118.486 86.5997 119.16 84.9239 119.395 83.1645C119.63 81.2425 119.138 79.3525 118.26 77.6376C117.291 75.8029 116.07 74.1064 114.631 72.5952C113.186 71.0423 111.552 69.6682 109.765 68.5035C109.725 68.4769 109.696 68.4362 109.686 68.3899C109.676 68.3435 109.684 68.295 109.709 68.2543C109.728 68.2174 109.761 68.1892 109.802 68.1761C109.822 68.171 109.843 68.1705 109.864 68.1746C109.885 68.1787 109.904 68.1873 109.921 68.1997C110.142 68.3437 110.36 68.4889 110.576 68.6384C112.376 69.8843 114.01 71.3439 115.441 72.9838C116.824 74.5645 118.083 76.3207 118.925 78.2391Z" fill="white"/>
<path d="M80.4079 5.87155C81.9248 5.87155 83.1544 4.66909 83.1544 3.18578C83.1544 1.70246 81.9248 0.5 80.4079 0.5C78.891 0.5 77.6614 1.70246 77.6614 3.18578C77.6614 4.66909 78.891 5.87155 80.4079 5.87155Z" fill="#F3F8FF"/>
<path d="M114.56 41.814C115.484 41.814 116.234 41.0809 116.234 40.1765C116.234 39.2722 115.484 38.5391 114.56 38.5391C113.635 38.5391 112.885 39.2722 112.885 40.1765C112.885 41.0809 113.635 41.814 114.56 41.814Z" fill="#F3F8FF"/>
<path d="M65.5528 46.3072C66.4776 46.3072 67.2273 45.574 67.2273 44.6697C67.2273 43.7653 66.4776 43.0322 65.5528 43.0322C64.628 43.0322 63.8783 43.7653 63.8783 44.6697C63.8783 45.574 64.628 46.3072 65.5528 46.3072Z" fill="#F3F8FF"/>
<path d="M66.4983 92.9997H124.847C124.888 92.9997 124.926 92.984 124.955 92.9559C124.984 92.9278 125 92.8897 125 92.85C125 92.8102 124.984 92.7722 124.955 92.7441C124.926 92.716 124.888 92.7002 124.847 92.7002H66.4983C66.4577 92.7002 66.4188 92.716 66.39 92.7441C66.3613 92.7722 66.3452 92.8102 66.3452 92.85C66.3452 92.8897 66.3613 92.9278 66.39 92.9559C66.4188 92.984 66.4577 92.9997 66.4983 92.9997Z" fill="#CBCBCB"/>
<path d="M118.408 14.472C118.484 13.9401 118.359 13.3991 118.055 12.9517C117.751 12.5043 117.29 12.1814 116.758 12.0443C116.227 11.9073 115.663 11.9655 115.173 12.2079C114.683 12.4504 114.301 12.8602 114.099 13.3599L109.364 18.6679L110.753 22.4623L115.515 16.26C115.826 16.3574 116.154 16.3869 116.478 16.3466C116.802 16.3062 117.112 16.1969 117.388 16.0264C117.664 15.856 117.898 15.6284 118.074 15.3599C118.251 15.0913 118.364 14.7882 118.408 14.472Z" fill="#FFB7B7"/>
<path d="M98.7812 35.1255L114.498 18.7226L112.378 15.4268L92.665 31.7301L98.7812 35.1255Z" fill="#FE5701"/>
<path d="M95.2732 25.1596C98.3181 25.1596 100.786 22.7458 100.786 19.7683C100.786 16.7907 98.3181 14.377 95.2732 14.377C92.2283 14.377 89.7599 16.7907 89.7599 19.7683C89.7599 22.7458 92.2283 25.1596 95.2732 25.1596Z" fill="#292E37"/>
<path d="M95.7164 16.7228C96.9028 15.5463 98.3385 14.6385 99.9223 14.0632C100.939 13.6949 102.046 13.4673 103.109 13.6765C104.171 13.8856 105.177 14.6047 105.473 15.6245C105.716 16.4584 105.465 17.3563 105.089 18.1413C104.713 18.9263 104.21 19.6542 103.906 20.4685C103.595 21.2994 103.502 22.1929 103.634 23.068C103.767 23.9431 104.12 24.7721 104.663 25.4796C105.206 26.1872 105.921 26.7509 106.743 27.1197C107.566 27.4885 108.469 27.6506 109.372 27.5914C108.327 27.7283 107.365 28.2082 106.344 28.4637C105.323 28.7191 104.118 28.7018 103.36 27.9867C102.557 27.23 102.541 25.9998 102.58 24.9102C102.637 23.2906 102.695 21.671 102.753 20.0513C102.782 19.2254 102.807 18.3729 102.503 17.602C102.198 16.831 101.474 16.1559 100.629 16.163C99.9884 16.1683 99.4215 16.5477 98.9078 16.9219C98.3941 17.2961 97.8504 17.6954 97.2123 17.7511C96.5743 17.8067 95.8458 17.345 95.8936 16.7203L95.7164 16.7228Z" fill="#292E37"/>
<path d="M74.3335 55.9686C73.8043 56.1123 73.2394 56.0613 72.7461 55.825C72.2527 55.5888 71.8651 55.1838 71.6567 54.6868C71.4483 54.1897 71.4336 53.6352 71.6154 53.1283C71.7972 52.6214 72.1628 52.1973 72.643 51.9363L77.4059 46.6523L81.4344 47.5034L75.7684 52.9304C75.9077 53.2189 75.9805 53.5338 75.9819 53.8528C75.9833 54.1719 75.9131 54.4874 75.7763 54.777C75.6395 55.0667 75.4394 55.3235 75.1902 55.5294C74.9409 55.7352 74.6485 55.8852 74.3335 55.9686H74.3335Z" fill="#FFB7B7"/>
<path d="M90.0036 37.0505L78.1326 51.6219L74.514 49.9974L88.4671 28.7549L90.0036 37.0505Z" fill="#FE5701"/>
<path d="M80.5314 81.0512L77.7022 81.0078L78.0425 90.4375H80.5309L80.5314 81.0512Z" fill="#FFB7B7"/>
<path d="M81.1657 89.6428L76.2649 89.6426H76.2647C75.4364 89.6426 74.642 89.9644 74.0563 90.5371C73.4706 91.1099 73.1415 91.8867 73.1415 92.6966V92.7959L81.1656 92.7962L81.1657 89.6428Z" fill="#292E37"/>
<path d="M99.2638 78.5498L96.1732 80.4901L102.355 87.7631L104.449 86.4484L99.2638 78.5498Z" fill="#FFB7B7"/>
<path d="M104.545 85.4443L100.421 88.0335L100.42 88.0336C99.7234 88.4712 99.2328 89.1617 99.0563 89.9531C98.8799 90.7445 99.0322 91.572 99.4797 92.2536L99.5345 92.3371L106.287 88.0979L104.545 85.4443Z" fill="#292E37"/>
<path d="M100.365 49.7561C100.365 49.7561 93.4978 27.453 91.291 27.1516C89.0841 26.8502 85.5284 32.8743 85.5284 32.8743C80.9182 38.6262 76.1644 57.2581 76.1644 57.2581C76.1644 57.2581 84.0892 57.743 89.8822 60.757C95.6752 63.7709 102.512 60.6044 102.512 60.6044L100.365 49.7561Z" fill="#FE5701"/>
<path opacity="0.1" d="M100.365 49.756C100.365 49.756 93.4978 27.4529 91.291 27.1515C89.0841 26.8501 86.4315 32.9353 86.4315 32.9353C84.1343 42.2203 76.1644 57.258 76.1644 57.258C76.1644 57.258 84.0892 57.7429 89.8822 60.7569C95.6752 63.7708 102.512 60.6043 102.512 60.6043L100.365 49.756Z" fill="black"/>
<path d="M94.731 43.0831V54.2903L96.0797 70.5247L102.818 82.8049L99.6021 85.0513L90.4133 73.3701L86.779 61.7715L81.0714 87.4474L76.7833 87.1479L79.7614 51.5487L85.4126 41.5283L94.731 43.0831Z" fill="#292E37"/>
<path d="M87.8073 32.2432C85.6633 34.3398 87.6542 36.5861 87.6542 36.5861L85.2039 41.9775L94.852 44.5233L98.2237 29.7904L95.9265 27.3942C91.3322 27.2445 91.3297 27.1514 91.3297 27.1514C90.5247 27.9217 87.8073 32.2432 87.8073 32.2432Z" fill="#F5F5F5"/>
<path d="M98.6124 28.2635C98.1742 27.9472 97.6762 27.719 97.1472 27.5923C96.6182 27.4655 96.0687 27.4426 95.5306 27.525C94.9925 27.6074 94.4765 27.7933 94.0124 28.0721C93.5483 28.3508 93.1454 28.7169 92.827 29.149C90.4015 32.4515 88.1587 37.7842 91.2488 44.4351C96.2106 55.1143 100.528 60.5812 102.284 60.5806C102.36 60.5813 102.437 60.5696 102.509 60.546C103.59 60.1875 105.152 58.3997 105.435 56.8241C105.536 56.2602 105.512 55.4747 104.822 54.9353C102.841 53.3859 99.285 48.5614 98.1756 42.2112C97.5624 38.7025 98.7514 35.5063 99.8568 33.4429C100.324 32.5892 100.46 31.5995 100.242 30.6552C100.023 29.711 99.4633 28.8755 98.6657 28.3018V28.3018L98.6124 28.2635Z" fill="#FE5701"/>
<path d="M95.5568 24.6293C97.5235 23.578 98.2463 21.1667 97.1712 19.2435C96.0961 17.3203 93.6302 16.6135 91.6635 17.6648C89.6968 18.7161 88.974 21.1274 90.0491 23.0506C91.1242 24.9739 93.5901 25.6807 95.5568 24.6293Z" fill="#FFB7B7"/>
<path d="M87.9026 20.8471H93.7628L93.8229 20.0243L94.1234 20.8471H95.0257L95.1448 19.2164L95.7403 20.8471H97.4863V20.7663C97.485 19.6311 97.0232 18.5427 96.2024 17.7399C95.3815 16.9372 94.2685 16.4857 93.1076 16.4844H92.2813C91.1204 16.4857 90.0074 16.9372 89.1865 17.7399C88.3656 18.5427 87.9039 19.631 87.9026 20.7663V20.8471Z" fill="#292E37"/>
<path d="M96.601 23.8046L99.1019 23.011V17.0723H94.3782L94.4951 17.1864C96.1222 18.7755 97.9319 24.4133 96.601 23.8046Z" fill="#292E37"/>
</g>
<defs>
<clipPath id="clip0_104_5038">
<rect width="125" height="93" fill="white"/>
</clipPath>
</defs>
</svg>
