<svg width="161" height="64" viewBox="0 0 161 64" fill="none" xmlns="http://www.w3.org/2000/svg">
<path d="M158.076 39.077C157.791 42.2134 155.473 45.1078 151.307 47.6333C147.152 50.1524 141.249 52.2455 134.002 53.8039C119.515 56.9194 99.7747 57.8737 78.2226 55.9136C56.6705 53.9535 37.4266 49.4537 23.7391 43.7758C16.8925 40.9356 11.4635 37.8119 7.83096 34.5845C4.18926 31.349 2.43175 28.0839 2.717 24.9475C3.00225 21.8111 5.31995 18.9167 9.48559 16.3912C13.6407 13.8721 19.5443 11.779 26.7909 10.2206C41.2781 7.10515 61.0181 6.1508 82.5702 8.1109C104.122 10.071 123.366 14.5709 137.054 20.2487C143.9 23.0889 149.329 26.2127 152.962 29.44C156.604 32.6755 158.361 35.9406 158.076 39.077Z" stroke="#C3E3F8" stroke-opacity="0.8"/>
<path d="M157.495 24.5267C157.795 27.6769 156.069 30.9603 152.476 34.2183C148.892 37.4687 143.526 40.6212 136.752 43.4939C123.21 49.2368 104.151 53.816 82.7887 55.8541C61.4263 57.8922 41.8452 56.9995 27.4617 53.9208C20.2669 52.3809 14.4014 50.2999 10.2673 47.7859C6.12358 45.266 3.807 42.3684 3.50645 39.2181C3.20589 36.0678 4.93276 32.7844 8.52522 29.5265C12.1093 26.2761 17.4756 23.1235 24.2494 20.2509C37.7913 14.508 56.8503 9.92877 78.2127 7.89067C99.575 5.85257 119.156 6.74529 133.54 9.82394C140.734 11.3639 146.6 13.4448 150.734 15.9589C154.878 18.4788 157.194 21.3764 157.495 24.5267Z" stroke="#C3E3F8"/>
</svg>
