<svg width="1175" height="258" viewBox="0 0 1175 258" fill="none" xmlns="http://www.w3.org/2000/svg">
<path d="M927.882 23.7383C925.349 27.5846 924.369 31.9116 923.552 36.1786C923.389 36.9598 923.225 37.8012 923.634 38.5825C923.96 39.1834 924.614 39.6642 925.349 40.0248C929.924 42.4888 936.704 41.1066 941.034 38.4623C945.445 35.818 948.386 32.0919 952.389 29.087C956.147 26.3225 961.049 23.8585 961.784 20.0122C962.029 18.5699 961.702 17.0674 960.313 16.0458C959.415 15.3847 958.189 14.964 956.964 14.6635C944.547 11.4182 933.6 15.0241 927.882 23.7383Z" fill="#E0F7FA"/>
<path d="M1161.28 125.544C1176.06 139.367 1176.88 160.702 1171.98 176.748C1169.94 183.419 1166.91 190.029 1161.6 195.679C1156.29 201.328 1148.86 205.775 1141.1 209.561C1121.82 218.936 1099.52 224.946 1076.64 226.929C1060.79 228.312 1044.46 227.771 1029.51 223.744C1014.56 219.718 1001.08 212.025 993.97 201.508C982.534 184.621 989.886 162.985 1007.61 149.283C1016.19 142.612 1026.89 137.564 1037.84 133.117C1047.07 129.391 1056.55 126.025 1066.19 122.78C1083.01 117.071 1100.58 111.662 1119.04 111.602C1130.89 111.542 1143.14 114.006 1152.62 119.294C1155.88 121.097 1158.74 123.201 1161.28 125.544Z" fill="#E0F7FA"/>
<path d="M962.846 203.311C975.181 199.705 981.472 186.964 978.449 177.89C975.59 169.055 965.705 162.444 955.657 157.096C945.609 151.807 934.662 146.999 927.473 139.607C911.216 122.84 910.4 89.6059 871.841 90.868C864.979 91.1083 858.362 93.0916 852.48 95.7359C839.899 101.325 829.851 110.039 824.378 120.076C821.437 125.484 821.6 131.013 820.457 136.663C819.15 143.033 816.78 149.523 816.535 155.954C816.29 162.805 817.434 169.656 819.885 176.207C822.499 183.118 826.665 189.669 832.057 195.618C836.795 200.847 842.513 205.955 851.5 206.737C856.319 207.157 861.139 206.616 865.959 206.256C872.331 205.775 878.703 205.715 885.075 205.595C900.106 205.354 915.056 205.114 930.087 205.414C939.645 205.595 949.367 206.015 958.598 204.333C960.068 204.032 961.457 203.732 962.846 203.311Z" fill="#E0F7FA"/>
<path d="M1104.99 43.4502C1105.15 41.1063 1105.15 38.7625 1104.91 36.4788C1103.76 26.5627 1098.13 16.7667 1088.32 9.85547C1072.97 -0.962139 1047.72 -3.12566 1029.34 4.68706C1017.5 9.73528 1008.92 18.2091 997.565 23.9184C977.469 33.9547 944.383 36.0581 938.42 56.251C936.296 63.5228 935.642 71.3356 939.073 78.367C943.893 88.4634 956.31 95.8555 969.871 99.7618C1017.25 113.464 1074.76 100.122 1097.23 65.446C1101.48 58.5948 1104.34 51.0826 1104.99 43.4502Z" fill="#E0F7FA"/>
<path d="M965.95 124.943C966.767 125.183 967.584 125.304 968.401 125.424C968.401 125.364 968.401 125.304 968.401 125.243C968.401 124.342 969.381 123.621 970.607 123.621C971.832 123.621 972.812 124.342 972.812 125.183C972.812 125.243 972.812 125.304 972.812 125.364C973.629 125.243 974.446 125.063 975.263 124.883C975.181 124.823 975.181 124.763 975.1 124.763C974.528 123.981 974.855 123.02 975.917 122.539C976.979 122.058 978.286 122.359 978.857 123.08C978.939 123.14 978.939 123.2 978.939 123.26C979.593 122.84 980.246 122.419 980.736 121.878C980.655 121.878 980.573 121.818 980.491 121.818C979.429 121.397 979.103 120.376 979.674 119.654C980.246 118.873 981.635 118.573 982.615 119.053C982.697 119.114 982.779 119.113 982.86 119.174C983.187 118.573 983.432 117.912 983.596 117.311C983.514 117.311 983.432 117.311 983.269 117.311C982.043 117.311 981.063 116.589 981.063 115.748C981.063 114.847 982.043 114.125 983.269 114.125C983.351 114.125 983.514 114.125 983.596 114.125C983.432 113.464 983.269 112.863 982.942 112.262C982.86 112.322 982.779 112.383 982.697 112.383C981.635 112.863 980.328 112.563 979.756 111.842C979.184 111.06 979.511 110.099 980.573 109.618C980.655 109.558 980.818 109.558 980.9 109.498C980.328 109.017 979.756 108.536 979.021 108.116C979.021 108.176 978.939 108.296 978.857 108.356C978.286 109.137 976.897 109.438 975.917 108.957C974.855 108.536 974.528 107.515 975.1 106.793C975.181 106.733 975.263 106.673 975.345 106.553C974.528 106.313 973.629 106.192 972.812 106.072C972.812 106.132 972.812 106.253 972.812 106.313C972.812 107.214 971.832 107.935 970.607 107.935C969.381 107.935 968.401 107.214 968.401 106.373C968.401 106.313 968.401 106.192 968.401 106.132C967.502 106.253 966.685 106.433 965.868 106.673C965.95 106.733 966.032 106.793 966.032 106.854C966.604 107.635 966.277 108.596 965.215 109.077C964.153 109.558 962.846 109.257 962.274 108.536C962.192 108.476 962.192 108.416 962.111 108.296C961.457 108.717 960.804 109.137 960.313 109.678C960.395 109.678 960.477 109.738 960.558 109.738C961.62 110.159 961.947 111.181 961.375 111.902C960.804 112.683 959.415 112.984 958.434 112.503C958.353 112.443 958.271 112.443 958.189 112.383C957.863 112.984 957.699 113.584 957.536 114.246C957.618 114.246 957.699 114.246 957.781 114.246C959.006 114.246 959.987 114.967 959.987 115.808C959.987 116.71 959.006 117.431 957.781 117.431C957.699 117.431 957.618 117.431 957.536 117.431C957.699 118.032 957.863 118.633 958.189 119.234C958.271 119.174 958.271 119.174 958.353 119.113C959.415 118.633 960.722 118.933 961.294 119.654C961.865 120.436 961.539 121.397 960.477 121.878C960.395 121.938 960.313 121.938 960.232 121.938C960.803 122.419 961.375 122.84 962.029 123.26C962.029 123.2 962.111 123.14 962.111 123.14C962.682 122.359 964.071 122.058 965.051 122.539C966.113 122.96 966.44 123.981 965.868 124.703C966.032 124.883 966.032 124.943 965.95 124.943ZM966.195 121.517C961.947 119.775 960.477 115.748 962.927 112.623C965.378 109.438 970.77 108.356 975.018 110.099C979.266 111.842 980.736 115.868 978.286 118.993C975.917 122.178 970.443 123.32 966.195 121.517Z" fill="#651FFF"/>
<path d="M987.762 145.136C988.987 145.497 990.213 145.797 991.52 145.977C991.52 145.917 991.52 145.797 991.52 145.737C991.601 144.355 993.154 143.273 994.951 143.333C996.83 143.333 998.218 144.475 998.218 145.857C998.218 145.977 998.218 146.037 998.137 146.158C999.444 146.037 1000.75 145.797 1001.98 145.497C1001.89 145.436 1001.81 145.376 1001.73 145.256C1000.83 144.054 1001.49 142.552 1003.12 141.891C1004.75 141.23 1006.8 141.65 1007.69 142.852C1007.78 142.972 1007.78 143.033 1007.86 143.153C1008.92 142.552 1009.9 141.891 1010.8 141.109C1010.64 141.049 1010.55 141.049 1010.39 140.989C1008.84 140.268 1008.35 138.766 1009.33 137.564C1010.31 136.362 1012.35 136.001 1013.99 136.722C1014.15 136.782 1014.23 136.842 1014.39 136.963C1014.97 136.061 1015.29 135.1 1015.62 134.138C1015.46 134.138 1015.29 134.198 1015.13 134.138C1013.25 134.138 1011.86 132.996 1011.86 131.614C1011.94 130.232 1013.49 129.15 1015.29 129.21C1015.46 129.21 1015.62 129.21 1015.78 129.27C1015.62 128.309 1015.29 127.287 1014.88 126.385C1014.72 126.446 1014.64 126.566 1014.48 126.626C1012.84 127.287 1010.8 126.866 1009.9 125.664C1009 124.462 1009.66 122.96 1011.29 122.299C1011.45 122.239 1011.62 122.179 1011.78 122.118C1010.96 121.337 1010.06 120.616 1009 119.955C1008.92 120.075 1008.84 120.195 1008.76 120.316C1007.78 121.517 1005.73 121.878 1004.1 121.157C1002.55 120.436 1002.06 118.933 1003.04 117.731C1003.12 117.611 1003.28 117.491 1003.37 117.431C1002.06 117.07 1000.83 116.77 999.526 116.589C999.526 116.71 999.607 116.83 999.526 116.95C999.444 118.332 997.892 119.414 996.094 119.354C994.216 119.354 992.827 118.212 992.827 116.83C992.827 116.71 992.827 116.589 992.908 116.409C991.601 116.529 990.213 116.77 988.987 117.13C989.069 117.251 989.151 117.311 989.232 117.431C990.131 118.633 989.477 120.135 987.844 120.796C986.21 121.457 984.167 121.037 983.269 119.835C983.187 119.715 983.105 119.594 983.105 119.474C982.043 120.075 981.063 120.796 980.165 121.517C980.328 121.578 980.41 121.578 980.573 121.638C982.125 122.359 982.615 123.861 981.635 125.063C980.655 126.265 978.612 126.626 976.979 125.905C976.815 125.845 976.733 125.784 976.652 125.724C976.162 126.626 975.753 127.587 975.508 128.549C975.671 128.549 975.753 128.549 975.917 128.549C977.795 128.549 979.184 129.691 979.184 131.073C979.103 132.455 977.55 133.537 975.753 133.477C975.59 133.477 975.508 133.477 975.345 133.417C975.508 134.378 975.835 135.34 976.243 136.241C976.325 136.181 976.407 136.121 976.57 136.061C978.204 135.4 980.246 135.821 981.145 137.023C982.043 138.225 981.39 139.727 979.756 140.388C979.674 140.448 979.511 140.448 979.429 140.508C980.246 141.29 981.145 141.951 982.125 142.612C982.207 142.552 982.207 142.432 982.288 142.371C983.269 141.169 985.311 140.809 986.945 141.53C988.497 142.251 988.987 143.754 988.007 144.956C987.925 144.956 987.844 145.016 987.762 145.136ZM988.415 139.847C982.043 136.963 980.001 130.773 984.004 125.965C988.007 121.157 996.421 119.654 1002.87 122.539C1009.25 125.424 1011.29 131.614 1007.29 136.422C1003.28 141.169 994.869 142.732 988.415 139.847Z" fill="#00E5FF"/>
<path d="M1006.71 122.96C1000.67 118.513 990.866 118.573 984.739 123.081C978.612 127.588 978.612 134.86 984.576 139.307C990.621 143.754 1000.42 143.694 1006.55 139.187C1012.68 134.679 1012.76 127.408 1006.71 122.96ZM1002.96 136.603C998.872 139.607 992.255 139.668 988.17 136.723C984.086 133.718 984.167 128.85 988.252 125.845C992.337 122.84 998.954 122.78 1003.04 125.725C1007.12 128.67 1007.04 133.538 1002.96 136.603Z" fill="#00E5FF"/>
<path d="M966.032 121.758C970.443 123.561 976.08 122.419 978.612 119.114C981.145 115.868 979.674 111.722 975.263 109.859C970.852 108.056 965.215 109.198 962.682 112.503C960.15 115.748 961.702 119.895 966.032 121.758ZM964.643 113.284C966.604 110.82 970.852 109.919 974.119 111.301C977.469 112.683 978.612 115.808 976.652 118.272C974.691 120.736 970.443 121.638 967.175 120.256C963.826 118.933 962.764 115.808 964.643 113.284Z" fill="#651FFF"/>
<path d="M1004.92 137.984C999.771 141.83 991.356 141.89 986.21 138.104C981.063 134.318 981.145 128.128 986.291 124.342C991.438 120.495 999.852 120.435 1005 124.221C1010.15 128.008 1010.06 134.198 1004.92 137.984Z" stroke="#2D2D2D" stroke-width="0.5" stroke-miterlimit="10" stroke-linecap="round"/>
<path d="M966.359 121.397C970.525 123.14 975.753 121.998 978.204 118.933C980.573 115.868 979.184 111.962 975.018 110.219C970.852 108.476 965.623 109.618 963.173 112.683C960.803 115.808 962.192 119.654 966.359 121.397Z" stroke="#2D2D2D" stroke-width="0.5" stroke-miterlimit="10" stroke-linecap="round"/>
<path d="M1045.03 56.611C1044.78 56.6711 1046.01 60.0366 1046.09 60.3371C1046.5 61.5991 1046.91 62.8612 1047.23 64.1232C1047.89 66.6473 1048.46 69.1714 1049.03 71.6956C1049.36 73.0778 1049.68 74.5202 1050.01 75.9024C1050.01 75.9625 1049.93 75.9625 1049.77 76.0226H1000.1C999.199 75.4817 998.382 74.8807 997.728 74.0394C996.666 72.7773 996.176 71.2749 995.686 69.8325C992.99 61.3587 991.846 52.5844 992.092 43.8703C992.173 41.8269 992.337 39.7836 992.99 37.8004C993.97 34.9157 996.013 32.3315 998.218 29.8074C1001.57 25.901 1009 25.0596 1014.88 24.5789C1021.58 24.038 1028.36 24.5789 1034.73 26.2616C1039.15 27.4035 1043.31 29.1463 1046.99 31.2497C1049.85 32.9325 1052.46 34.8556 1054.75 36.959C1056.87 39.0023 1058.67 41.1659 1060.06 43.5698C1060.39 44.2308 1063.16 48.2574 1062.1 48.7983C1056.63 51.683 1051.24 54.8081 1045.03 56.611Z" fill="#651FFF"/>
<path d="M1060.71 46.5752C1054.75 49.2796 1048.3 51.984 1041.84 53.9672C1043.07 57.2125 1045.84 62.5011 1047.56 65.6262C1040.62 66.708 1033.75 68.9316 1027.55 70.7345C1025.91 71.2153 1023.79 72.237 1022.07 72.3572C1020.11 72.4774 1017.5 71.6961 1015.46 71.5158C1014.31 71.3956 1013.17 71.3355 1012.02 71.4557C1009.82 71.636 1007.86 72.5375 1006.22 73.6192C1005.16 74.3404 1004.26 75.1217 1003.45 76.0231H1066.35C1067.41 75.6625 1068.39 75.0616 1069.05 74.3404C1071.33 71.8764 1070.35 68.571 1069.21 65.6863C1067.08 60.2174 1063.33 51.9239 1060.71 46.5752Z" fill="white" stroke="black" stroke-width="0.5" stroke-miterlimit="10"/>
<path d="M1004.02 64.1234C1003.77 60.818 1003.37 57.5126 1002.79 54.2674C1002.14 50.4812 1001.16 46.6349 998.627 43.3296C996.013 40.0242 988.906 37.9808 985.801 42.1877C984.739 43.6901 984.739 45.433 984.821 47.1157C985.148 52.5245 985.556 57.9333 986.046 63.4022C986.455 67.7293 981.798 67.4889 977.387 67.9697C975.835 68.15 974.283 68.3303 972.976 68.9913C971.669 69.6524 970.852 70.9145 971.505 71.9361C971.995 72.7174 973.139 73.1381 974.201 73.4987C974.528 73.6189 974.773 73.679 975.1 73.7992H1000.02C1000.26 73.679 1000.42 73.5588 1000.67 73.4386C1002.22 72.4169 1003.12 71.0948 1003.61 69.5923C1004.18 67.7894 1004.18 65.8662 1004.02 64.1234Z" fill="white" stroke="black" stroke-width="0.5" stroke-miterlimit="10"/>
<path d="M1008.1 50.4818C1008.27 50.4217 1008.1 48.9793 1008.27 48.8591C1008.43 48.7389 1008.43 48.4985 1008.35 48.3182C1007.78 43.0296 1007.94 37.6809 1007.2 32.3923C1006.96 30.7697 1006.71 29.0869 1005.9 27.5845C1001.73 20.0122 988.987 26.5628 985.883 31.4307C982.125 37.2001 983.105 48.6187 982.942 51.4433C987.598 52.1044 1004.02 51.5034 1008.1 50.4818Z" fill="#651FFF"/>
<path d="M1022.81 27.8245C1022.81 27.8245 1022.89 27.8245 1022.89 27.8846C1022.97 27.9447 1023.05 27.9447 1023.13 28.0048C1023.22 28.0649 1023.22 28.1851 1023.22 28.2452C1023.46 30.7092 1022.15 32.8727 1019.62 34.5555C1017.25 36.1781 1013.9 37.0796 1010.64 36.719C1007.45 36.4185 1006.96 34.6156 1005.41 32.8727C1001.73 33.7742 997.973 31.3102 996.013 29.3269C992.255 25.4807 991.03 20.6128 991.601 15.9251C991.765 14.7833 992.01 13.5813 992.908 12.6198C993.562 11.9587 994.542 11.538 995.441 11.1173C999.771 9.07398 1004.35 8.95379 1009 10.5764C1012.02 11.5981 1014.31 13.401 1016.11 15.3843C1016.93 16.2857 1017.99 17.3675 1018.23 18.3891C1018.64 19.8916 1018.56 21.4541 1019.05 23.0167C1019.7 24.5792 1020.85 27.0432 1022.81 27.8245Z" fill="white" stroke="black" stroke-width="0.5" stroke-miterlimit="10"/>
<path d="M1018.15 9.67493C1016.93 9.07395 1015.37 8.77346 1014.07 8.23258C1011.7 7.15082 1010.31 4.9873 1007.69 4.38632C1005.57 3.96563 1003.28 4.74691 1001.65 5.82867C1000.42 6.67004 999.362 7.6917 997.81 8.11238C996.748 8.41287 995.604 8.35278 994.542 8.59317C992.255 9.01385 990.376 10.4562 989.886 12.1389C989.722 12.8 989.722 13.5813 989.477 14.2424C989.232 14.8433 988.742 15.3241 988.334 15.865C987.925 16.4059 987.68 17.0069 987.844 17.6078C988.089 18.4492 989.477 18.8699 990.539 18.7497C990.866 18.7497 991.111 18.6295 991.356 18.5694C993.725 17.7881 996.094 16.9468 998.464 16.1655C999.117 15.9251 999.771 15.7448 1000.42 15.6847C1003.53 15.5645 1004.1 18.0886 1004.75 19.7113C1005 20.3723 1005.24 21.0334 1005.9 21.5142C1006.47 21.995 1007.61 22.2354 1008.35 21.8748C1008.59 21.7546 1008.84 21.5743 1009.08 21.4541C1010.39 21.0334 1011.45 22.596 1012.43 22.8964C1013 23.0767 1013.74 22.8965 1014.39 23.0767C1015.21 23.257 1015.86 23.6777 1016.6 23.9782C1018.23 24.5792 1020.36 24.459 1021.83 23.6176C1023.3 22.7763 1023.95 21.2738 1023.38 19.9517C1022.81 18.5694 1021.01 17.5477 1020.28 16.2256C1019.38 14.3626 1020.6 12.0187 1018.97 10.4562C1018.89 10.0956 1018.56 9.85522 1018.15 9.67493Z" fill="black"/>
<path d="M1010.06 23.2569C1009.57 22.7761 1009.49 22.1751 1009.57 21.5741C1009.74 20.9732 1010.06 20.4323 1010.55 20.0116C1010.88 19.7111 1011.29 19.3505 1011.78 19.1702C1012.51 18.8096 1013.49 18.7495 1014.39 18.8697C1015.29 19.05 1016.03 19.4106 1016.6 19.8914C1017.82 20.9732 1018.56 23.1367 1017.99 24.5189C1017.66 25.2401 1016.93 25.9012 1015.86 26.0214" fill="white"/>
<path d="M1010.06 23.2569C1009.57 22.7761 1009.49 22.1751 1009.57 21.5741C1009.74 20.9732 1010.06 20.4323 1010.55 20.0116C1010.88 19.7111 1011.29 19.3505 1011.78 19.1702C1012.51 18.8096 1013.49 18.7495 1014.39 18.8697C1015.29 19.05 1016.03 19.4106 1016.6 19.8914C1017.82 20.9732 1018.56 23.1367 1017.99 24.5189C1017.66 25.2401 1016.93 25.9012 1015.86 26.0214" stroke="black" stroke-width="0.5" stroke-miterlimit="10"/>
<path d="M1042.9 56.0704C1042.17 56.1906 1041.52 56.2507 1040.78 56.1906C1040.7 56.1906 1040.7 56.1906 1040.62 56.1906C1040.53 56.1906 1040.53 56.1305 1040.53 56.0704C1040.37 55.3492 1040.04 54.6281 1039.64 53.967C1039.55 53.7867 1039.39 53.6064 1039.31 53.4261C1039.06 53.0054 1038.74 52.5847 1038.57 52.1641C1038.49 52.4045 1038.49 52.6448 1038.49 52.8852C1038.49 53.1256 1038.49 53.4261 1038.33 53.6665C1038.25 53.8468 1038.08 53.967 1037.92 54.0872C1037.51 54.4478 1036.94 55.1089 1037.02 55.5896C1037.1 56.1305 1038.08 56.4911 1038 57.0921C1037.92 57.633 1037.68 58.1137 1038.33 58.5344C1038.9 58.895 1039.8 59.1354 1040.62 59.0753C1040.94 59.0152 1041.27 58.9551 1041.6 58.895C1042.41 58.7748 1043.31 58.9551 1043.97 58.5945C1043.88 58.4743 1042.41 56.3709 1042.9 56.0704Z" fill="black"/>
<path d="M1004.59 32.993C1006.63 32.6324 1008.84 32.0915 1010.39 31.0098C1010.47 31.8511 1010.47 32.6925 1010.55 33.4738C1008.51 33.4738 1006.55 33.3536 1004.59 32.993Z" fill="black"/>
<path d="M1002.22 51.263C1002.22 51.263 1001.73 47.6572 1001.24 46.2749C1001.16 45.9143 1001.16 44.7725 1000.59 44.7725C1000.34 45.4936 1000.42 46.2749 1000.34 46.9961C1000.34 47.3567 1000.26 47.6572 1000.02 47.9576C999.607 48.4384 998.709 48.5586 998.137 48.9793C997.647 49.3399 997.565 49.8808 997.156 50.2414C996.748 50.662 995.196 51.263 994.951 51.7438C996.34 51.6837 1001.57 51.3832 1002.22 51.263Z" fill="black"/>
<path d="M958.925 76.0227H1014.72C1015.46 76.0227 1016.03 75.6021 1016.03 75.0612C1016.03 74.5203 1015.46 74.0996 1014.72 74.0996H958.925C958.189 74.0996 957.618 74.5203 957.618 75.0612C957.618 75.6021 958.189 76.0227 958.925 76.0227Z" fill="black"/>
<path d="M957.372 76.0229H1007.37L1003.04 54.8685C1002.87 54.1473 1002.06 53.6064 1001.08 53.6064H955.085C953.86 53.6064 953.043 54.3877 953.206 55.2892L957.372 76.0229Z" fill="black"/>
<path d="M976.08 63.3424C976.08 64.0635 976.897 64.6044 977.795 64.6044C978.776 64.6044 979.511 64.0035 979.511 63.3424C979.511 62.6212 978.694 62.0803 977.795 62.0803C976.897 62.0202 976.08 62.6212 976.08 63.3424Z" fill="white" stroke="black" stroke-width="0.5" stroke-miterlimit="10"/>
<path d="M1039.64 52.9451C1040.29 53.7864 1040.86 54.6278 1041.52 55.4692C1041.68 55.7096 1041.84 55.9499 1042.17 56.01C1042.5 56.1302 1042.9 56.01 1043.23 55.9499C1050.34 54.147 1057.04 51.683 1063.33 48.6781C1062.1 46.755 1060.88 44.8319 1059.73 42.9087C1059.16 42.0073 1058.51 41.1058 1057.36 40.625" fill="#651FFF"/>
<path d="M1047.48 65.6256C1048.87 65.5655 1050.17 65.5054 1051.56 65.4453Z" fill="white"/>
<path d="M1047.48 65.6256C1048.87 65.5655 1050.17 65.5054 1051.56 65.4453" stroke="black" stroke-width="0.5" stroke-miterlimit="10"/>
<path d="M950.347 76.0225H1101.15" stroke="#222221" stroke-width="0.5" stroke-miterlimit="10"/>
<path d="M1092.57 60.2769C1095.02 58.1134 1096.98 55.6494 1097.56 52.8849C1098.21 50.0002 1097.15 46.9953 1095.43 44.2909C1093.63 41.5264 1091.02 37.9806 1087.43 36.2979C1084.08 38.0407 1081.71 41.3461 1081.05 44.2909C1080.32 47.7164 1082.03 50.7814 1084.24 53.7262C1085.06 54.7479 1091.76 60.8779 1090.69 61.7192C1091.43 61.2385 1092.08 60.7577 1092.57 60.2769Z" fill="#A8DCA4"/>
<path d="M1084.32 56.3708C1081.95 54.9885 1078.93 54.2673 1075.99 53.8466C1073.05 53.426 1069.94 53.1255 1067.08 52.4043C1068.07 55.1087 1067.74 58.1136 1069.7 60.4574C1072.07 63.282 1077.46 64.3037 1081.79 63.1618C1083.75 62.6209 1087.34 62.4406 1087.83 61.1185C1088.49 59.4958 1085.71 57.2121 1084.32 56.3708Z" fill="#A8DCA4"/>
<path d="M1074.52 57.1514C1077.05 57.4519 1079.67 57.7523 1082.03 58.4134C1084.49 59.0745 1086.69 60.1563 1088.16 61.7188C1090.78 64.5434 1090.29 68.3296 1089.71 71.7551" stroke="#262547" stroke-width="0.5" stroke-miterlimit="10"/>
<path d="M1090.37 49.0986C1093.14 56.3705 1089.96 64.1231 1090.86 71.6353" stroke="#262547" stroke-width="0.5" stroke-miterlimit="10"/>
<path d="M1098.86 65.986L1079.91 65.6855L1081.79 76.0224H1096.25L1098.86 65.986Z" fill="#00E5FF"/>
<path d="M997.156 28.125C997.402 28.8462 998.3 29.327 999.28 29.4472C1001.08 29.6876 1002.96 28.6659 1003.12 27.3438L997.156 28.125Z" stroke="#262547" stroke-width="0.5" stroke-miterlimit="10"/>
<path d="M1002.3 51.5628C1001.89 49.7599 1001.32 46.8752 1000.83 45.0723" stroke="black" stroke-width="0.5" stroke-miterlimit="10"/>
<path d="M1014.56 20.4328C1013.74 20.3126 1012.92 20.4328 1012.27 20.7333C1011.62 21.0338 1011.13 21.5746 1010.96 22.1756" stroke="#262547" stroke-width="0.5" stroke-miterlimit="10"/>
<path d="M1024.28 28.7861C1024.36 29.7477 1024.2 30.7093 1023.71 31.6107" stroke="black" stroke-width="0.5" stroke-miterlimit="10"/>
<path d="M1023.22 32.8125C1022.89 33.714 1022.15 34.4952 1021.26 35.1563C1020.36 35.8174 1019.29 36.3583 1018.23 36.8992C1017.66 37.1996 1017.09 37.5001 1016.35 37.5602" stroke="black" stroke-width="0.5" stroke-miterlimit="10"/>
<path d="M1053.61 38.4619C1055.73 40.7456 1057.61 43.1495 1059.32 45.6737" stroke="black" stroke-width="0.5" stroke-miterlimit="10"/>
<path d="M1038.98 53.0658C1038 50.9022 1037.02 48.7387 1036.04 46.5752" stroke="black" stroke-width="0.5" stroke-miterlimit="10"/>
<path d="M1059.81 46.875C1059.98 47.2356 1060.14 47.5361 1060.3 47.8967" stroke="black" stroke-width="0.5" stroke-miterlimit="10"/>
<path d="M1067.82 70.3135C1067.98 71.3351 1067.66 72.4169 1066.92 73.3184" stroke="#262547" stroke-width="0.5" stroke-miterlimit="10"/>
<path d="M1067.25 67.6094C1067.25 68.0902 1067.33 68.5709 1067.41 69.0517" stroke="#262547" stroke-width="0.5" stroke-miterlimit="10"/>
<path d="M1083.75 2.40332L1074.93 11.3579L1068.8 6.36978C1068.07 6.79046 1067.41 7.21115 1066.76 7.63183L1075.09 14.4229L1085.79 3.60528C1085.14 3.18459 1084.4 2.82401 1083.75 2.40332Z" fill="#A8DCA4" stroke="black" stroke-width="0.5" stroke-miterlimit="10"/>
<path d="M1085.87 15.3848L1077.05 24.3393L1070.92 19.3512C1070.19 19.7719 1069.54 20.1926 1068.88 20.6133L1077.21 27.4644L1087.92 16.6468C1087.26 16.2261 1086.61 15.8055 1085.87 15.3848Z" fill="#A8DCA4" stroke="black" stroke-width="0.5" stroke-miterlimit="10"/>
<path d="M1127.29 63.1026C1120.43 63.1026 1114.96 58.5352 1114.96 58.5352C1114.96 58.5352 1120.51 53.9678 1127.29 53.9678C1134.15 53.9678 1139.63 58.5352 1139.63 58.5352C1139.63 58.5352 1134.15 63.1026 1127.29 63.1026Z" stroke="black" stroke-width="0.5" stroke-miterlimit="10"/>
<path d="M1127.21 63.1026C1124.84 63.1026 1122.88 61.0593 1122.88 58.5352C1122.88 56.0111 1124.84 53.9678 1127.21 53.9678C1129.58 53.9678 1131.54 56.0111 1131.54 58.5352C1131.54 61.0593 1129.66 63.1026 1127.21 63.1026Z" fill="black"/>
<path d="M947.079 143.032C939.318 143.032 933.028 137.864 933.028 137.864C933.028 137.864 939.318 132.695 947.079 132.695C954.84 132.695 961.13 137.864 961.13 137.864C961.13 137.864 954.922 143.032 947.079 143.032Z" stroke="black" stroke-width="0.5" stroke-miterlimit="10"/>
<path d="M947.079 143.032C944.383 143.032 942.178 140.688 942.178 137.864C942.178 135.039 944.383 132.695 947.079 132.695C949.775 132.695 951.981 135.039 951.981 137.864C951.981 140.688 949.775 143.032 947.079 143.032Z" fill="black"/>
<path d="M1149.02 95.0145H1111.69L1111.2 80.3506L1148.53 80.4107L1149.02 95.0145Z" fill="#651FFF"/>
<path d="M1148.29 80.5908L1129.74 87.5021L1111.04 80.5908" stroke="#1D2038" stroke-width="0.5" stroke-miterlimit="10"/>
<path d="M1144.94 90.1465C1142.49 90.2061 1140.04 90.2061 1137.59 90.2657" stroke="#1D2038" stroke-width="0.5" stroke-miterlimit="10"/>
<path d="M1145.02 91.5283C1142.49 91.5884 1140.04 91.7086 1137.5 91.7687" stroke="#1D2038" stroke-width="0.5" stroke-miterlimit="10"/>
<path d="M909.828 69.8939H874.292L873.883 55.9512L909.338 56.0113L909.828 69.8939Z" fill="#00CBF3"/>
<path d="M909.338 56.0117L891.529 62.7427L873.965 56.192" stroke="#1D2038" stroke-width="0.5" stroke-miterlimit="10"/>
<path d="M905.988 65.2666L898.963 65.3262" stroke="#1D2038" stroke-width="0.5" stroke-miterlimit="10"/>
<path d="M906.07 66.5283L899.208 66.5879" stroke="#1D2038" stroke-width="0.5" stroke-miterlimit="10"/>
<path d="M896.022 154.15C895.613 153.008 895.123 151.806 894.143 150.845C891.365 148.08 884.993 149.342 882.624 151.867C876.742 158.117 881.317 167.853 884.421 174.223C885.32 176.086 886.627 178.069 889.078 178.73C892.836 179.812 896.43 177.348 897.574 174.944C899.126 171.819 899.371 168.333 898.963 165.028C898.799 163.525 898.472 162.023 898.064 160.581C897.656 158.417 896.839 156.254 896.022 154.15Z" fill="white" stroke="#222221" stroke-width="0.5" stroke-miterlimit="10"/>
<path d="M817.026 200.365H929.515" stroke="#222221" stroke-width="0.5" stroke-miterlimit="10"/>
<path d="M810 198.503C852.071 198.503 894.306 198.503 936.378 198.503" stroke="#222221" stroke-width="0.5" stroke-miterlimit="10"/>
<path d="M882.869 143.693C882.951 143.452 882.951 143.272 883.033 143.032C883.441 140.928 883.85 138.284 880.745 137.623C878.703 137.202 875.109 137.383 873.72 136C873.311 135.519 873.148 134.979 873.066 134.438C872.903 133.656 872.739 132.875 872.576 132.094C878.54 132.875 881.072 128.909 881.807 125.243C882.543 121.457 882.379 116.769 877.886 114.305C875.027 112.682 871.024 112.322 867.593 113.283C864.244 114.245 861.548 116.408 860.649 118.993C859.914 120.856 860.812 121.577 860.894 123.5C861.058 125.724 860.812 129.51 860.976 131.733C861.058 133.236 860.894 134.979 859.832 136.241C859.342 136.842 858.688 137.322 857.872 137.683C857.218 137.923 855.666 137.803 855.257 138.104C853.052 139.847 851.009 141.77 848.64 143.392C854.277 145.135 860.077 146.337 866.122 147.118C870.289 147.659 878.785 149.462 881.726 146.217C882.379 145.315 882.706 144.534 882.869 143.693Z" fill="white" stroke="black" stroke-width="0.5" stroke-miterlimit="10"/>
<path d="M833.201 154.09C833.772 148.621 837.122 143.032 843.902 140.327C846.353 139.306 849.13 138.705 851.826 138.224C853.215 137.984 854.686 137.743 856.074 137.503C857.626 137.262 857.953 137.503 859.097 138.404C861.303 140.207 864.815 141.049 868.165 140.808C870.289 140.628 872.249 140.087 874.047 139.306C875.354 138.705 876.089 138.224 876.661 137.082C876.742 137.022 876.742 136.902 876.906 136.842C876.987 136.842 877.069 136.842 877.151 136.842C883.278 137.202 888.996 138.464 892.672 142.371C895.858 145.676 897.165 149.823 897.982 153.91C898.472 156.374 898.881 158.898 899.208 161.422C894.96 161.662 890.793 161.722 886.545 161.662C886.382 166.23 885.81 170.857 885.238 175.425C884.83 178.61 884.176 181.675 883.196 184.74C873.475 187.144 862.365 186.543 851.908 185.822C848.967 185.641 845.863 185.401 843.249 184.259C835.978 181.134 835.733 171.819 834.671 166.41C833.936 162.263 832.71 158.357 833.201 154.09Z" fill="#651FFF"/>
<path d="M907.867 208.359C907.704 208.238 907.622 208.058 907.459 207.938C904.926 205.534 900.596 204.032 897.002 202.589C893.081 201.027 888.669 199.765 884.176 199.945C880.092 200.125 874.455 202.169 873.556 205.354C873.475 205.714 873.393 206.075 873.638 206.435C874.128 207.277 875.68 207.337 876.906 207.337C882.216 207.397 887.281 208.539 892.182 209.861C894.715 210.522 897.247 211.243 899.78 211.844C902.067 212.385 907.622 214.729 909.256 212.265C910.154 211.003 908.929 209.5 907.867 208.359Z" fill="black"/>
<path d="M930.741 176.447C928.617 174.704 925.594 173.562 922.49 173.142C918.16 172.541 913.585 173.142 909.338 173.983C900.27 175.846 891.774 178.911 882.624 180.654C878.54 181.435 875.925 181.135 872.004 180.894C867.021 180.594 861.874 180.954 856.81 180.714C852.071 180.534 847.006 180.233 842.595 181.195C842.023 180.894 841.451 180.654 840.88 180.353C835.978 177.95 831.077 175.606 824.868 176.447C820.048 177.108 815.31 178.911 812.287 181.856C809.101 184.981 810.082 189.068 812.941 192.193C815.31 194.777 818.823 196.7 822.417 198.263C834.916 203.792 848.64 207.157 863.427 206.436C865.387 206.316 867.756 206.316 869.145 207.458C869.717 207.878 869.962 210.282 871.187 210.222C872.658 210.102 875.435 209.801 876.824 209.441C884.258 207.458 891.774 205.474 899.208 203.491C905.743 201.748 912.36 200.005 918.324 197.361C923.47 195.077 928.208 191.952 930.904 187.986C932.865 185.101 934.499 181.255 932.456 178.31C932.048 177.589 931.476 176.988 930.741 176.447Z" fill="#00E5FF"/>
<path d="M838.02 184.74C842.187 186.303 846.598 187.264 850.601 189.127C854.604 190.93 858.443 193.094 862.773 194.476C865.632 195.378 869.717 195.738 872.413 196.7" stroke="black" stroke-width="0.5" stroke-miterlimit="10"/>
<path d="M868.982 207.096C868.573 206.435 868.165 205.774 867.838 205.113C867.021 203.791 866.286 202.469 865.469 201.146C863.753 201.808 862.038 202.288 859.996 202.168C858.934 202.108 857.872 201.868 856.728 201.868C854.604 201.868 853.624 203.13 852.725 204.392C851.173 206.615 848.314 208.238 845.944 209.981C843.004 212.204 841.37 214.308 841.86 217.493C842.023 218.635 842.677 219.897 844.147 220.197C845.536 220.498 846.843 219.777 847.905 219.116C850.846 217.313 853.869 215.57 856.81 213.767C858.198 212.926 859.505 211.844 861.058 211.243C862.283 210.762 863.835 210.402 865.06 209.861C865.796 209.62 866.613 209.44 867.429 209.26C867.92 209.139 869.308 209.139 869.635 208.839C870.125 208.539 869.227 207.517 868.982 207.096C868.982 207.156 868.982 207.156 868.982 207.096Z" fill="black"/>
<path d="M876.661 186.182C877.233 186.002 877.641 185.642 877.968 184.92C878.54 183.779 878.213 182.456 877.314 181.435C876.171 180.173 874.128 179.151 872.086 178.851C869.962 178.55 867.92 177.949 865.796 177.649C864.244 177.408 862.773 177.108 861.221 176.807C858.035 176.146 854.849 175.485 851.663 174.824C850.928 174.644 850.111 174.523 849.294 174.343C848.559 174.163 848.64 174.223 848.559 173.682C848.477 173.081 848.722 172.48 848.804 171.939C848.885 171.098 848.967 170.257 849.049 169.415C849.212 167.792 849.294 166.17 849.457 164.547C849.702 161.362 849.457 158.297 848.722 155.112C847.415 149.823 838.837 146.818 834.017 151.867C830.668 155.352 829.933 160.1 829.688 164.307C829.443 168.874 829.769 173.502 832.22 177.769C838.184 188.466 861.548 187.324 874.292 186.483C875.272 186.423 876.089 186.423 876.661 186.182Z" fill="white" stroke="black" stroke-width="0.5" stroke-miterlimit="10"/>
<path d="M872.903 111.301C878.213 111.661 882.869 115.147 884.176 118.753C883.85 118.873 883.523 118.933 883.196 119.053C882.788 118.332 882.216 117.611 881.562 116.95C881.562 117.671 881.726 118.392 882.052 119.053C881.481 119.233 880.419 119.053 879.765 119.053C878.785 119.113 877.804 119.173 876.824 119.233C875.027 119.414 873.148 119.594 871.351 119.955C871.187 119.955 871.024 120.015 870.861 119.955C870.779 119.895 870.697 119.834 870.697 119.774C870.207 119.173 869.799 117.611 868.737 118.092C868.246 118.332 868.083 119.955 868.083 120.375C868.083 121.457 868.491 121.998 867.103 122.719C865.959 123.26 864.979 123.921 864.57 124.823C864.08 125.844 863.917 126.926 863.018 127.767C862.773 128.008 862.528 128.188 862.283 128.428C861.874 128.789 861.384 129.21 860.894 129.57C860.649 129.39 860.486 129.15 860.322 128.909C858.934 126.085 855.012 119.294 859.097 116.89C857.218 118.031 854.032 117.611 852.643 116.108C851.254 114.606 852.071 112.322 854.277 111.481C852.071 110.639 851.418 108.175 853.052 106.853C854.686 105.531 858.117 105.711 859.424 107.214C861.058 105.651 864.244 105.05 866.613 106.012C869.717 107.334 869.227 109.738 867.511 111.481C869.39 111.361 871.106 111.18 872.903 111.301Z" fill="black"/>
<path d="M910.4 179.392C901.985 182.216 895.205 187.024 887.526 190.87C880.337 194.416 872.494 197 864.57 199.584C864.979 200.246 865.142 200.907 865.551 201.568" stroke="black" stroke-width="0.5" stroke-miterlimit="10"/>
<path d="M874.455 126.565C874.945 127.767 876.987 128.489 878.54 128.068" stroke="#222221" stroke-width="0.5" stroke-miterlimit="10"/>
<path d="M865.959 126.205C862.855 126.746 860.894 124.402 861.874 122.779C863.182 120.616 867.348 120.976 868.083 123.26" fill="white"/>
<path d="M865.959 126.205C862.855 126.746 860.894 124.402 861.874 122.779C863.182 120.616 867.348 120.976 868.083 123.26" stroke="black" stroke-width="0.5" stroke-miterlimit="10"/>
<path d="M864.407 122.659C864.979 122.539 865.632 122.599 866.122 122.839C866.613 123.079 866.939 123.44 866.858 123.861" stroke="#222221" stroke-width="0.5" stroke-miterlimit="10"/>
<path d="M851.336 150.544C850.519 153.008 850.274 158.717 850.274 163.045C848.068 162.924 845.863 162.684 843.739 162.383C839.001 161.722 834.426 160.641 830.015 159.318C831.322 153.128 833.772 147.179 839.736 142.731" fill="#651FFF"/>
<path d="M850.356 189.608H898.064C898.799 189.608 899.289 189.187 899.289 188.706C899.289 188.165 898.718 187.805 898.064 187.805H850.356C849.621 187.805 849.13 188.225 849.13 188.706C849.049 189.187 849.621 189.608 850.356 189.608Z" fill="black"/>
<path d="M857.463 188.346H899.208L907.867 172.6C908.112 172.059 907.622 171.519 906.887 171.519H867.43C867.021 171.519 866.613 171.699 866.449 171.999L857.463 188.346Z" fill="black"/>
<path d="M887.036 179.933C886.627 180.774 885.075 181.495 883.686 181.495C882.297 181.495 881.481 180.774 881.971 179.933C882.461 179.091 883.931 178.37 885.32 178.37C886.709 178.37 887.444 179.091 887.036 179.933Z" stroke="white" stroke-width="0.5" stroke-miterlimit="10"/>
<path d="M872.821 131.974C872.739 132.575 872.821 133.176 872.903 133.717C872.821 133.717 872.821 133.717 872.739 133.657C871.106 133.296 869.717 132.275 869.063 131.133C870.207 131.674 871.514 131.914 872.821 131.974Z" fill="black"/>
<path d="M862.365 212.446C861.874 211.604 860.894 210.883 859.669 210.583C859.342 210.522 858.934 210.462 858.77 210.643C858.443 210.883 858.77 211.304 859.015 211.544C859.505 212.025 859.914 212.626 860.077 213.227C860.159 213.467 860.241 213.708 859.996 213.888C859.75 214.068 859.342 214.068 859.015 213.948C858.688 213.828 858.525 213.648 858.28 213.407C857.708 212.926 857.055 212.566 856.238 212.325C856.074 212.265 855.911 212.265 855.829 212.265C855.421 212.386 855.666 212.806 855.911 213.107C856.483 213.648 856.728 214.309 856.646 214.97" stroke="#D47172" stroke-miterlimit="10"/>
<path d="M887.607 209.56C887.771 209.019 887.934 208.418 888.506 208.058C889.078 207.697 890.222 207.877 890.303 208.418C890.303 208.659 890.14 208.839 890.14 209.079C890.058 209.38 890.222 209.74 890.548 209.981C890.875 210.161 891.447 210.161 891.774 209.921C892.182 209.56 891.937 208.959 892.264 208.659C892.672 208.298 893.653 208.538 893.898 209.019C894.143 209.5 894.061 210.041 893.979 210.522C893.898 211.002 893.898 211.603 894.47 211.964" stroke="#D47172" stroke-miterlimit="10"/>
<path d="M863.345 125.183C863.345 125.604 863.753 125.904 864.325 125.904C864.897 125.904 865.306 125.604 865.306 125.183C865.306 124.762 864.897 124.462 864.325 124.462C863.753 124.462 863.345 124.762 863.345 125.183Z" fill="black"/>
<path d="M830.015 160.821C830.096 160.52 830.096 160.22 830.178 159.919C830.26 159.739 830.26 159.499 830.341 159.318C830.668 159.499 830.995 159.619 831.322 159.739C831.73 159.859 832.057 159.979 832.465 160.04C833.609 160.28 834.834 160.58 835.978 160.821C836.468 160.941 836.877 161.061 837.285 161.241C836.877 161.181 836.468 161.121 836.06 161.181C835.488 161.241 834.998 161.422 834.426 161.422C833.936 161.482 833.446 161.422 832.955 161.422C831.893 161.482 830.831 161.842 829.933 161.542C829.933 161.302 830.015 161.061 830.015 160.821Z" fill="black"/>
<path d="M833.037 176.928C833.527 178.19 834.508 179.392 835.815 180.353Z" fill="white"/>
<path d="M833.037 176.928C833.527 178.19 834.508 179.392 835.815 180.353" stroke="black" stroke-width="0.5" stroke-miterlimit="10"/>
<path d="M836.795 181.074C837.285 181.315 837.694 181.615 838.184 181.856Z" fill="white"/>
<path d="M836.795 181.074C837.285 181.315 837.694 181.615 838.184 181.856" stroke="black" stroke-width="0.5" stroke-miterlimit="10"/>
<path d="M836.223 179.632C836.468 179.812 836.713 179.992 836.958 180.173Z" fill="white"/>
<path d="M836.223 179.632C836.468 179.812 836.713 179.992 836.958 180.173" stroke="black" stroke-width="0.5" stroke-miterlimit="10"/>
<path d="M832.22 158.777C833.446 159.138 834.671 159.438 835.896 159.799" stroke="black" stroke-width="0.5" stroke-miterlimit="10"/>
<path d="M835.406 149.402C834.753 150.484 834.263 151.626 833.854 152.768" stroke="black" stroke-width="0.5" stroke-miterlimit="10"/>
<path d="M833.61 153.429C833.528 153.789 833.364 154.15 833.282 154.45" stroke="black" stroke-width="0.5" stroke-miterlimit="10"/>
<path d="M832.956 155.412C832.874 155.653 832.792 155.893 832.792 156.133" stroke="black" stroke-width="0.5" stroke-miterlimit="10"/>
<path d="M862.202 130.532C862.202 131.614 862.12 132.636 861.956 133.717" stroke="black" stroke-width="0.5" stroke-miterlimit="10"/>
<path d="M861.793 134.498C861.711 134.919 861.548 135.339 861.466 135.7" stroke="black" stroke-width="0.5" stroke-miterlimit="10"/>
<path d="M886.545 161.723C886.382 160.04 886.219 158.417 886.137 156.734" stroke="black" stroke-width="0.5" stroke-miterlimit="10"/>
<path d="M885.892 155.653C885.729 155.052 885.647 154.391 885.729 153.729" stroke="black" stroke-width="0.5" stroke-miterlimit="10"/>
<path d="M849.702 163.105C849.947 163.045 850.192 162.985 850.438 162.985C851.173 162.144 851.336 161.122 851.5 160.1C851.908 157.456 852.643 154.812 853.542 152.228" stroke="black" stroke-width="0.5" stroke-miterlimit="10"/>
<path d="M914.729 190.93C915.383 190.87 916.036 190.87 916.69 190.87C920.856 190.689 924.941 190.99 929.107 190.689C933.273 190.389 937.358 189.427 941.442 188.947C945.2 188.466 949.122 188.406 952.879 189.067C956.556 189.728 960.068 191.23 962.356 193.514C964.888 196.038 965.378 199.524 963.499 202.348C961.539 205.293 957.209 206.435 952.961 206.856C948.713 207.276 944.465 207.216 940.217 207.216C936.541 207.216 932.947 207.577 929.27 207.336C924.042 207.036 919.141 207.998 915.056 204.452C912.197 201.928 910.563 198.202 911.38 194.656C911.625 193.634 912.033 191.951 913.259 191.29C913.586 191.11 914.157 190.99 914.729 190.93Z" fill="#F8D12E"/>
<path d="M931.721 191.771L931.558 184.139L926.493 186.482C924.696 185.761 922.572 185.401 920.366 185.401C918.079 185.401 915.955 185.821 914.239 186.482L906.233 186.242L909.256 188.586L908.929 192.312C908.929 196.158 914.239 198.202 920.611 198.202C926.901 198.202 931.803 196.098 931.803 192.312C931.721 192.192 931.721 192.011 931.721 191.771Z" fill="#F8D12E"/>
<path d="M921.265 193.154C921.265 193.515 920.693 193.815 920.039 193.815C919.386 193.815 918.814 193.515 918.814 193.154C918.814 192.794 919.386 192.493 920.039 192.493C920.774 192.433 921.265 192.733 921.265 193.154Z" fill="black"/>
<path d="M920.121 193.033C920.121 193.394 920.121 193.814 920.121 194.235C920.121 194.596 919.957 195.016 919.631 195.317C919.222 195.738 918.65 195.858 918.079 195.617" stroke="black" stroke-width="0.5" stroke-miterlimit="10"/>
<path d="M920.039 193.033C920.039 193.394 920.039 193.814 920.039 194.235C920.039 194.596 920.203 195.016 920.529 195.317C920.938 195.738 921.836 195.978 922.49 195.617" stroke="black" stroke-width="0.5" stroke-miterlimit="10"/>
<path d="M917.017 192.252C915.383 192.733 913.422 192.553 912.687 191.892" stroke="black" stroke-width="0.5" stroke-miterlimit="10"/>
<path d="M921.51 184.62C921.428 184.56 921.346 184.56 921.265 184.5C920.611 184.319 917.915 184.86 918.569 185.642C918.65 185.762 918.895 185.822 918.895 185.942C918.895 186.002 918.895 186.062 918.814 186.122C918.732 186.363 918.65 186.663 918.732 186.904C918.895 187.204 919.386 187.324 919.794 187.264C920.203 187.204 920.529 186.964 920.774 186.723C920.938 186.483 921.019 186.242 921.265 186.122C921.51 186.002 921.755 185.942 922 185.762C922.572 185.401 922.081 184.86 921.51 184.62Z" fill="black"/>
<path d="M931.966 183.718C931.803 183.658 931.639 183.598 931.476 183.598C930.904 183.538 930.332 183.778 929.924 184.079C929.515 184.379 929.189 184.74 928.944 185.101C928.78 185.341 928.535 185.581 928.453 185.822C928.29 186.303 928.535 186.843 929.025 187.264C929.515 187.625 930.169 187.865 930.904 187.865C931.149 187.865 931.476 187.865 931.639 187.745C931.803 187.625 931.885 187.505 931.966 187.324C932.13 186.904 932.293 186.423 932.293 185.942C932.293 185.702 932.293 185.401 932.375 185.161C932.456 184.92 932.701 184.62 932.783 184.44C932.701 184.199 932.375 183.899 931.966 183.718Z" fill="black"/>
<path d="M924.042 192.192C925.676 192.733 927.555 192.673 928.372 192.012" stroke="black" stroke-width="0.5" stroke-miterlimit="10"/>
<path d="M958.761 194.296C958.925 196.7 956.801 198.863 954.268 199.825C951.981 200.666 949.203 200.666 946.671 200.847C943.485 201.087 940.299 201.327 937.113 201.508C934.58 201.688 931.966 201.868 929.924 202.95C927.882 204.032 926.656 206.255 928.127 207.758C929.025 208.719 930.741 209.2 932.293 209.2C935.316 209.2 938.42 208.419 941.279 207.938C944.465 207.397 947.488 207.097 950.674 206.856" fill="#F8D12E"/>
<path d="M925.839 207.337C926.329 206.375 926.738 205.293 926.248 204.332C925.758 203.551 924.696 203.07 923.634 202.709C922.572 202.409 921.428 202.229 920.366 201.868C919.304 201.507 918.324 200.846 918.16 200.005" stroke="black" stroke-width="0.5" stroke-miterlimit="10"/>
<path d="M926.248 198.562C926.656 199.704 926.411 200.846 925.921 201.988C925.431 203.01 925.104 203.971 923.96 204.753C923.062 205.354 921.918 205.774 921.183 206.435C920.774 206.796 920.529 207.217 920.529 207.697C920.611 208.298 921.183 208.779 922 208.959C922.735 209.2 923.552 209.14 924.369 209.02C926.738 208.659 928.862 207.457 929.924 205.834" fill="#F8D12E"/>
<path d="M928.862 204.752C928.453 204.452 927.963 204.271 927.473 204.211C925.839 204.151 924.941 205.293 924.941 206.375C924.859 207.457 925.349 208.598 926.329 209.44C927.555 210.522 929.025 210.281 930.659 210.041C931.721 209.921 932.701 209.56 933.273 208.839C933.6 208.418 933.682 207.937 933.355 207.517C932.783 206.916 931.476 207.036 930.741 206.615C930.414 206.435 930.251 206.134 930.006 205.834C929.679 205.473 929.352 205.053 928.862 204.752Z" fill="black"/>
<path d="M947.569 205.053C947.569 205.053 947.569 204.993 947.488 204.993C947.079 204.392 946.262 203.851 945.364 203.791C944.955 203.791 944.547 203.851 944.138 204.031C943.648 204.272 943.321 204.572 943.076 204.993C942.831 205.594 942.995 206.315 942.668 206.916C942.259 207.818 940.952 208.298 940.462 209.14C940.054 209.921 941.442 209.981 942.178 210.101C943.24 210.342 944.302 210.402 945.364 210.101C948.06 209.38 948.631 206.796 947.569 205.053Z" fill="black"/>
<path d="M942.586 191.411C943.321 191.471 944.057 191.411 944.792 191.29C946.589 190.99 948.386 190.209 950.265 190.389C950.837 190.449 951.409 190.629 951.981 190.689C954.186 190.87 954.513 189.127 952.879 188.346C952.389 188.105 951.817 187.985 951.246 187.865C949.448 187.504 947.488 187.384 945.609 187.564C944.138 187.684 942.831 187.865 941.524 188.406C941.116 188.586 940.707 188.826 940.38 189.127C939.89 189.728 940.135 190.629 940.871 191.05C941.361 191.29 941.933 191.411 942.586 191.411Z" fill="black"/>
<path d="M928.127 207.817C926.738 206.255 927.882 204.031 929.924 203.01C931.966 201.928 934.58 201.747 937.113 201.567C942.423 201.207 947.243 200.666 952.308 199.524C953.124 199.344 953.941 199.163 954.677 198.803C955.412 198.442 956.065 197.961 956.31 197.36" stroke="black" stroke-width="0.5" stroke-miterlimit="10"/>
<path d="M920.693 208.118C921.183 207.577 921.836 207.096 922.572 206.735" stroke="black" stroke-width="0.5" stroke-miterlimit="10"/>
<path d="M921.591 208.84C922.245 208.479 922.817 208.118 923.47 207.758" stroke="black" stroke-width="0.5" stroke-miterlimit="10"/>
<path d="M935.316 201.748C936.868 200.606 938.175 199.284 938.992 197.842" stroke="black" stroke-width="0.5" stroke-miterlimit="10"/>
<path d="M920.693 206.976C921.346 206.495 921.918 206.014 922.653 205.533C923.307 205.113 923.96 204.752 924.532 204.271C926.003 203.13 926.738 201.507 926.575 199.944" stroke="black" stroke-width="0.5" stroke-miterlimit="10"/>
<path d="M931.558 190.63C931.476 192.132 931.313 193.695 930.169 194.957C928.944 196.339 926.656 197.06 924.451 197.361" stroke="black" stroke-width="0.5" stroke-miterlimit="10"/>
<path d="M910.236 199.885C911.298 200.546 912.605 201.027 913.912 201.327" stroke="black" stroke-width="0.5" stroke-miterlimit="10"/>
<path d="M1077.05 192.013L1069.54 248.925" stroke="#222221" stroke-width="3" stroke-miterlimit="10"/>
<path d="M1100.5 192.313L1113.81 248.625" stroke="#222221" stroke-width="3" stroke-miterlimit="10"/>
<path d="M1031.14 197.782L1031.06 197.722C1027.06 194.957 1024.28 191.111 1024.2 187.085C1024.11 182.457 1027.79 178.13 1032.61 175.125C1037.76 171.88 1045.52 168.514 1051.89 166.832C1059.57 164.788 1068.39 165.81 1076.15 163.586C1087.1 160.401 1095.76 154.572 1103.19 148.081C1110.14 141.951 1115.28 132.936 1126.64 130.833C1130.48 130.112 1134.73 130.232 1138.32 131.494C1144.28 133.597 1147.47 138.345 1149.35 143.033C1153.51 153.43 1153.02 164.788 1147.88 174.885C1132.85 204.453 1083.01 214.97 1045.11 203.972C1040.04 202.349 1035.06 200.546 1031.14 197.782Z" fill="#651FFF"/>
<path d="M1094.21 174.885C1093.31 169.356 1085.79 166.531 1079.09 165.57C1070.03 164.248 1061.2 162.204 1052.71 159.38C1050.66 158.719 1048.7 157.997 1046.66 157.396C1045.03 156.916 1043.48 156.495 1041.76 156.194C1029.18 154.031 1020.52 159.44 1013.41 166.231C1008.43 170.978 1003.69 175.846 999.28 180.895C994.134 186.784 989.396 192.794 983.922 198.503C982.534 199.946 981.145 201.568 979.511 202.951C981.39 204.874 983.432 206.737 985.311 208.66C986.618 207.879 987.762 207.037 988.987 206.256C1002.06 197.902 1015.86 190.15 1030.32 183.058C1031.3 182.577 1032.37 182.036 1033.59 181.916C1035.14 181.676 1036.78 182.036 1038.33 182.397C1045.6 184.2 1053.2 185.582 1060.79 186.544C1067.49 187.385 1074.85 188.166 1081.54 187.085C1088.81 185.943 1095.19 180.594 1094.21 174.885Z" fill="#00CBF3"/>
<path d="M994.624 232.999C1002.71 233.72 1010.8 234.141 1018.97 234.261C1021.99 221.64 1025.1 209.02 1028.12 196.399C1044.29 197.962 1060.71 197.842 1076.97 196.64C1082.77 196.219 1088.57 195.678 1093.8 193.875C1103.6 190.449 1106.71 183.418 1104.17 175.906C1103.68 174.403 1102.78 172.961 1101.48 171.819C1099.43 170.016 1096.33 168.995 1093.23 168.454C1087.02 167.432 1081.46 168.874 1075.34 168.934C1067.41 169.055 1059.49 169.656 1051.56 170.497C1036.29 172.06 1020.52 174.403 1008.51 181.495C1002.96 184.8 1001.4 188.526 999.852 193.514C995.768 206.255 995.931 219.897 994.624 232.999Z" fill="#00CBF3"/>
<path d="M1091.1 144.535C1091.18 144.475 1091.27 144.355 1091.35 144.295C1092.98 142.792 1095.02 141.11 1097.56 141.41C1099.27 141.651 1100.5 142.732 1100.91 143.994C1101.31 145.196 1100.99 146.518 1100.5 147.72C1098.94 151.687 1095.02 154.451 1091.35 157.516C1087.59 160.702 1082.44 164.067 1076.4 164.307C1073.38 164.428 1069.7 163.526 1069.05 161.363C1068.72 160.161 1069.45 158.899 1070.52 157.997C1071.58 157.096 1073.05 156.435 1074.44 155.713C1080.73 152.648 1086.36 148.862 1091.1 144.535Z" fill="white" stroke="black" stroke-width="0.5" stroke-miterlimit="10"/>
<path d="M1112.42 182.757C1117.98 176.867 1122.96 170.617 1127.95 164.427C1130.4 161.362 1133.42 157.756 1133.5 154.09C1133.58 152.347 1132.36 149.403 1130.56 148.08C1128.19 146.278 1123.86 146.578 1121 145.376C1114.96 142.792 1110.22 139.126 1102.7 139.306C1099.03 139.366 1095.51 140.448 1092.49 142.011C1089.55 143.573 1087.26 145.616 1085.06 147.72C1084.24 148.441 1084 148.441 1084.57 149.222C1084.81 149.583 1085.38 150.064 1085.71 150.424C1086.69 151.386 1088 152.287 1089.39 152.948C1089.63 153.069 1089.88 153.189 1089.88 153.369C1089.88 153.489 1089.8 153.609 1089.63 153.67C1086.94 156.314 1084.16 158.778 1080.24 160.581C1079.26 161.062 1072.39 164.788 1071.33 163.526C1074.6 167.372 1078.03 171.218 1081.46 174.944C1087.43 181.375 1093.8 187.745 1101.56 193.034C1105.48 189.788 1108.99 186.363 1112.42 182.757Z" fill="#00E5FF"/>
<path d="M1079.18 169.295L1046.09 157.997C1045.68 157.877 1045.76 157.396 1046.25 157.336L1069.21 155.894L1103.93 167.733L1079.18 169.295Z" fill="white" stroke="#222221" stroke-width="0.5" stroke-miterlimit="10"/>
<path d="M1078.93 166.951L1060.96 160.822L1073.46 160.461L1091.43 166.591L1078.93 166.951Z" fill="white" stroke="#222221" stroke-width="0.5" stroke-miterlimit="10"/>
<path d="M1117.98 162.624C1116.51 163.947 1115.12 165.269 1113.65 166.651C1113 167.252 1106.62 166.29 1105.56 166.17C1102.78 165.87 1100.09 165.389 1097.39 164.788C1092.08 163.586 1087.43 162.144 1082.28 160.521C1078.85 159.439 1075.25 158.598 1071.5 158.778C1069.7 158.838 1067.66 159.319 1067.08 160.521C1066.51 161.723 1067.74 162.985 1069.21 163.586C1070.76 164.247 1072.8 164.127 1074.36 164.728C1075.58 165.209 1076.64 166.17 1077.95 166.711C1089.31 171.279 1098.13 179.572 1111.53 180.894C1114.79 181.195 1118.14 180.954 1121 179.812C1123.29 178.851 1125.09 177.348 1126.8 175.846C1132.36 171.038 1139.71 164.668 1137.59 157.817C1137.34 156.975 1136.85 156.134 1135.95 155.533C1134.89 154.872 1133.42 154.631 1132.03 154.692C1126.64 154.872 1122.64 158.237 1119.29 161.362C1118.88 161.783 1118.39 162.204 1117.98 162.624Z" fill="white" stroke="#222221" stroke-width="0.5" stroke-miterlimit="10"/>
<path d="M1044.54 157.155L1042.74 140.027L1078.69 152.107L1079.18 169.295L1045.27 157.997C1044.86 157.816 1044.54 157.516 1044.54 157.155Z" fill="black"/>
<path d="M1059.73 162.144C1058.26 160.822 1057.94 159.079 1057.61 157.396C1057.36 156.014 1057.04 154.692 1056.79 153.309C1056.71 152.889 1056.63 152.468 1056.3 152.168C1055.97 151.867 1055.4 151.687 1054.91 151.867C1054.83 151.807 1054.75 151.687 1054.59 151.627C1054.18 151.386 1053.77 151.086 1053.2 151.206C1052.71 151.266 1052.3 151.567 1052.14 151.927C1052.05 151.867 1052.05 151.807 1051.97 151.807C1051.48 151.507 1050.75 151.687 1050.34 151.987C1050.01 152.228 1049.93 152.528 1049.93 152.889C1049.93 152.588 1048.95 152.648 1048.7 152.769C1048.3 152.949 1048.21 153.309 1048.21 153.61C1048.05 155.052 1048.13 156.495 1048.38 157.937C1048.54 159.019 1048.7 159.92 1049.6 160.822C1050.01 161.303 1050.58 161.723 1051.24 162.024C1051.97 162.384 1052.54 162.444 1053.36 162.565C1054.1 162.685 1054.75 162.865 1055.48 163.045C1057.2 163.466 1058.92 164.007 1060.63 163.706C1060.88 163.646 1061.12 163.586 1061.12 163.406C1061.12 163.226 1060.88 163.166 1060.63 163.045C1060.3 162.805 1060.14 162.444 1059.73 162.144C1059.81 162.144 1059.81 162.144 1059.73 162.144Z" fill="white"/>
<path d="M1059.73 162.144C1058.26 160.822 1057.94 159.079 1057.61 157.396C1057.36 156.014 1057.04 154.692 1056.79 153.309C1056.71 152.889 1056.63 152.468 1056.3 152.168C1055.97 151.867 1055.4 151.687 1054.91 151.867C1054.83 151.807 1054.75 151.687 1054.59 151.627C1054.18 151.386 1053.77 151.086 1053.2 151.206C1052.71 151.266 1052.3 151.567 1052.14 151.927C1052.05 151.867 1052.05 151.807 1051.97 151.807C1051.48 151.507 1050.75 151.687 1050.34 151.987C1050.01 152.228 1049.93 152.528 1049.93 152.889C1049.93 152.588 1048.95 152.648 1048.7 152.769C1048.3 152.949 1048.21 153.309 1048.21 153.61C1048.05 155.052 1048.13 156.495 1048.38 157.937C1048.54 159.019 1048.7 159.92 1049.6 160.822C1050.01 161.303 1050.58 161.723 1051.24 162.024C1051.97 162.384 1052.54 162.444 1053.36 162.565C1054.1 162.685 1054.75 162.865 1055.48 163.045C1057.2 163.466 1058.92 164.007 1060.63 163.706C1060.88 163.646 1061.12 163.586 1061.12 163.406C1061.12 163.226 1060.88 163.166 1060.63 163.045C1060.3 162.805 1060.14 162.444 1059.73 162.144ZM1059.73 162.144C1059.81 162.144 1059.81 162.144 1059.73 162.144Z" stroke="black" stroke-width="0.5" stroke-miterlimit="10"/>
<path d="M1054.99 151.867C1054.99 153.189 1055.08 154.512 1055.32 155.774C1055.48 156.976 1055.48 158.238 1056.06 159.379" fill="white"/>
<path d="M1054.99 151.867C1054.99 153.189 1055.08 154.512 1055.32 155.774C1055.48 156.976 1055.48 158.238 1056.06 159.379" stroke="black" stroke-width="0.5" stroke-miterlimit="10"/>
<path d="M1052.46 151.627C1052.3 153.73 1052.95 157.036 1053.44 159.079Z" fill="white"/>
<path d="M1052.46 151.627C1052.3 153.73 1052.95 157.036 1053.44 159.079" stroke="black" stroke-width="0.5" stroke-miterlimit="10"/>
<path d="M1050.09 151.267C1050.17 151.507 1050.17 151.807 1050.09 152.048C1049.93 154.031 1050.26 156.736 1050.91 158.659" fill="white"/>
<path d="M1050.09 151.267C1050.17 151.507 1050.17 151.807 1050.09 152.048C1049.93 154.031 1050.26 156.736 1050.91 158.659" stroke="black" stroke-width="0.5" stroke-miterlimit="10"/>
<path d="M1121.74 145.437C1125.33 145.076 1129.01 144.776 1132.6 145.317C1141.59 146.639 1144.28 154.031 1142.9 159.921C1141.67 165.269 1137.83 169.837 1133.42 174.044C1126.8 170.798 1120.67 166.772 1114.06 163.587C1113.65 163.406 1116.1 162.024 1118.71 157.517" fill="#00E5FF"/>
<path d="M1119.37 146.818C1118.14 146.578 1117 146.157 1115.94 145.616C1114.71 145.015 1113.73 144.174 1113.08 143.152C1112.75 142.611 1112.67 141.229 1111.77 141.169C1112.75 141.59 1114.22 141.77 1115.28 141.53C1116.26 141.289 1116.92 140.508 1117.41 139.907C1118.06 139.126 1118.71 138.345 1119.2 137.443C1119.2 137.383 1119.29 137.323 1119.29 137.323C1119.29 137.082 1118.55 136.842 1118.31 136.782C1117.98 136.662 1117.57 136.481 1117.24 136.301C1116.35 135.82 1115.53 135.28 1115.04 134.558C1114.38 133.717 1114.22 132.695 1114.14 131.734C1113.65 127.467 1115.53 123.08 1119.94 120.075C1120.27 119.834 1120.67 119.594 1121.16 119.474C1122.8 119.053 1124.27 120.195 1125.74 120.495C1127.21 120.736 1128.52 121.036 1129.99 121.397C1131.7 121.878 1133.5 122.238 1135.22 122.719C1136.2 123.02 1138.65 123.56 1138.97 124.402C1139.38 125.363 1138.16 126.445 1137.75 127.287C1137.26 128.308 1136.85 129.27 1136.28 130.291C1135.05 132.455 1134.07 134.739 1133.17 137.022C1132.52 138.705 1131.78 140.388 1131.38 142.131C1131.21 142.852 1131.05 143.573 1131.46 144.294C1131.62 144.595 1131.87 144.835 1132.19 145.075C1132.36 145.196 1133.09 145.556 1133.26 145.436C1132.52 145.857 1131.7 146.157 1130.8 146.398C1130.15 146.578 1129.42 146.698 1128.76 146.758C1125.49 147.299 1122.55 147.479 1119.37 146.818Z" fill="white"/>
<path d="M1119.37 146.818C1118.14 146.578 1117 146.157 1115.94 145.616C1114.71 145.015 1113.73 144.174 1113.08 143.152C1112.75 142.611 1112.67 141.229 1111.77 141.169C1112.75 141.59 1114.22 141.77 1115.28 141.53C1116.26 141.289 1116.92 140.508 1117.41 139.907C1118.06 139.126 1118.71 138.345 1119.2 137.443C1119.2 137.383 1119.29 137.323 1119.29 137.323C1119.29 137.082 1118.55 136.842 1118.31 136.782C1117.98 136.662 1117.57 136.481 1117.24 136.301C1116.35 135.82 1115.53 135.28 1115.04 134.558C1114.38 133.717 1114.22 132.695 1114.14 131.734C1113.65 127.467 1115.53 123.08 1119.94 120.075C1120.27 119.834 1120.67 119.594 1121.16 119.474C1122.8 119.053 1124.27 120.195 1125.74 120.495C1127.21 120.736 1128.52 121.036 1129.99 121.397C1131.7 121.878 1133.5 122.238 1135.22 122.719C1136.2 123.02 1138.65 123.56 1138.97 124.402C1139.38 125.363 1138.16 126.445 1137.75 127.287C1137.26 128.308 1136.85 129.27 1136.28 130.291C1135.05 132.455 1134.07 134.739 1133.17 137.022C1132.52 138.705 1131.78 140.388 1131.38 142.131C1131.21 142.852 1131.05 143.573 1131.46 144.294C1131.62 144.595 1131.87 144.835 1132.19 145.075C1132.36 145.196 1133.09 145.556 1133.26 145.436C1132.52 145.857 1131.7 146.157 1130.8 146.398C1130.15 146.578 1129.42 146.698 1128.76 146.758C1125.49 147.299 1122.55 147.479 1119.37 146.818Z" stroke="#222221" stroke-width="0.5" stroke-miterlimit="10"/>
<path d="M1134.64 131.614C1135.46 131.554 1136.28 131.314 1136.6 130.713C1137.59 132.936 1142.32 131.975 1142.49 129.811C1142.57 128.849 1141.59 127.888 1140.28 127.768C1141.18 127.527 1142 127.287 1142.73 126.866C1143.47 126.446 1143.88 125.724 1143.63 125.063C1143.3 124.102 1141.59 123.681 1140.28 123.801C1141.59 123.32 1142.4 121.758 1141.67 120.796C1141.18 120.135 1140.28 119.895 1139.3 119.895C1138.97 119.895 1137.09 119.955 1136.93 120.195C1137.67 118.993 1137.01 117.491 1135.46 116.83C1133.91 116.229 1131.78 116.59 1130.8 117.671C1130.89 116.229 1129.66 114.666 1127.78 114.246C1126.07 113.885 1122.55 114.787 1123.04 116.469C1121.98 116.109 1120.92 115.688 1119.69 115.688C1118.47 115.688 1117.24 116.169 1116.75 117.01C1116.35 117.852 1117.08 118.933 1118.22 118.993C1117.33 119.054 1116.51 119.174 1115.77 119.474C1115.04 119.775 1114.47 120.376 1114.47 121.037C1114.47 121.397 1114.71 121.758 1115.04 121.998C1115.61 122.419 1116.43 122.72 1117.24 122.78C1118.31 122.9 1119.37 122.78 1120.35 122.419C1119.61 123.08 1119.86 124.222 1120.67 124.823C1121.57 125.424 1122.88 125.604 1124.11 125.424C1125.33 125.244 1126.39 124.823 1127.37 124.342C1126.47 125.063 1127.05 126.325 1128.19 126.806C1129.33 127.287 1130.72 127.167 1131.95 126.926C1130.64 127.227 1131.13 129.631 1131.29 130.292C1131.46 130.713 1131.95 131.073 1132.52 131.314C1133.09 131.494 1133.75 131.554 1134.32 131.554C1134.48 131.614 1134.56 131.614 1134.64 131.614Z" fill="#222221"/>
<path d="M1119.29 137.143C1119.2 137.203 1119.2 137.323 1119.12 137.383C1119.04 137.503 1119.04 137.563 1118.96 137.683C1118.88 137.864 1118.8 138.104 1118.63 138.284C1118.63 138.345 1118.55 138.405 1118.55 138.405C1118.47 138.585 1118.31 138.765 1118.22 139.006C1119.61 139.066 1121.41 139.066 1122.72 138.104C1123.04 137.864 1123.45 137.563 1123.7 137.263C1122.39 137.503 1120.76 137.443 1119.29 137.143Z" fill="black"/>
<path d="M1115.77 131.374C1115.77 132.095 1116.51 132.816 1117.41 133.057C1118.39 133.297 1119.53 133.057 1120.1 132.456" stroke="#222221" stroke-width="0.5" stroke-miterlimit="10"/>
<path d="M1130.31 130.292C1131.21 129.751 1132.36 129.391 1133.58 129.451C1134.73 129.511 1135.87 129.992 1136.36 130.773C1136.77 131.494 1136.6 132.336 1136.03 132.937C1135.46 133.598 1134.48 133.958 1133.42 134.078C1132.52 134.199 1131.62 134.018 1130.97 133.598" fill="white"/>
<path d="M1130.31 130.292C1131.21 129.751 1132.36 129.391 1133.58 129.451C1134.73 129.511 1135.87 129.992 1136.36 130.773C1136.77 131.494 1136.6 132.336 1136.03 132.937C1135.46 133.598 1134.48 133.958 1133.42 134.078C1132.52 134.199 1131.62 134.018 1130.97 133.598" stroke="#222221" stroke-width="0.5" stroke-miterlimit="10"/>
<path d="M1134.24 130.352C1133.66 130.291 1133.01 130.412 1132.52 130.592C1132.03 130.772 1131.54 131.073 1131.05 131.373" fill="white"/>
<path d="M1134.24 130.352C1133.66 130.291 1133.01 130.412 1132.52 130.592C1132.03 130.772 1131.54 131.073 1131.05 131.373" stroke="#222221" stroke-width="0.5" stroke-miterlimit="10"/>
<path d="M1089.39 154.09C1090.45 153.129 1091.59 152.167 1092.65 151.206C1093.23 150.725 1093.72 150.244 1094.21 149.703" fill="#7696EA"/>
<path d="M1089.39 154.09C1090.45 153.129 1091.59 152.167 1092.65 151.206C1093.23 150.725 1093.72 150.244 1094.21 149.703" stroke="black" stroke-width="0.5" stroke-miterlimit="10"/>
<path d="M1071.09 175.485C1055.81 173.382 1045.93 172.661 1030.65 170.497C1023.87 169.536 1016.11 171.399 1011.37 175.185C1006.71 178.911 1004.18 183.839 1002.06 188.707C1000.34 192.553 998.79 196.459 997.402 200.426" stroke="#222221" stroke-width="0.5" stroke-miterlimit="10"/>
<path d="M1027.95 196.94C1027.38 194.717 1026.73 192.553 1025.91 190.39" stroke="#222221" stroke-width="0.5" stroke-miterlimit="10"/>
<path d="M1115.94 164.607C1115.45 164.367 1114.96 164.066 1114.47 163.826C1117.16 161.422 1119.78 159.018 1122.47 156.554C1122.88 156.133 1123.37 155.713 1123.29 155.172" stroke="#222221" stroke-width="0.5" stroke-miterlimit="10"/>
<path d="M1088.9 152.167C1088.9 152.047 1088.98 151.987 1089.06 151.867C1089.22 151.626 1089.63 151.326 1090.04 151.266C1090.61 151.206 1091.02 151.326 1091.27 150.845C1091.43 150.424 1091.92 150.184 1092.57 150.124C1092.82 150.124 1092.98 150.124 1093.23 150.124C1093.31 150.124 1093.63 150.004 1093.72 150.064C1094.04 150.184 1093.55 150.544 1093.39 150.665C1093.06 151.025 1092.74 151.386 1092.33 151.746C1092 152.107 1091.59 152.408 1091.27 152.708C1091.18 152.768 1090.04 153.549 1090.04 153.609C1089.88 153.309 1089.39 153.189 1089.06 152.888C1088.9 152.648 1088.81 152.408 1088.9 152.167Z" fill="black"/>
<path d="M1111.93 179.512C1113.16 179.752 1114.38 179.812 1115.69 179.752C1116.92 179.632 1118.14 179.331 1119.12 178.73" stroke="#222221" stroke-width="0.5" stroke-miterlimit="10"/>
<path d="M1120.18 178.25C1120.76 177.889 1121.33 177.409 1121.74 176.928" stroke="#222221" stroke-width="0.5" stroke-miterlimit="10"/>
<path d="M1113.08 166.831C1113.73 166.831 1114.3 166.831 1114.96 166.831" stroke="#222221" stroke-width="0.5" stroke-miterlimit="10"/>
<path d="M1081.14 194.597C1083.5 194.476 1085.79 194.176 1088 193.695C1089.14 193.455 1092 192.734 1093.06 192.373" stroke="#222221" stroke-width="0.5" stroke-miterlimit="10"/>
<path d="M1107.77 184.98C1106.71 185.822 1105.73 186.723 1104.66 187.565" stroke="#222221" stroke-width="0.5" stroke-miterlimit="10"/>
<path d="M1027.14 189.608C1027.22 190.269 1027.22 190.87 1027.3 191.532" stroke="#222221" stroke-width="0.5" stroke-miterlimit="10"/>
<path d="M1083.1 193.334C1084.08 193.214 1085.06 193.094 1086.04 192.974" stroke="#222221" stroke-width="0.5" stroke-miterlimit="10"/>
<path d="M1018.97 174.104C1017.91 174.224 1016.84 174.584 1015.95 175.125" stroke="#222221" stroke-width="0.5" stroke-miterlimit="10"/>
<path d="M1029.42 158.117C1028.2 158.478 1026.97 158.898 1025.83 159.379" stroke="#222221" stroke-width="0.5" stroke-miterlimit="10"/>
<path d="M1014.97 175.846C1014.72 176.146 1014.39 176.387 1014.15 176.687" stroke="#222221" stroke-width="0.5" stroke-miterlimit="10"/>
<path d="M945.282 154.932L984.086 153.79L964.071 173.142L954.758 162.865L950.919 166.591L950.429 158.958L945.282 154.932Z" fill="#A8DCA4"/>
<path d="M977.795 156.134L954.758 162.865L951.817 170.257L946.017 166.471L950.429 158.958L977.795 156.134Z" fill="black"/>
<path d="M1087.34 95.1943C1081.63 92.4298 1073.7 92.3096 1067.08 92.3096C1058.26 92.3096 1039.55 92.6101 1030.65 93.1509C1019.38 93.812 1011.04 95.8553 1012.02 106.733C1012.19 108.235 1012.84 109.738 1014.23 110.88C1016.52 112.683 1020.19 112.923 1023.54 113.043C1022.89 117.791 1023.3 120.856 1019.38 124.642C1025.01 123.26 1026.32 121.096 1028.36 117.01C1029.02 115.808 1029.42 114.546 1029.75 113.224C1042.41 113.584 1055.16 113.584 1067.82 113.584C1073.95 113.584 1080.4 113.524 1085.55 111.12C1090.61 108.836 1093.8 102.706 1091.35 98.6198C1090.53 97.2376 1089.14 96.0957 1087.34 95.1943Z" fill="#F8D12E"/>
<path d="M1026.81 106.252C1030.08 106.793 1033.75 105.351 1035.06 103.127C1035.39 102.586 1035.47 101.745 1034.82 101.444C1034.08 101.084 1033.1 101.625 1032.69 102.226C1031.88 103.788 1033.51 105.651 1035.72 106.012C1037.92 106.432 1040.29 105.591 1041.68 104.269C1042.41 103.548 1042.9 102.406 1041.92 101.805C1041.19 101.384 1040.04 101.625 1039.55 102.226C1039.06 102.827 1039.23 103.608 1039.64 104.149C1040.94 105.831 1044.21 106.072 1046.5 105.17C1047.56 104.75 1048.62 104.029 1048.7 103.127C1048.79 102.226 1047.4 101.324 1046.34 101.745C1045.68 101.985 1045.44 102.586 1045.52 103.067C1045.6 103.608 1046.01 104.029 1046.5 104.449C1048.95 106.312 1053.69 106.072 1055.89 104.029C1056.3 103.608 1056.71 103.067 1056.63 102.526C1056.55 101.985 1055.97 101.444 1055.24 101.444C1054.26 101.444 1053.69 102.346 1053.85 103.007C1054.1 103.728 1054.83 104.209 1055.57 104.69C1056.96 105.591 1058.59 106.613 1060.47 106.372C1062.02 106.192 1063.08 105.17 1063.98 104.269C1064.47 103.728 1064.96 103.187 1065.04 102.526C1065.12 101.865 1064.63 101.204 1063.74 101.084C1062.43 100.903 1061.61 102.166 1061.86 103.127C1062.18 104.99 1064.72 106.493 1067.25 106.312C1069.78 106.132 1071.9 104.389 1071.9 102.526C1071.9 101.985 1071.58 101.324 1070.76 101.204C1069.62 101.024 1069.05 102.166 1069.05 103.007C1069.13 104.089 1069.45 105.17 1070.52 105.892C1071.58 106.613 1073.13 106.793 1074.6 106.613C1075.99 106.432 1077.38 105.952 1078.6 105.471" stroke="#222221" stroke-width="0.5" stroke-miterlimit="10"/>
<path d="M954.513 84.1362C949.857 80.29 939.564 80.2299 933.273 80.1698C924.777 80.0496 913.749 79.8092 904.273 81.552C899.861 82.3934 895.777 83.6555 892.509 85.5786C889.16 87.5618 886.872 90.8672 887.771 93.9322C888.588 96.6967 891.774 98.8602 895.368 99.942C898.963 101.024 902.884 101.264 906.723 101.505C918.242 102.166 929.924 102.767 941.197 101.204C941.197 102.346 941.279 103.428 941.688 104.509C942.913 108.115 947.651 111 952.716 111.12C949.122 109.918 946.998 107.034 946.344 104.149C946.099 102.887 946.017 101.625 946.181 100.423C949.693 99.7016 953.124 98.6198 955.33 96.5765C958.843 93.211 958.271 87.2613 954.513 84.1362Z" fill="#F8D12E"/>
<path d="M900.106 95.1341C901.25 92.6701 903.782 90.5667 907.05 89.4849C908.112 89.1243 909.338 88.8839 910.481 89.0642C912.769 89.4248 913.994 91.2879 914.076 92.9706C914.157 93.5716 914.076 94.2327 913.667 94.7735C913.259 95.3144 912.36 95.675 911.543 95.4947C910.726 95.3144 910.236 94.6533 910.236 93.9923C910.318 93.3312 910.726 92.7903 911.298 92.3095C912.524 91.2278 914.157 90.4465 915.873 89.9657C918.16 89.3046 921.019 89.1844 922.98 90.2061C925.022 91.2879 925.594 93.7519 923.634 94.8937C923.225 95.1341 922.735 95.3144 922.245 95.1942C921.101 95.0139 920.938 93.812 921.428 92.9706C922.572 91.0475 925.267 89.8455 928.045 89.545C929.352 89.3647 930.823 89.4248 931.885 90.0258C933.927 91.1076 933.6 93.4514 932.375 95.0139C932.13 95.3144 931.885 95.6149 931.394 95.7351C930.577 95.9755 929.679 95.3745 929.515 94.7735C929.434 94.1125 929.842 93.5115 930.332 93.0307C931.721 91.6485 933.845 90.6869 936.132 90.3864C937.93 90.146 940.135 90.3864 941.116 91.5883C942.014 92.7903 941.279 94.2928 940.217 95.3745C940.054 95.5548 939.809 95.7351 939.482 95.7351C939.237 95.7351 938.992 95.5548 938.828 95.3745C936.868 93.5716 938.42 92.3696 940.544 91.0475C941.933 90.2061 943.975 89.9056 945.69 90.3263" stroke="#222221" stroke-width="0.5" stroke-miterlimit="10"/>
<path d="M916.118 116.049C912.197 120.135 908.194 124.162 903.946 128.068" stroke="black" stroke-width="0.5" stroke-miterlimit="10"/>
<path d="M909.909 126.325C907.949 128.188 905.988 130.111 903.946 131.974" stroke="black" stroke-width="0.5" stroke-miterlimit="10"/>
<path d="M1124.84 211.183L1128.93 206.856L1133.26 210.763L1138.24 206.496L1142.65 210.763L1147.39 206.436L1152.13 210.582L1157.03 206.315" stroke="black" stroke-width="0.5" stroke-miterlimit="10"/>
<path d="M854.277 79.7499C852.643 78.7884 849.621 79.3893 849.212 81.0721C849.13 81.3726 849.212 81.6731 849.212 81.9134C849.376 82.875 849.866 83.9568 848.722 84.738C847.905 85.2789 846.68 85.339 845.618 85.2789C844.392 85.2188 842.35 85.0986 841.778 86.1203C841.37 86.8415 841.86 87.6227 842.187 88.3439C842.513 89.0651 842.759 89.9666 842.023 90.5074C841.043 91.2286 839.409 90.7478 838.02 90.8079C836.632 90.868 835.406 91.5892 834.916 92.4907C834.508 93.4522 834.834 94.5941 835.896 95.2552" stroke="black" stroke-width="0.5" stroke-miterlimit="10"/>
<path d="M915.709 45.6134C915.709 43.8105 917.67 42.3682 920.121 42.3682C922.572 42.3682 924.532 43.8105 924.532 45.6134" stroke="black" stroke-width="0.5" stroke-miterlimit="10"/>
<path d="M928.535 37.9214C928.535 38.7628 927.637 39.4238 926.493 39.4238C925.349 39.4238 924.451 38.7628 924.451 37.9214C924.451 37.08 925.349 36.4189 926.493 36.4189C927.637 36.4189 928.535 37.08 928.535 37.9214Z" fill="black"/>
<path d="M981.063 212.145C979.103 214.008 977.142 215.931 975.1 217.794" stroke="black" stroke-width="0.5" stroke-miterlimit="10"/>
<path d="M973.302 215.871C974.791 215.871 975.998 214.983 975.998 213.888C975.998 212.792 974.791 211.904 973.302 211.904C971.814 211.904 970.607 212.792 970.607 213.888C970.607 214.983 971.814 215.871 973.302 215.871Z" fill="black"/>
<path d="M856.973 86.7208C856.074 87.5021 854.604 87.6223 853.542 86.9612C852.48 86.3001 852.316 85.2183 853.215 84.4371C854.114 83.6558 855.584 83.5356 856.646 84.1967C857.708 84.8578 857.872 85.9395 856.973 86.7208Z" fill="black"/>
<path d="M1075.66 129.03C1074.76 129.751 1073.21 129.871 1072.23 129.21C1071.25 128.549 1071.09 127.407 1071.99 126.686C1072.88 125.965 1074.44 125.845 1075.42 126.506C1076.4 127.167 1076.56 128.309 1075.66 129.03Z" fill="black"/>
<path d="M1071.66 132.395C1069.62 134.138 1065.94 134.318 1063.57 132.816C1061.2 131.313 1060.96 128.609 1063 126.866" stroke="black" stroke-width="0.5" stroke-miterlimit="10"/>
<path d="M1150.33 191.531C1151.64 191.531 1152.7 192.313 1152.7 193.274C1152.7 194.236 1151.64 195.017 1150.33 195.017" fill="black"/>
</svg>
