<svg width="535" height="827" viewBox="0 0 535 827" fill="none" xmlns="http://www.w3.org/2000/svg">
<g clip-path="url(#clip0_100_733)">
<path d="M534.861 815.721C534.861 821.746 415.116 826.634 267.43 826.634C119.744 826.634 0 821.746 0 815.721C0 809.696 119.729 804.793 267.43 804.793C415.132 804.793 534.861 809.681 534.861 815.721Z" fill="black" fill-opacity="0.08"/>
<path d="M483.737 729.492C480.638 733.083 478.544 737.43 477.668 742.091L465.504 748.916V716.663L465.735 716.996L485.133 702.796C487.578 703.18 496.989 704.256 505.619 699.634C515.503 694.269 522.776 675.844 522.776 675.844C522.776 675.844 499.05 673.168 491.009 683.117C486.6 688.282 484.252 694.893 484.416 701.682L465.504 715.536V691.721C469.044 690.072 472.173 687.656 474.664 684.649C477.156 681.642 478.947 678.118 479.909 674.334C483.353 660.928 464.979 634.514 464.979 634.514C464.979 634.514 445.838 661.696 449.615 675.486C452.854 687.163 461.574 690.85 464.173 691.721V743.384L450.562 732.028C450.87 729.313 451.113 720.799 443.533 712.258C434.34 701.926 409.846 702.694 409.846 702.694C409.846 702.694 420.179 723.359 429.052 730.261C436.734 736.278 447.361 733.82 449.909 733.103L464.275 745.075V760.772H442.88L451.587 815.188H477.706L486.413 760.772H465.504V750.388L478.871 742.898C482.124 743.794 491.214 745.664 499.819 741.361C510.535 736.022 519.332 724.499 519.332 724.499C519.332 724.499 493.686 718.007 483.737 729.492Z" fill="#FFC436"/>
<path d="M451.42 815.124L442.457 760.708H486.631L477.668 815.124H451.42Z" fill="#212121"/>
<g filter="url(#filter0_d_100_733)">
<path d="M433.955 320.964H82.4625C72.5709 320.964 64.5522 328.987 64.5522 338.885V560.529C64.5522 570.427 72.5709 578.45 82.4625 578.45H433.955C443.846 578.45 451.865 570.427 451.865 560.529V338.885C451.865 328.987 443.846 320.964 433.955 320.964Z" fill="white" stroke="#212121" stroke-width="1.53696" stroke-miterlimit="10" stroke-linecap="round"/>
<path d="M64.5524 339.822C64.5524 329.636 72.8099 321.379 82.9959 321.379H433.422C443.608 321.379 451.865 329.636 451.865 339.822V344.433H64.5524V339.822Z" fill="#0174BE"/>
<path d="M222.352 471.19H189.307C185.912 471.19 183.159 473.943 183.159 477.338V490.479C183.159 493.875 185.912 496.627 189.307 496.627H222.352C225.747 496.627 228.5 493.875 228.5 490.479V477.338C228.5 473.943 225.747 471.19 222.352 471.19Z" fill="#F6F4FF"/>
<path d="M222.352 501.222H189.307C185.912 501.222 183.159 503.975 183.159 507.37V520.511C183.159 523.906 185.912 526.659 189.307 526.659H222.352C225.747 526.659 228.5 523.906 228.5 520.511V507.37C228.5 503.975 225.747 501.222 222.352 501.222Z" fill="#F6F4FF"/>
<path d="M272.303 471.19H239.258C235.863 471.19 233.11 473.943 233.11 477.338V490.479C233.11 493.875 235.863 496.627 239.258 496.627H272.303C275.698 496.627 278.451 493.875 278.451 490.479V477.338C278.451 473.943 275.698 471.19 272.303 471.19Z" fill="#F6F4FF"/>
<path d="M322.269 441.143H289.225C285.829 441.143 283.077 443.895 283.077 447.29V460.431C283.077 463.827 285.829 466.579 289.225 466.579H322.269C325.665 466.579 328.417 463.827 328.417 460.431V447.29C328.417 443.895 325.665 441.143 322.269 441.143Z" fill="#F6F4FF"/>
<path d="M322.269 411.095H289.225C285.829 411.095 283.077 413.848 283.077 417.243V430.384C283.077 433.779 285.829 436.532 289.225 436.532H322.269C325.665 436.532 328.417 433.779 328.417 430.384V417.243C328.417 413.848 325.665 411.095 322.269 411.095Z" fill="#F6F4FF"/>
<path d="M322.269 355.565H289.225C285.829 355.565 283.077 358.317 283.077 361.713V370.289C283.077 373.684 285.829 376.437 289.225 376.437H322.269C325.665 376.437 328.417 373.684 328.417 370.289V361.713C328.417 358.317 325.665 355.565 322.269 355.565Z" fill="#FFC436"/>
<path d="M272.303 355.565H239.258C235.863 355.565 233.11 358.317 233.11 361.713V370.289C233.11 373.684 235.863 376.437 239.258 376.437H272.303C275.698 376.437 278.451 373.684 278.451 370.289V361.713C278.451 358.317 275.698 355.565 272.303 355.565Z" fill="#FFC436"/>
<path d="M272.303 501.222H239.258C235.863 501.222 233.11 503.975 233.11 507.37V520.511C233.11 523.906 235.863 526.659 239.258 526.659H272.303C275.698 526.659 278.451 523.906 278.451 520.511V507.37C278.451 503.975 275.698 501.222 272.303 501.222Z" fill="#F6F4FF"/>
<path d="M272.81 381.447H239.765C236.37 381.447 233.617 384.2 233.617 387.595V400.736C233.617 404.131 236.37 406.884 239.765 406.884H272.81C276.205 406.884 278.958 404.131 278.958 400.736V387.595C278.958 384.2 276.205 381.447 272.81 381.447Z" fill="#F6F4FF"/>
<path d="M272.303 411.095H239.258C235.863 411.095 233.11 413.848 233.11 417.243V430.384C233.11 433.779 235.863 436.532 239.258 436.532H272.303C275.698 436.532 278.451 433.779 278.451 430.384V417.243C278.451 413.848 275.698 411.095 272.303 411.095Z" fill="#F6F4FF"/>
<path d="M272.435 441.381H239.39C235.995 441.381 233.243 444.134 233.243 447.529V460.67C233.243 464.065 235.995 466.818 239.39 466.818H272.435C275.83 466.818 278.583 464.066 278.583 460.67V447.529C278.583 444.134 275.83 441.381 272.435 441.381Z" fill="#F6F4FF"/>
<rect x="239.074" y="449.156" width="6.80291" height="9.71844" rx="3.40145" fill="#D4CAFF"/>
<rect x="247.82" y="449.156" width="6.80291" height="9.71844" rx="3.40145" fill="#D4CAFF"/>
<rect x="256.567" y="449.156" width="6.80291" height="9.71844" rx="3.40145" fill="#D4CAFF"/>
<rect x="266.285" y="449.156" width="6.80291" height="9.71844" rx="3.40145" fill="#D4CAFF"/>
<path d="M322.269 501.222H289.225C285.829 501.222 283.077 503.975 283.077 507.37V520.511C283.077 523.906 285.829 526.659 289.225 526.659H322.269C325.665 526.659 328.417 523.906 328.417 520.511V507.37C328.417 503.975 325.665 501.222 322.269 501.222Z" fill="#F6F4FF"/>
<path d="M122.434 381.048H86.3926C82.9972 381.048 80.2448 383.8 80.2448 387.196V400.337C80.2448 403.732 82.9972 406.484 86.3926 406.484H122.434C125.83 406.484 128.582 403.732 128.582 400.337V387.196C128.582 383.8 125.83 381.048 122.434 381.048Z" fill="#F6F4FF"/>
<path d="M122.853 441.381H86.8112C83.4158 441.381 80.6633 444.134 80.6633 447.529V460.67C80.6633 464.065 83.4158 466.818 86.8112 466.818H122.853C126.248 466.818 129.001 464.066 129.001 460.67V447.529C129.001 444.134 126.248 441.381 122.853 441.381Z" fill="#F6F4FF"/>
<path d="M122.434 471.19H86.3926C82.9972 471.19 80.2448 473.943 80.2448 477.338V490.479C80.2448 493.875 82.9972 496.627 86.3926 496.627H122.434C125.83 496.627 128.582 493.875 128.582 490.479V477.338C128.582 473.943 125.83 471.19 122.434 471.19Z" fill="#F6F4FF"/>
<path d="M122.112 410.649H86.07C82.6747 410.649 79.9222 413.402 79.9222 416.797V429.938C79.9222 433.334 82.6747 436.086 86.07 436.086H122.112C125.507 436.086 128.259 433.334 128.259 429.938V416.797C128.259 413.402 125.507 410.649 122.112 410.649Z" fill="#F6F4FF"/>
<path d="M425.184 355.565H389.142C385.747 355.565 382.994 358.317 382.994 361.713V370.289C382.994 373.684 385.747 376.437 389.142 376.437H425.184C428.579 376.437 431.332 373.684 431.332 370.289V361.713C431.332 358.317 428.579 355.565 425.184 355.565Z" fill="#FFC436"/>
<path d="M122.434 501.222H86.3926C82.9972 501.222 80.2448 503.975 80.2448 507.37V520.511C80.2448 523.906 82.9972 526.659 86.3926 526.659H122.434C125.83 526.659 128.582 523.906 128.582 520.511V507.37C128.582 503.975 125.83 501.222 122.434 501.222Z" fill="#F6F4FF"/>
<path d="M372.22 381.048H339.176C335.78 381.048 333.028 383.8 333.028 387.196V400.337C333.028 403.732 335.78 406.484 339.176 406.484H372.22C375.616 406.484 378.368 403.732 378.368 400.337V387.196C378.368 383.8 375.616 381.048 372.22 381.048Z" fill="#F6F4FF"/>
<path d="M322.269 471.19H289.225C285.829 471.19 283.077 473.943 283.077 477.338V490.479C283.077 493.875 285.829 496.627 289.225 496.627H322.269C325.665 496.627 328.417 493.875 328.417 490.479V477.338C328.417 473.943 325.665 471.19 322.269 471.19Z" fill="#F6F4FF"/>
<path d="M372.22 471.19H339.176C335.78 471.19 333.028 473.943 333.028 477.338V490.479C333.028 493.875 335.78 496.627 339.176 496.627H372.22C375.616 496.627 378.368 493.875 378.368 490.479V477.338C378.368 473.943 375.616 471.19 372.22 471.19Z" fill="#F6F4FF"/>
<path d="M372.22 411.095H339.176C335.78 411.095 333.028 413.848 333.028 417.243V430.384C333.028 433.779 335.78 436.532 339.176 436.532H372.22C375.616 436.532 378.368 433.779 378.368 430.384V417.243C378.368 413.848 375.616 411.095 372.22 411.095Z" fill="#F6F4FF"/>
<path d="M372.22 441.143H339.176C335.78 441.143 333.028 443.895 333.028 447.29V460.431C333.028 463.827 335.78 466.579 339.176 466.579H372.22C375.616 466.579 378.368 463.827 378.368 460.431V447.29C378.368 443.895 375.616 441.143 372.22 441.143Z" fill="#F6F4FF"/>
<path d="M372.22 501.222H339.176C335.78 501.222 333.028 503.975 333.028 507.37V520.511C333.028 523.906 335.78 526.659 339.176 526.659H372.22C375.616 526.659 378.368 523.906 378.368 520.511V507.37C378.368 503.975 375.616 501.222 372.22 501.222Z" fill="#F6F4FF"/>
<path d="M321.999 381.127H288.955C285.559 381.127 282.807 383.879 282.807 387.275V400.416C282.807 403.811 285.559 406.564 288.955 406.564H321.999C325.394 406.564 328.147 403.811 328.147 400.416V387.275C328.147 383.879 325.394 381.127 321.999 381.127Z" fill="#F6F4FF"/>
<rect x="288.638" y="388.901" width="6.80291" height="9.71844" rx="3.40145" fill="#D4CAFF"/>
<rect x="297.384" y="388.901" width="6.80291" height="9.71844" rx="3.40145" fill="#D4CAFF"/>
<rect x="306.131" y="388.901" width="6.80291" height="9.71844" rx="3.40145" fill="#D4CAFF"/>
<rect x="315.85" y="388.901" width="6.80291" height="9.71844" rx="3.40145" fill="#D4CAFF"/>
<rect x="87.4662" y="449.156" width="6.80291" height="9.71844" rx="3.40145" fill="#D4CAFF"/>
<rect x="96.2128" y="449.156" width="6.80291" height="9.71844" rx="3.40145" fill="#D4CAFF"/>
<rect x="104.959" y="449.156" width="6.80291" height="9.71844" rx="3.40145" fill="#D4CAFF"/>
<rect x="114.678" y="449.156" width="6.80291" height="9.71844" rx="3.40145" fill="#D4CAFF"/>
<path d="M425.184 501.222H389.142C385.747 501.222 382.994 503.975 382.994 507.37V520.511C382.994 523.906 385.747 526.659 389.142 526.659H425.184C428.579 526.659 431.332 523.906 431.332 520.511V507.37C431.332 503.975 428.579 501.222 425.184 501.222Z" fill="#F6F4FF"/>
<path d="M372.22 355.565H339.176C335.78 355.565 333.028 358.317 333.028 361.713V370.289C333.028 373.684 335.78 376.437 339.176 376.437H372.22C375.616 376.437 378.368 373.684 378.368 370.289V361.713C378.368 358.317 375.616 355.565 372.22 355.565Z" fill="#FFC436"/>
<path d="M425.184 471.19H389.142C385.747 471.19 382.994 473.943 382.994 477.338V490.479C382.994 493.875 385.747 496.627 389.142 496.627H425.184C428.579 496.627 431.332 493.875 431.332 490.479V477.338C431.332 473.943 428.579 471.19 425.184 471.19Z" fill="#F6F4FF"/>
<path d="M372.22 531.27H339.176C335.78 531.27 333.028 534.022 333.028 537.418V552.004C333.028 555.399 335.78 558.151 339.176 558.151H372.22C375.616 558.151 378.368 555.399 378.368 552.004V537.418C378.368 534.022 375.616 531.27 372.22 531.27Z" fill="#F6F4FF"/>
<path d="M425.184 441.143H389.142C385.747 441.143 382.994 443.895 382.994 447.29V460.431C382.994 463.827 385.747 466.579 389.142 466.579H425.184C428.579 466.579 431.332 463.827 431.332 460.431V447.29C431.332 443.895 428.579 441.143 425.184 441.143Z" fill="#F6F4FF"/>
<path d="M272.303 531.27H239.258C235.863 531.27 233.11 534.022 233.11 537.418V552.004C233.11 555.399 235.863 558.151 239.258 558.151H272.303C275.698 558.151 278.451 555.399 278.451 552.004V537.418C278.451 534.022 275.698 531.27 272.303 531.27Z" fill="#F6F4FF"/>
<path d="M322.269 531.27H289.225C285.829 531.27 283.077 534.022 283.077 537.418V552.004C283.077 555.399 285.829 558.151 289.225 558.151H322.269C325.665 558.151 328.417 555.399 328.417 552.004V537.418C328.417 534.022 325.665 531.27 322.269 531.27Z" fill="#F6F4FF"/>
<path d="M424.892 410.649H388.85C385.455 410.649 382.702 413.402 382.702 416.797V429.938C382.702 433.334 385.455 436.086 388.85 436.086H424.892C428.287 436.086 431.04 433.334 431.04 429.938V416.797C431.04 413.402 428.287 410.649 424.892 410.649Z" fill="#F6F4FF"/>
<path d="M425.184 531.27H389.142C385.747 531.27 382.994 534.022 382.994 537.418V552.004C382.994 555.399 385.747 558.151 389.142 558.151H425.184C428.579 558.151 431.332 555.399 431.332 552.004V537.418C431.332 534.022 428.579 531.27 425.184 531.27Z" fill="#F6F4FF"/>
<path d="M122.434 531.27H86.3926C82.9972 531.27 80.2448 534.022 80.2448 537.418V552.004C80.2448 555.399 82.9972 558.151 86.3926 558.151H122.434C125.83 558.151 128.582 555.399 128.582 552.004V537.418C128.582 534.022 125.83 531.27 122.434 531.27Z" fill="#F6F4FF"/>
<path d="M425.184 381.048H389.142C385.747 381.048 382.994 383.8 382.994 387.196V400.337C382.994 403.732 385.747 406.484 389.142 406.484H425.184C428.579 406.484 431.332 403.732 431.332 400.337V387.196C431.332 383.8 428.579 381.048 425.184 381.048Z" fill="#F6F4FF"/>
<path d="M122.434 355.565H86.3926C82.9972 355.565 80.2448 358.317 80.2448 361.713V370.289C80.2448 373.684 82.9972 376.437 86.3926 376.437H122.434C125.83 376.437 128.582 373.684 128.582 370.289V361.713C128.582 358.317 125.83 355.565 122.434 355.565Z" fill="#FFC436"/>
<path d="M172.385 355.565H139.341C135.945 355.565 133.193 358.317 133.193 361.713V370.289C133.193 373.684 135.945 376.437 139.341 376.437H172.385C175.781 376.437 178.533 373.684 178.533 370.289V361.713C178.533 358.317 175.781 355.565 172.385 355.565Z" fill="#FFC436"/>
<path d="M172.385 471.19H139.341C135.945 471.19 133.193 473.943 133.193 477.338V490.479C133.193 493.875 135.945 496.627 139.341 496.627H172.385C175.781 496.627 178.533 493.875 178.533 490.479V477.338C178.533 473.943 175.781 471.19 172.385 471.19Z" fill="#F6F4FF"/>
<path d="M222.352 355.565H189.307C185.912 355.565 183.159 358.317 183.159 361.713V370.289C183.159 373.684 185.912 376.437 189.307 376.437H222.352C225.747 376.437 228.5 373.684 228.5 370.289V361.713C228.5 358.317 225.747 355.565 222.352 355.565Z" fill="#FFC436"/>
<path d="M222.352 411.095H189.307C185.912 411.095 183.159 413.848 183.159 417.243V430.384C183.159 433.779 185.912 436.532 189.307 436.532H222.352C225.747 436.532 228.5 433.779 228.5 430.384V417.243C228.5 413.848 225.747 411.095 222.352 411.095Z" fill="#F6F4FF"/>
<path d="M172.385 501.222H139.341C135.945 501.222 133.193 503.975 133.193 507.37V520.511C133.193 523.906 135.945 526.659 139.341 526.659H172.385C175.781 526.659 178.533 523.906 178.533 520.511V507.37C178.533 503.975 175.781 501.222 172.385 501.222Z" fill="#F6F4FF"/>
<path d="M222.352 381.048H189.307C185.912 381.048 183.159 383.8 183.159 387.196V400.337C183.159 403.732 185.912 406.484 189.307 406.484H222.352C225.747 406.484 228.5 403.732 228.5 400.337V387.196C228.5 383.8 225.747 381.048 222.352 381.048Z" fill="#F6F4FF"/>
<path d="M172.908 381.447H139.863C136.468 381.447 133.715 384.2 133.715 387.595V400.736C133.715 404.131 136.468 406.884 139.863 406.884H172.908C176.303 406.884 179.056 404.131 179.056 400.736V387.595C179.056 384.2 176.303 381.447 172.908 381.447Z" fill="#F6F4FF"/>
<path d="M222.352 441.143H189.307C185.912 441.143 183.159 443.895 183.159 447.29V460.431C183.159 463.827 185.912 466.579 189.307 466.579H222.352C225.747 466.579 228.5 463.827 228.5 460.431V447.29C228.5 443.895 225.747 441.143 222.352 441.143Z" fill="#F6F4FF"/>
<path d="M172.385 441.143H139.341C135.945 441.143 133.193 443.895 133.193 447.29V460.431C133.193 463.827 135.945 466.579 139.341 466.579H172.385C175.781 466.579 178.533 463.827 178.533 460.431V447.29C178.533 443.895 175.781 441.143 172.385 441.143Z" fill="#F6F4FF"/>
<path d="M172.385 531.27H139.341C135.945 531.27 133.193 534.022 133.193 537.418V552.004C133.193 555.399 135.945 558.151 139.341 558.151H172.385C175.781 558.151 178.533 555.399 178.533 552.004V537.418C178.533 534.022 175.781 531.27 172.385 531.27Z" fill="#F6F4FF"/>
<path d="M172.385 411.095H139.341C135.945 411.095 133.193 413.848 133.193 417.243V430.384C133.193 433.779 135.945 436.532 139.341 436.532H172.385C175.781 436.532 178.533 433.779 178.533 430.384V417.243C178.533 413.848 175.781 411.095 172.385 411.095Z" fill="#F6F4FF"/>
<path d="M222.352 531.27H189.307C185.912 531.27 183.159 534.022 183.159 537.418V552.004C183.159 555.399 185.912 558.151 189.307 558.151H222.352C225.747 558.151 228.5 555.399 228.5 552.004V537.418C228.5 534.022 225.747 531.27 222.352 531.27Z" fill="#F6F4FF"/>
<path d="M87.8508 337C90.3262 337 92.3329 334.993 92.3329 332.518C92.3329 330.042 90.3262 328.036 87.8508 328.036C85.3753 328.036 83.3686 330.042 83.3686 332.518C83.3686 334.993 85.3753 337 87.8508 337Z" fill="#F6F4FF" fill-opacity="0.3"/>
<path d="M108.469 332.528C108.471 331.641 108.21 330.773 107.718 330.034C107.226 329.296 106.526 328.719 105.707 328.379C104.887 328.038 103.985 327.949 103.115 328.121C102.244 328.294 101.445 328.721 100.817 329.348C100.19 329.976 99.7627 330.776 99.5901 331.646C99.4175 332.516 99.5072 333.418 99.8477 334.238C100.188 335.057 100.764 335.757 101.503 336.249C102.242 336.741 103.11 337.002 103.997 337C105.183 337 106.321 336.529 107.159 335.69C107.998 334.852 108.469 333.714 108.469 332.528Z" fill="#F6F4FF" fill-opacity="0.3"/>
<path d="M124.605 332.528C124.607 331.641 124.345 330.773 123.854 330.034C123.362 329.296 122.662 328.719 121.843 328.379C121.023 328.038 120.121 327.949 119.251 328.121C118.38 328.294 117.581 328.721 116.953 329.348C116.326 329.976 115.898 330.776 115.726 331.646C115.553 332.516 115.643 333.418 115.983 334.238C116.324 335.057 116.9 335.757 117.639 336.249C118.378 336.741 119.246 337.002 120.133 337C121.319 337 122.456 336.529 123.295 335.69C124.133 334.852 124.605 333.714 124.605 332.528Z" fill="#F6F4FF" fill-opacity="0.3"/>
<rect x="195.957" y="443.676" width="6.27504" height="8.96435" rx="3.13752" fill="#D4CAFF"/>
<rect x="204.025" y="443.676" width="6.27504" height="8.96435" rx="3.13752" fill="#D4CAFF"/>
<rect x="212.093" y="443.676" width="6.27504" height="8.96435" rx="3.13752" fill="#D4CAFF"/>
<rect x="221.057" y="443.676" width="6.27504" height="8.96435" rx="3.13752" fill="#D4CAFF"/>
<rect x="101.832" y="415.886" width="6.27504" height="8.96435" rx="3.13752" fill="#D4CAFF"/>
<rect x="109.9" y="415.886" width="6.27504" height="8.96435" rx="3.13752" fill="#D4CAFF"/>
<rect x="117.967" y="415.886" width="6.27504" height="8.96435" rx="3.13752" fill="#D4CAFF"/>
<rect x="126.932" y="415.886" width="6.27504" height="8.96435" rx="3.13752" fill="#D4CAFF"/>
<rect x="334.008" y="443.676" width="6.27504" height="8.96435" rx="3.13752" fill="#D4CAFF"/>
<rect x="342.076" y="443.676" width="6.27504" height="8.96435" rx="3.13752" fill="#D4CAFF"/>
<rect x="350.144" y="443.676" width="6.27504" height="8.96435" rx="3.13752" fill="#D4CAFF"/>
<rect x="359.108" y="443.676" width="6.27504" height="8.96435" rx="3.13752" fill="#D4CAFF"/>
</g>
<path d="M332.167 631.86C332.167 631.86 327.418 658.511 326.695 673.85C325.973 689.188 329.616 700.131 331.076 715.47C332.536 730.809 342.019 789.582 342.019 794.331C342.284 798.768 340.996 803.159 338.376 806.75C335.456 810.762 325.958 814.435 326.695 815.864C327.433 817.294 331.798 819.522 339.467 816.971C347.137 814.419 347.506 811.853 350.426 811.853C353.346 811.853 359.556 810.024 358.449 805.705C357.342 801.386 351.932 792.21 352.301 776.134C353.023 738.893 351.194 674.695 351.194 674.695L362.875 638.914L332.167 631.86Z" fill="white" stroke="#212121" stroke-width="1.53696" stroke-linecap="round" stroke-linejoin="round"/>
<path d="M338.776 806.15L338.376 806.75C335.456 810.761 325.958 814.435 326.695 815.864C327.433 817.293 331.798 819.522 339.468 816.97C347.137 814.419 347.506 811.852 350.426 811.852C353.346 811.852 359.556 810.023 358.449 805.705C358.111 804.321 357.327 802.462 356.436 800.064C352.93 802.736 349.208 805.111 345.308 807.165C343.571 807.81 340.989 807.088 338.776 806.15Z" fill="#212121" stroke="#212121" stroke-width="1.53696" stroke-linecap="round" stroke-linejoin="round"/>
<path d="M364.551 474.475C364.551 474.475 362.829 468.604 361.646 463.378C360.462 458.153 369.331 455.893 379.059 454.925C388.788 453.957 402.544 461.211 406.602 472.739C410.659 484.266 407.247 526.932 407.662 536.246C408.077 545.559 408.999 571.365 399.547 572.979C390.095 574.593 380.151 575.223 371.882 559.023C363.613 542.824 372.681 500.219 373.665 491.658C374.648 483.098 365.042 475.72 365.042 475.72L364.551 474.475Z" fill="#212121" stroke="#212121" stroke-width="1.53696" stroke-linecap="round" stroke-linejoin="round"/>
<path d="M385.33 462.364C385.33 462.364 384.685 472.139 391.201 477.35C397.718 482.56 406.171 494.932 406.171 504.707" stroke="white" stroke-width="0.768478" stroke-linecap="round" stroke-linejoin="round"/>
<path d="M397.718 489.076C397.718 489.076 402.329 505.983 398.364 520.338" stroke="white" stroke-width="0.768478" stroke-linecap="round" stroke-linejoin="round"/>
<path d="M347.567 636.44C347.567 636.44 339.883 671.175 346.968 701.192C348.904 709.399 378.768 783.019 381.119 794.792C383.471 806.566 383.471 817.171 388.189 821.29C392.907 825.409 395.874 823.641 393.476 810.101C391.867 802.539 389.284 795.219 385.791 788.322C385.791 788.322 376.954 731.808 375.77 719.451C374.587 707.094 367.532 692.37 367.532 692.37L378.721 644.094L347.567 636.44Z" fill="white" stroke="#212121" stroke-width="1.53696" stroke-linecap="round" stroke-linejoin="round"/>
<path d="M391.954 803.722C391.386 806.796 390.156 809.455 387.59 808.948C386.388 808.718 385.28 808.139 384.405 807.284C383.531 806.428 382.927 805.334 382.671 804.137C383.824 811.914 384.762 818.323 388.189 821.305C392.892 825.424 395.874 823.656 393.476 810.116C393.091 807.957 392.583 805.823 391.954 803.722Z" fill="#212121" stroke="#212121" stroke-width="1.53696" stroke-linecap="round" stroke-linejoin="round"/>
<path d="M382.302 800.648H382.164C382.164 800.925 382.241 801.201 382.287 801.463C382.278 801.191 382.284 800.919 382.302 800.648Z" fill="#212121" stroke="#212121" stroke-width="1.53696" stroke-linecap="round" stroke-linejoin="round"/>
<path d="M358.218 517.372C354.534 518.255 351.319 520.494 349.212 523.642C346.138 528.73 317.504 550.262 314.769 552.599C312.033 554.935 312.417 566.692 319.38 566.692C326.342 566.692 349.919 548.695 349.919 548.695C349.919 548.695 356.958 540.072 359.31 532.249C361.661 524.426 363.306 518.155 358.218 517.372Z" fill="white" stroke="#212121" stroke-width="1.53696" stroke-linecap="round" stroke-linejoin="round"/>
<path d="M366.041 497.422C363.306 497.422 360.601 503.846 360.601 503.846L358.018 504.231C360.339 501.479 363.306 497.422 363.306 497.422C365.642 493.503 364.843 487.631 363.306 488.031C361.769 488.431 351.563 492.335 349.996 494.286C348.428 496.238 343.725 511.9 342.172 513.468C340.62 515.035 314.769 547.911 312.033 554.965C309.297 562.02 316.721 570.627 322.991 566.324C329.262 562.02 334.734 548.695 337.101 539.365C339.467 530.036 349.242 512.346 349.242 512.346C349.242 512.346 351.517 510.501 353.853 508.442C356.406 507.799 358.92 507.014 361.384 506.09C362.921 505.306 367.256 499.82 367.256 499.82C367.256 499.82 368.777 497.422 366.041 497.422Z" fill="white" stroke="#212121" stroke-width="1.53696" stroke-linecap="round" stroke-linejoin="round"/>
<path d="M359.463 484.758L351.532 497.33C351.109 498.002 350.946 498.806 351.073 499.59C351.2 500.374 351.61 501.084 352.224 501.587L355.836 504.554C356.187 504.84 356.594 505.051 357.031 505.171C357.469 505.291 357.926 505.319 358.374 505.252C358.823 505.186 359.252 505.027 359.636 504.785C360.019 504.542 360.348 504.223 360.601 503.847L369.008 491.382C369.475 490.686 369.657 489.837 369.517 489.011C369.377 488.185 368.925 487.444 368.255 486.94L364.166 483.866C363.805 483.599 363.392 483.409 362.954 483.308C362.516 483.208 362.061 483.199 361.62 483.283C361.178 483.367 360.758 483.541 360.387 483.795C360.016 484.049 359.701 484.377 359.463 484.758Z" fill="#212121" stroke="black" stroke-width="1.53696" stroke-linecap="round" stroke-linejoin="round"/>
<path d="M386.621 490.475C386.621 490.475 384.331 505.153 383.686 510.763C383.04 516.373 383.209 517.587 387.928 518.125C392.646 518.663 400.439 521.061 403.497 528.284C406.556 535.508 388.788 557.379 383.517 562.097C378.245 566.816 375.893 573.179 377.061 578.158C378.23 583.138 392.016 599.245 391.417 615.583C390.817 631.921 371.067 679.551 371.067 679.551C371.067 679.551 344.739 668.885 325.727 672.451C325.727 672.451 334.703 609.343 340.036 592.713C345.369 576.084 350.795 567.077 350.365 563.511C349.934 559.945 343.295 549.54 344.908 540.749C346.522 531.958 352.194 524.257 354.837 519.477C357.481 514.698 363.152 514.759 365.212 514.99C367.271 515.22 370.191 515.866 371.651 513.637C373.112 511.408 374.418 499.912 374.418 499.912L386.621 490.475Z" fill="#212121" stroke="#212121" stroke-width="1.53696" stroke-linecap="round" stroke-linejoin="round"/>
<path d="M356.036 554.197L367.747 562.666" stroke="#212121" stroke-width="1.53696" stroke-linecap="round" stroke-linejoin="round"/>
<path d="M366.871 590.808C366.871 590.808 355.129 613.216 352.47 629.232" stroke="#212121" stroke-width="1.53696" stroke-linecap="round" stroke-linejoin="round"/>
<path d="M353.008 613.754C353.008 613.754 349.796 627.587 348.197 639.883" stroke="#212121" stroke-width="1.53696" stroke-linecap="round" stroke-linejoin="round"/>
<path d="M399.317 523.996C399.317 523.996 395.397 525.963 391.094 532.618C386.79 539.273 382.871 550.616 383.655 553.352C384.439 556.088 391.878 551.4 391.878 551.4C391.878 551.4 399.732 586.612 406.74 583.891C420.834 578.404 402.052 526.747 402.052 526.747C402.052 526.747 402.052 524.811 399.317 523.996Z" fill="white" stroke="#212121" stroke-width="1.53696" stroke-linecap="round" stroke-linejoin="round"/>
<path d="M369.054 528.807C361.092 526.84 363.213 519.247 365.196 514.974H365.273C367.348 515.22 370.253 515.85 371.713 513.622C373.173 511.393 374.479 499.897 374.479 499.897L386.621 490.537C386.621 490.537 384.331 505.215 383.686 510.824C383.04 516.434 383.209 517.649 387.928 518.186C387.928 518.125 380.397 531.681 369.054 528.807Z" fill="white" stroke="#212121" stroke-width="1.53696" stroke-linecap="round" stroke-linejoin="round"/>
<path d="M375.878 461.734C375.131 465.906 375.573 470.204 377.154 474.137C379.782 479.824 390.986 486.433 390.986 486.433C390.986 486.433 395.397 481.822 396.043 486.725C396.688 491.628 394.613 496.423 391.34 496.346C388.066 496.269 387.59 492.627 387.59 492.627C384.686 496.849 380.422 499.947 375.509 501.403C366.81 504.277 362.383 503.77 361.354 497.084C360.324 490.398 361.523 482.744 364.566 474.429C367.609 466.114 374.664 461.888 375.878 461.734Z" fill="white" stroke="#212121" stroke-width="1.53696" stroke-linecap="round" stroke-linejoin="round"/>
<path d="M408.308 518.94L408.707 512.684C410.641 510.968 412.469 509.136 414.179 507.197C416.53 504.461 418.098 500.542 420.05 502.11C422.002 503.678 417.314 508.381 417.314 508.381L416.915 511.455L424.753 509.118C424.753 509.118 432.192 501.68 432.576 503.632C432.96 505.583 428.657 512.238 425.537 515.773C422.417 519.308 413.011 520.384 413.011 520.384C413.011 520.384 412.611 551.692 412.611 561.098C412.611 570.504 411.443 581.079 408.707 583.015C405.972 584.952 397.349 583.4 399.317 568.138C401.284 552.876 408.308 518.94 408.308 518.94Z" fill="white" stroke="#212121" stroke-width="1.53696" stroke-linecap="round" stroke-linejoin="round"/>
<path d="M391.878 551.431L389.526 543.992" stroke="#212121" stroke-width="1.53696" stroke-linecap="round" stroke-linejoin="round"/>
<path d="M173.979 461.437C173.979 461.437 181.034 470.382 181.756 472.349C182.266 473.782 182.687 475.245 183.017 476.73L187.628 480.142C187.773 480.246 187.895 480.379 187.986 480.533C188.078 480.686 188.137 480.857 188.16 481.034C188.183 481.211 188.17 481.391 188.12 481.563C188.071 481.734 187.987 481.894 187.874 482.032L184.385 486.32C184.385 486.32 187.628 497.079 187.459 498.616C187.289 500.153 176.024 503.98 176.024 503.98L174.978 512.218L153.615 511.941L153.538 496.679L145.008 476.699C145.008 476.699 152.646 462.282 173.979 461.437Z" fill="white" stroke="#212121" stroke-width="1.53696" stroke-linecap="round" stroke-linejoin="round"/>
<path d="M170.291 491.546L173.165 491.238C173.458 492.517 174.01 493.723 174.788 494.78C175.565 495.837 176.55 496.724 177.683 497.386" fill="white"/>
<path d="M170.291 491.546L173.165 491.238C173.458 492.517 174.01 493.723 174.788 494.78C175.565 495.837 176.55 496.724 177.683 497.386" stroke="#212121" stroke-width="1.53696" stroke-linecap="round" stroke-linejoin="round"/>
<path d="M149.542 461.944C149.542 461.944 141.473 462.328 141.519 473.502C141.565 484.676 152.877 495.019 153.492 496.664C154.107 498.308 160.162 497.54 164.42 495.957C166.801 495.181 168.852 493.627 170.245 491.546C170.245 491.546 166.172 485.613 167.002 483.861C167.832 482.109 172.197 483.784 172.197 483.784C173.163 483.236 174.035 482.535 174.779 481.709C175.516 480.68 179.466 476.238 176.731 473.902C173.995 471.565 169.737 470.151 171.628 467.2C173.518 464.25 180.281 461.375 178.298 455.028C176.316 448.68 171.889 448.88 168.2 450.955C164.512 453.03 163.497 446.344 156.32 450.14C149.142 453.937 147.129 459.485 149.542 461.944Z" fill="#212121" stroke="#212121" stroke-width="1.53696" stroke-linecap="round" stroke-linejoin="round"/>
<path d="M158.979 483.831C158.826 485.014 158.826 486.213 158.979 487.396" stroke="white" stroke-width="0.768478" stroke-linecap="round" stroke-linejoin="round"/>
<path d="M171.428 465.879C171.428 465.879 169.891 468.722 163.743 474.24C161.589 476.173 160.058 478.704 159.348 481.51" stroke="white" stroke-width="0.768478" stroke-linecap="round" stroke-linejoin="round"/>
<path d="M172.873 471.52C172.873 471.52 166.618 480.004 163.328 482.524" stroke="white" stroke-width="0.768478" stroke-linecap="round" stroke-linejoin="round"/>
<path d="M240.594 470.676C240.594 472.966 245.817 482.816 245.817 482.816L234.074 512.879L231.031 532.736C231.031 532.736 240.745 537.578 242.789 534.827C244.833 532.076 245.602 530.124 248.675 520.733C251.749 511.342 252.917 484.03 252.917 484.03" stroke="#212121" stroke-width="1.53696" stroke-linecap="round" stroke-linejoin="round"/>
<path d="M242.809 476.971C242.374 475.916 241.49 474.71 241.181 473.611C240.49 472.29 240.483 470.476 240.605 469.896C240.778 468.982 241.895 467.132 242.809 467.132C243.618 467.085 244.42 466.962 245.206 466.766C246.407 465.233 247.516 463.631 248.528 461.968C248.894 461.043 250.194 457.17 251.849 457.17C253.505 457.17 252.581 460.86 252.215 461.968C251.849 463.076 251.839 463.432 252.581 463.808C253.322 464.184 255.902 463.625 256.827 466.024C257.751 468.422 258.858 468.422 259.224 469.53C259.558 471.332 259.364 473.193 258.665 474.887C257.934 476.727 253.666 483.034 252.924 483.593" stroke="#212121" stroke-width="1.53839" stroke-linecap="round" stroke-linejoin="round"/>
<path d="M180.388 802.933L199.493 809.88C199.94 810.033 200.351 810.278 200.699 810.599C201.046 810.92 201.323 811.31 201.511 811.744C201.699 812.178 201.795 812.646 201.791 813.119C201.788 813.592 201.685 814.06 201.491 814.491C201.228 815.017 200.77 815.419 200.215 815.613C197.787 816.489 172.55 825.142 165.188 822.022C164.437 821.644 163.803 821.067 163.356 820.354C162.909 819.642 162.666 818.821 162.652 817.98C162.896 812.309 163.517 806.661 164.512 801.073C164.512 801.073 173.887 805.515 180.388 802.933Z" fill="#212121" stroke="#212121" stroke-width="1.53696" stroke-linecap="round" stroke-linejoin="round"/>
<path d="M201.522 814.507C201.723 814.106 201.835 813.665 201.848 813.216C201.861 812.768 201.776 812.321 201.599 811.909C196.311 814.476 185.076 819.287 174.84 819.471C170.774 819.721 166.694 819.374 162.729 818.441C162.827 819.196 163.104 819.916 163.537 820.542C163.97 821.168 164.547 821.681 165.219 822.038C172.627 825.112 197.818 816.505 200.246 815.629C200.801 815.435 201.259 815.032 201.522 814.507Z" fill="white" stroke="#212121" stroke-width="1.53696" stroke-linecap="round" stroke-linejoin="round"/>
<path d="M127.425 797.123C127.425 797.123 125.704 812.969 126.626 814.537C127.548 816.105 130.299 817.165 135.033 816.858C136.484 816.826 137.888 816.338 139.047 815.464C140.206 814.589 141.06 813.373 141.488 811.986C141.919 810.848 140.812 800.489 140.781 798.676C140.751 796.862 127.425 797.123 127.425 797.123Z" fill="#212121" stroke="#212121" stroke-width="1.53696" stroke-linecap="round" stroke-linejoin="round"/>
<path d="M141.534 809.02C140.074 811.832 138.215 813.63 133.389 813.723C130.907 813.823 128.452 813.169 126.349 811.848C126.278 812.753 126.372 813.665 126.626 814.537C127.563 816.074 130.299 817.165 135.033 816.858C136.484 816.826 137.888 816.338 139.047 815.464C140.206 814.589 141.06 813.373 141.488 811.986C141.622 811.002 141.638 810.007 141.534 809.02Z" fill="white" stroke="#212121" stroke-width="1.53696" stroke-linecap="round" stroke-linejoin="round"/>
<path d="M190.609 614.794C186.123 617.013 181.393 618.7 176.515 619.82L134.142 610.03C134.142 610.03 131.329 633.791 131.406 637.879C131.483 641.968 132.943 715.542 132.943 715.542L127.164 798.23C127.763 799.463 128.709 800.495 129.885 801.199C131.062 801.904 132.418 802.25 133.788 802.195C136.6 802.182 139.377 801.569 141.934 800.397L160.101 714.328L164.143 805.7C164.143 805.7 166.648 808.113 172.366 807.99C174.039 807.934 175.669 807.437 177.088 806.549C178.508 805.661 179.668 804.414 180.45 802.933C180.45 802.933 183.263 767.583 187.459 742.285C191.654 716.987 192.162 647.347 192.162 647.347L190.609 614.794Z" fill="white" stroke="#212121" stroke-width="1.53696" stroke-linecap="round" stroke-linejoin="round"/>
<path d="M150.31 627.259C155.868 628.464 161.531 629.117 167.217 629.211" stroke="#212121" stroke-width="1.53696" stroke-linecap="round" stroke-linejoin="round"/>
<path d="M134.602 622.694C134.602 622.694 136.57 625.307 141.78 625.307" stroke="#212121" stroke-width="1.53696" stroke-linecap="round" stroke-linejoin="round"/>
<path d="M177.591 780.955C177.591 780.955 181.495 734.062 184.108 700.203C185.685 680.26 185.9 660.234 184.754 640.262C184.754 640.262 191.27 633.1 186.705 620.727" stroke="#212121" stroke-width="1.53696" stroke-linecap="round" stroke-linejoin="round"/>
<path d="M177.591 786.165L175.639 801.15" stroke="#212121" stroke-width="1.53696" stroke-linecap="round" stroke-linejoin="round"/>
<path d="M160.055 714.343L155.413 652.957L144.577 642.537" stroke="#212121" stroke-width="1.53696" stroke-linecap="round" stroke-linejoin="round"/>
<path d="M137.354 581.104C137.578 580.406 137.569 579.653 137.328 578.959C137.086 578.266 136.626 577.671 136.017 577.262C131.313 574.08 119.909 567.533 116.267 576.155C115.202 579.52 114.461 582.978 114.053 586.484C113.039 593.385 113.408 640.108 113.454 644.888C113.455 645.147 113.424 645.405 113.362 645.656C112.962 647.485 111.287 655.478 112.455 660.242C113.761 665.668 116.267 669.848 120.524 671.001C124.781 672.154 127.102 667.235 126.441 664.223C125.78 661.21 127.364 658.874 126.703 655.862C126.165 653.433 123.859 647.086 122.983 644.734C122.772 644.154 122.719 643.528 122.829 642.921C124.028 636.773 130.745 602.299 131.252 600.639C131.759 598.979 135.694 586.468 137.354 581.104Z" fill="white" stroke="#212121" stroke-width="1.53696" stroke-linecap="round" stroke-linejoin="round"/>
<path d="M119.248 661.272C119.248 661.272 124.674 665.068 125.304 668.573" stroke="#212121" stroke-width="1.53696" stroke-linecap="round" stroke-linejoin="round"/>
<path d="M120.97 658.121C120.97 658.121 125.273 660.934 126.426 663.147" stroke="#212121" stroke-width="1.53696" stroke-linecap="round" stroke-linejoin="round"/>
<path d="M121.754 654.94L123.29 657.061C123.29 657.061 124.059 665.514 126.457 664.254C128.854 662.993 127.44 652.742 127.44 652.742C127.44 652.742 126.226 650.237 122.476 644.258" fill="white"/>
<path d="M121.754 654.94L123.29 657.061C123.29 657.061 124.059 665.514 126.457 664.254C128.854 662.993 127.44 652.742 127.44 652.742C127.44 652.742 126.226 650.237 122.476 644.258" stroke="#212121" stroke-width="1.53696" stroke-linecap="round" stroke-linejoin="round"/>
<path d="M121.477 646.102C122.306 649.131 122.231 652.337 121.262 655.324C119.878 657.925 118.338 660.44 116.651 662.855C118.905 665.01 121.015 667.31 122.968 669.74" stroke="#212121" stroke-width="1.53696" stroke-linecap="round" stroke-linejoin="round"/>
<path d="M124.182 525.651L110.242 576.877C110.242 576.877 121.907 586.33 136.37 586.099L145.699 537.47C145.699 537.47 135.279 514.062 124.182 525.651Z" fill="#212121" stroke="#212121" stroke-width="1.53696" stroke-linecap="round" stroke-linejoin="round"/>
<path d="M147.236 508.852C147.236 508.852 126.764 519.026 124.843 523.637C123.306 527.48 128.009 554.684 128.101 559.464C128.194 564.244 132.282 605.311 133.388 613.257C134.495 621.203 161.054 624.585 171.167 621.526C181.28 618.467 190.671 617.299 190.609 614.748C190.548 612.197 189.195 590.587 189.749 586.453C190.302 582.318 194.59 551.302 194.59 551.302L233.183 543.31C233.183 543.31 234.966 542.234 235.012 535.257C235.018 528.67 234.679 522.088 233.998 515.537C228.999 516.737 223.829 517.059 218.72 516.49C209.406 515.66 198.371 513.155 196.404 513.709C194.436 514.262 181.034 511.465 176.623 510.911C170.491 510.081 154.921 504.886 147.236 508.852Z" fill="#212121" stroke="#212121" stroke-width="1.53696" stroke-linecap="round" stroke-linejoin="round"/>
<path d="M130.053 583.625L124.689 538.638" stroke="white" stroke-width="0.768478" stroke-linecap="round" stroke-linejoin="round"/>
<path d="M126.149 558.219L123.537 552.363" stroke="white" stroke-width="0.768478" stroke-linecap="round" stroke-linejoin="round"/>
<path d="M194.59 551.226L179.543 553.654" stroke="white" stroke-width="0.768478" stroke-linecap="round" stroke-linejoin="round"/>
<path d="M191.27 552.363L180.204 562.784" stroke="white" stroke-width="0.768478" stroke-linecap="round" stroke-linejoin="round"/>
<path d="M225.129 517.843C225.129 517.843 214.709 533.474 189.318 539.361" stroke="white" stroke-width="0.768478" stroke-linecap="round" stroke-linejoin="round"/>
</g>
<defs>
<filter id="filter0_d_100_733" x="63.7838" y="320.195" width="402.05" height="272.223" filterUnits="userSpaceOnUse" color-interpolation-filters="sRGB">
<feFlood flood-opacity="0" result="BackgroundImageFix"/>
<feColorMatrix in="SourceAlpha" type="matrix" values="0 0 0 0 0 0 0 0 0 0 0 0 0 0 0 0 0 0 127 0" result="hardAlpha"/>
<feOffset dx="11" dy="11"/>
<feGaussianBlur stdDeviation="1.1"/>
<feComposite in2="hardAlpha" operator="out"/>
<feColorMatrix type="matrix" values="0 0 0 0 0 0 0 0 0 0 0 0 0 0 0 0 0 0 0.17 0"/>
<feBlend mode="normal" in2="BackgroundImageFix" result="effect1_dropShadow_100_733"/>
<feBlend mode="normal" in="SourceGraphic" in2="effect1_dropShadow_100_733" result="shape"/>
</filter>
<clipPath id="clip0_100_733">
<rect width="534.861" height="826.634" fill="white"/>
</clipPath>
</defs>
</svg>
