<svg width="88" height="79" viewBox="0 0 88 79" fill="none" xmlns="http://www.w3.org/2000/svg">
<ellipse cx="44" cy="39.4007" rx="44" ry="39.3412" fill="#FFEEE5"/>
<g clip-path="url(#clip0_104_4743)" filter="url(#filter0_d_104_4743)">
<path d="M44.0307 28.6299L33.6407 33.9946V44.7239L44.0307 50.0887L54.4208 44.7239V33.9946L44.0307 28.6299ZM40.0186 41.0505L39.0236 41.9403L36.1371 39.3593L39.0236 36.7785L40.0186 37.6681L38.1271 39.3593L40.0186 41.0505ZM43.004 42.6022L41.7453 42.0395L45.0575 36.1164L46.3162 36.6791L43.004 42.6022ZM49.0379 41.9402L48.0427 41.0505L49.9343 39.3593L48.0427 37.6681L49.0379 36.7783L51.9243 39.3593L49.0379 41.9402Z" fill="#FF5600"/>
</g>
<defs>
<filter id="filter0_d_104_4743" x="17" y="23.6719" width="54" height="51.459" filterUnits="userSpaceOnUse" color-interpolation-filters="sRGB">
<feFlood flood-opacity="0" result="BackgroundImageFix"/>
<feColorMatrix in="SourceAlpha" type="matrix" values="0 0 0 0 0 0 0 0 0 0 0 0 0 0 0 0 0 0 127 0" result="hardAlpha"/>
<feOffset dy="10"/>
<feGaussianBlur stdDeviation="7.5"/>
<feColorMatrix type="matrix" values="0 0 0 0 1 0 0 0 0 0.337255 0 0 0 0 0 0 0 0 0.2 0"/>
<feBlend mode="normal" in2="BackgroundImageFix" result="effect1_dropShadow_104_4743"/>
<feBlend mode="normal" in="SourceGraphic" in2="effect1_dropShadow_104_4743" result="shape"/>
</filter>
<clipPath id="clip0_104_4743">
<rect width="24" height="21.4588" fill="white" transform="translate(32 28.6719)"/>
</clipPath>
</defs>
</svg>
