<svg width="45" height="45" viewBox="0 0 45 45" fill="none" xmlns="http://www.w3.org/2000/svg">
<g clip-path="url(#clip0_104_5114)">
<path d="M43.8852 25.9772L26.4276 43.4575C25.3976 44.4857 24.0453 45 22.6933 45C21.3416 45 19.9906 44.4864 18.9617 43.4592L1.29776 25.9875C0.115014 24.8064 -0.234832 23.0545 0.400658 21.5178C1.03718 19.9797 2.52479 18.9857 4.19094 18.9857H10.0171V13.8877C10.0171 12.9168 10.8044 12.1296 11.7753 12.1296C12.7462 12.1296 13.5331 12.9168 13.5331 13.8877V20.7436C13.5331 21.7145 12.7462 22.5014 11.7753 22.5014H4.19094C3.84968 22.5014 3.70514 22.7273 3.64952 22.8622C3.58189 23.0253 3.54927 23.267 3.77586 23.4936L21.4402 40.9653C22.134 41.6584 23.2536 41.6584 23.9419 40.9711L41.3975 23.4929C41.6237 23.2663 41.5908 23.0246 41.5232 22.8615C41.4675 22.7273 41.323 22.5014 40.9817 22.5014H33.7493C32.7784 22.5014 31.9915 21.7145 31.9915 20.7436V13.8874C31.9915 12.9165 32.7784 12.1296 33.7493 12.1296C34.7202 12.1296 35.5071 12.9165 35.5071 13.8874V18.9854H40.9817C42.6465 18.9854 44.1338 19.9783 44.771 21.515C45.4072 23.0497 45.0597 24.8013 43.8852 25.9772V25.9772ZM11.7753 3.51597C12.7462 3.51597 13.5331 2.72873 13.5331 1.75781C13.5331 0.786896 12.7462 0 11.7753 0C10.8044 0 10.0171 0.786896 10.0171 1.75781C10.0171 2.72873 10.8044 3.51597 11.7753 3.51597ZM11.7753 9.66866C12.7462 9.66866 13.5331 8.88142 13.5331 7.9105C13.5331 6.93993 12.7462 6.15269 11.7753 6.15269C10.8044 6.15269 10.0171 6.93993 10.0171 7.9105C10.0171 8.88142 10.8044 9.66866 11.7753 9.66866ZM33.7493 3.51597C34.7202 3.51597 35.5071 2.72873 35.5071 1.75781C35.5071 0.786896 34.7202 0 33.7493 0C32.7784 0 31.9915 0.786896 31.9915 1.75781C31.9915 2.72873 32.7784 3.51597 33.7493 3.51597ZM33.7493 9.66866C34.7202 9.66866 35.5071 8.88142 35.5071 7.9105C35.5071 6.93993 34.7202 6.15269 33.7493 6.15269C32.7784 6.15269 31.9915 6.93993 31.9915 7.9105C31.9915 8.88142 32.7784 9.66866 33.7493 9.66866ZM23.6968 26.3689H21.079C20.6601 26.3689 20.2097 26.1282 20.2097 25.5999C20.2097 24.6289 19.4224 23.842 18.4519 23.842C17.481 23.842 16.6937 24.6289 16.6937 25.5999C16.6937 27.9489 18.535 29.799 20.9145 29.8808V30.8517C20.9145 31.8226 21.7014 32.6095 22.6723 32.6095C23.6433 32.6095 24.4305 31.8226 24.4305 30.8517V29.8337C26.8485 29.4973 28.6513 27.5173 28.6513 25.0505V23.9818C28.6513 22.6535 28.1312 21.4124 27.187 20.4878C26.2563 19.5756 25.0165 19.0736 23.6968 19.0736H22.0859C21.3117 19.0736 20.6574 18.3891 20.6574 17.5792V16.9382C20.6574 16.1513 21.2716 15.5577 22.0859 15.5577H23.6093C24.057 15.5577 24.5201 15.8574 24.5201 16.359C24.5201 17.3299 25.3073 18.1168 26.2779 18.1168C27.2488 18.1168 28.0361 17.3299 28.0361 16.359C28.0361 14.252 26.4801 12.4942 24.4305 12.1176V10.987C24.4305 10.0161 23.6436 9.2292 22.6727 9.2292C21.7018 9.2292 20.9145 10.0161 20.9145 10.987V12.178C20.0445 12.3833 19.2477 12.8169 18.6012 13.4493C17.6598 14.3705 17.1414 15.6095 17.1414 16.9382V17.5792C17.1414 20.3419 19.3596 22.5893 22.0859 22.5893H23.6968C24.5036 22.5893 25.1353 23.2011 25.1353 23.9818V25.0505C25.1353 25.9161 24.4116 26.3689 23.6968 26.3689V26.3689Z" fill="white"/>
</g>
<defs>
<clipPath id="clip0_104_5114">
<rect width="45" height="45" fill="white"/>
</clipPath>
</defs>
</svg>
