<svg width="95" height="100" viewBox="0 0 95 100" fill="none" xmlns="http://www.w3.org/2000/svg">
<g filter="url(#filter0_d_104_5083)">
<circle cx="47.5" cy="32.5" r="32.5" fill="#00D9FF"/>
</g>
<g clip-path="url(#clip0_104_5083)">
<path d="M45.3632 26.2126V29.8488L45.6207 30.1063C45.703 30.1885 47.68 32.1214 51.5156 32.1214C55.3512 32.1214 57.3282 30.1885 57.4105 30.1062L57.6679 29.8488V26.2126L59.4257 25.5094V30.3636H61.1836V24.8063L62.6712 24.2113L51.5156 19.749L40.36 24.2113L45.3632 26.2126ZM55.9101 29.0751C55.3506 29.4929 53.8985 30.3636 51.5156 30.3636C49.1326 30.3636 47.6806 29.4929 47.1211 29.0751V26.9157L51.5156 28.6735L55.9101 26.9157V29.0751ZM57.9381 24.2113L51.5156 26.7803L45.0931 24.2113L51.5156 21.6423L57.9381 24.2113Z" fill="white"/>
<path d="M39.7738 25.6528L38.5308 24.4098L37.4063 25.5343C37.6013 22.3163 40.2807 19.7578 43.5469 19.7578V18C39.3044 18 35.8318 21.3572 35.6451 25.5545L34.5003 24.4098L33.2574 25.6528L36.5156 28.9109L39.7738 25.6528Z" fill="white"/>
<path d="M62.7425 38.5892L59.4843 35.3311L56.2262 38.5892L57.4691 39.8322L58.6054 38.6959V40.0896C58.6054 43.482 55.8455 46.242 52.4531 46.242V47.9998C56.8147 47.9998 60.3632 44.4513 60.3632 40.0896V38.6959L61.4996 39.8322L62.7425 38.5892Z" fill="white"/>
<path d="M54.1523 42.6683V37.111L55.6399 36.516L44.4843 32.0537L33.3287 36.516L38.332 38.5173V42.1535L38.5895 42.411C38.6717 42.4932 40.6487 44.4261 44.4843 44.4261C48.3199 44.4261 50.297 42.4932 50.3792 42.4109L50.6367 42.1535V38.5172L52.3945 37.8141V42.6683H54.1523ZM48.8789 41.3798C48.3194 41.7976 46.8673 42.6683 44.4843 42.6683C42.1014 42.6683 40.6493 41.7976 40.0898 41.3798V39.2204L44.4843 40.9782L48.8789 39.2204V41.3798ZM44.4843 39.085L38.0618 36.516L44.4843 33.947L50.9069 36.516L44.4843 39.085Z" fill="white"/>
</g>
<defs>
<filter id="filter0_d_104_5083" x="0" y="0" width="95" height="100" filterUnits="userSpaceOnUse" color-interpolation-filters="sRGB">
<feFlood flood-opacity="0" result="BackgroundImageFix"/>
<feColorMatrix in="SourceAlpha" type="matrix" values="0 0 0 0 0 0 0 0 0 0 0 0 0 0 0 0 0 0 127 0" result="hardAlpha"/>
<feMorphology radius="20" operator="erode" in="SourceAlpha" result="effect1_dropShadow_104_5083"/>
<feOffset dy="20"/>
<feGaussianBlur stdDeviation="17.5"/>
<feColorMatrix type="matrix" values="0 0 0 0 0 0 0 0 0 0.751699 0 0 0 0 0.883333 0 0 0 0.4 0"/>
<feBlend mode="normal" in2="BackgroundImageFix" result="effect1_dropShadow_104_5083"/>
<feBlend mode="normal" in="SourceGraphic" in2="effect1_dropShadow_104_5083" result="shape"/>
</filter>
<clipPath id="clip0_104_5083">
<rect width="30" height="30" fill="white" transform="translate(33 18)"/>
</clipPath>
</defs>
</svg>
