<svg width="453" height="456" viewBox="0 0 453 456" fill="none" xmlns="http://www.w3.org/2000/svg">
<path d="M82.9353 122.835C81.5353 125.554 78.6053 126.705 76.0853 127.291C72.8653 128.058 69.5354 128.262 66.2754 128.599L64.3804 129.139C64.0219 129.268 63.6884 129.477 63.3999 129.756C63.1109 130.035 62.8724 130.377 62.6979 130.763C62.5229 131.148 62.4159 131.571 62.3819 132.006C62.3479 132.44 62.3884 132.878 62.5004 133.294C63.6729 137.983 65.2859 142.507 67.3104 146.786L64.3104 150.272C63.4604 148.936 63.4204 146.594 62.2804 146.821C61.1854 145.548 59.8854 144.926 58.5404 146.629C55.9104 149.97 56.3354 156.914 60.2004 158.831L59.3354 163.834C59.0369 165.583 58.2264 167.158 57.0414 168.291C55.8559 169.423 54.3699 170.043 52.8354 170.045L53.5004 164.124C49.0004 166.768 43.8954 161.051 44.2504 156.338C44.4804 153.108 43.8504 150.876 41.7954 148.535C41.6604 148.378 42.4854 147.797 42.3604 147.64C41.7804 145.6 41.7004 143.218 42.2754 141.87C43.2754 139.465 46.2204 138.058 44.8654 135.432C44.2709 134.287 43.8369 133.04 43.5804 131.736C43.3084 130.008 43.3579 128.233 43.7264 126.529C44.0949 124.825 44.7729 123.232 45.7154 121.859C47.7154 119.07 50.9654 119.819 53.6204 118.831C56.8554 117.669 58.3504 113.642 61.7354 112.399C63.4204 111.777 64.9804 112.062 66.6654 112.509C68.0904 112.893 69.5004 113.323 70.9004 113.834C72.3004 114.346 73.5303 114.77 74.9003 114.293C76.7103 113.712 78.1053 111.748 80.0803 111.731C81.0658 111.705 82.0303 112.063 82.8203 112.748C84.2803 115.798 84.2903 120.226 82.9353 122.835Z" fill="#3FBDF1"/>
<path d="M21.0555 201.51C21.0555 201.51 -33.3794 131.737 46.7854 96.9205C51.4339 94.9397 56.2789 93.6474 61.2054 93.0739C74.0004 91.4934 102.285 85.8747 105.545 66.8975" stroke="#CCDDE2" stroke-width="4.11" stroke-miterlimit="10"/>
<path d="M249.565 103.835V103.817" stroke="#CCDDE2" stroke-width="4.11" stroke-miterlimit="10"/>
<path d="M106.735 229.465V229.447" stroke="black" stroke-width="4.11" stroke-miterlimit="10"/>
<path d="M64.1754 149.807C63.6424 148.737 63.0085 147.739 62.2855 146.832C61.1905 145.56 59.8904 144.938 58.5454 146.641C55.9155 149.982 56.3405 156.925 60.2055 158.843L59.3404 163.846C59.0419 165.595 58.2314 167.169 57.0465 168.302C55.861 169.434 54.375 170.055 52.8405 170.057" stroke="black" stroke-width="4.11" stroke-linecap="round" stroke-linejoin="round"/>
<path d="M50.4205 192.195C50.6405 190.254 51.1855 185.158 51.7105 180.301C52.2105 175.797 52.6555 171.463 52.8305 170.033L53.5005 164.124" stroke="black" stroke-width="4.11" stroke-linecap="round" stroke-linejoin="round"/>
<path d="M81.2905 133.968C81.2905 133.968 74.9055 134.334 73.6705 140.476" stroke="black" stroke-width="4.11" stroke-miterlimit="10"/>
<path d="M83.6104 150.197C85.3504 150.145 87.6104 149.848 88.4304 147.797L84.0304 142.155C82.9569 140.773 82.3219 139.006 82.2304 137.147C82.0554 134.026 82.3704 129.076 79.8004 125.781" stroke="black" stroke-width="4.11" stroke-miterlimit="10"/>
<path d="M79.8479 142.387C80.5684 141.461 80.6039 140.135 79.9279 139.425C79.2519 138.714 78.1199 138.89 77.3999 139.816C76.6794 140.742 76.6434 142.068 77.3194 142.778C77.9954 143.488 79.1274 143.313 79.8479 142.387Z" fill="black"/>
<path d="M79.4155 187.256L76.1005 168.581" stroke="black" stroke-width="4.11" stroke-miterlimit="10"/>
<path d="M163.45 271.305L142.085 291.607C167.79 337.162 148.335 345.523 148.335 345.523C144.561 346.363 140.751 346.959 136.92 347.307C118.34 348.864 99.2803 343.292 83.9653 330.811C52.9653 305.535 25.9653 254.949 40.3653 210.905C41.5768 207.18 43.0573 203.58 44.7903 200.144C46.2838 197.157 48.1853 194.473 50.4203 192.195C54.3323 188.215 59.1498 185.633 64.2943 184.758C69.4383 183.883 74.6908 184.752 79.4203 187.262C81.2308 188.222 82.9433 189.415 84.5253 190.818C92.6203 198.017 99.9803 208.25 106.325 218.987C111.959 228.698 117.029 238.835 121.5 249.33C122.735 252.195 123.855 254.902 124.845 257.383C133.82 253.165 141.345 246.001 148.345 238.261C139.88 256.622 163.45 271.305 163.45 271.305Z" fill="#FFB859"/>
<path d="M148.5 286.156C148.09 286.522 147.665 286.906 147.24 287.272" stroke="black" stroke-width="4.11" stroke-miterlimit="10"/>
<path d="M85.3354 208.977C91.0019 221.585 96.6689 234.218 102.335 246.873C106.61 256.425 113.835 262.323 124.01 257.797C135.08 252.869 144.01 243.45 152.27 233.851C160.53 224.252 168.9 215.072 180.825 212.597C196.24 209.395 210.825 219.157 221.325 231.492C222.133 232.433 222.644 233.663 222.776 234.983C222.907 236.304 222.652 237.637 222.05 238.767C221.664 239.49 221.149 240.108 220.539 240.579C219.929 241.05 219.239 241.362 218.516 241.495C217.793 241.628 217.054 241.578 216.349 241.349C215.644 241.12 214.989 240.717 214.43 240.168C209.455 235.234 201.36 228.099 195.73 228.006" stroke="black" stroke-width="4.11" stroke-miterlimit="10"/>
<path d="M180.37 244.932C182.1 246.274 184.5 247.761 186.5 247.761" stroke="black" stroke-width="4.11" stroke-miterlimit="10"/>
<path d="M202.54 230.453C206.23 232.574 207.575 238.78 204.97 242.487C201.667 247.25 197.529 251.14 192.83 253.899C187.69 256.879 184.39 255.061 179.33 251.423" stroke="black" stroke-width="4.11" stroke-miterlimit="10"/>
<path d="M194 236.014C194 236.014 201.31 238.117 201.115 246.362C201.102 246.714 201.048 247.062 200.955 247.396" stroke="black" stroke-width="4.11" stroke-miterlimit="10"/>
<path d="M188.835 241.207C188.835 241.207 198.64 248.569 193.975 253.2" stroke="black" stroke-width="4.11" stroke-miterlimit="10"/>
<path d="M378.24 270.063C366.69 306.954 334.355 307.994 330.655 307.994C332.205 304.2 332.625 297.535 329.23 285.856C331.505 281.997 332.702 277.417 332.66 272.739C332.618 268.062 331.339 263.513 328.995 259.708C329.04 259.662 329.065 259.598 329.105 259.552C330.722 259.437 332.327 259.155 333.9 258.709C339.48 257.163 350.48 253.77 359.21 248.994C365.13 245.746 372.035 250.952 371.53 258.546C371.53 258.645 371.53 258.738 371.5 258.849C372.656 258.848 373.795 259.171 374.82 259.792C375.845 260.412 376.726 261.311 377.388 262.413C378.05 263.514 378.473 264.784 378.621 266.116C378.77 267.448 378.639 268.803 378.24 270.063Z" fill="#3FBDF1"/>
<path d="M230.025 356.588C226.135 364.345 220.08 370.951 214.23 376.715C193.635 396.971 166.73 407.255 139.73 407.656C112.64 407.255 85.6354 396.936 64.9454 376.86C-0.429557 313.421 11.3854 238.517 21.9604 203.834C22.3329 202.635 22.8371 201.497 23.4604 200.447C24.2873 199.041 25.3607 197.855 26.6103 196.966C27.8598 196.076 29.257 195.504 30.7105 195.287C36.2605 196.176 41.3005 201.528 40.4105 209.813C40.4105 210.133 40.3005 210.575 40.2755 210.894C25.8854 254.938 52.8954 305.525 83.8754 330.8C97.9304 342.265 115.14 347.901 132.24 347.535H132.435C133.902 347.5 135.367 347.421 136.83 347.296C146.435 346.483 155.77 343.81 165.015 340.574C175.865 336.803 186.595 332.23 197.435 329.028C201.245 327.901 205.065 326.814 208.905 325.798C211.121 325.269 213.388 325.087 215.645 325.257C228.96 326.303 238.315 340.062 230.025 356.588Z" fill="#D7E8F0"/>
<path d="M233.315 356.588C229.425 364.345 223.365 370.951 217.515 376.715C196.1 397.796 167.845 408.092 139.715 407.656C112.625 407.255 85.6204 396.936 64.9304 376.86C-0.429493 313.421 11.3855 238.517 21.9605 203.834C22.333 202.635 22.8371 201.497 23.4605 200.447C24.2873 199.041 25.3608 197.855 26.6103 196.966C27.8599 196.076 29.2574 195.504 30.7104 195.287C36.2604 196.176 41.3004 201.528 40.4104 209.813C40.4104 210.133 40.3004 210.575 40.2754 210.894C25.8855 254.938 52.8954 305.525 83.8754 330.8C97.9303 342.265 115.14 347.901 132.24 347.535H132.435C135.012 347.581 137.574 347.502 140.12 347.296C149.725 346.483 159.055 343.81 168.305 340.574C179.155 336.803 189.885 332.23 200.725 329.028C204.53 327.901 208.355 326.814 212.19 325.798C213.33 325.527 214.484 325.346 215.645 325.257C230.615 324.089 242.275 338.726 233.315 356.588Z" fill="#D7E8F0"/>
<path d="M144.23 407.551L150.81 418.37C150.81 418.37 190.625 420.171 212.415 441.426C216.445 445.36 214.035 453.001 208.775 453.001C207.456 453.006 206.179 452.467 205.17 451.479C200.025 446.458 180.37 430.677 135.91 430.2C92.5903 429.73 75.9754 445.308 71.3804 450.985C70.8564 451.626 70.2249 452.136 69.5249 452.483C68.8249 452.829 68.0714 453.006 67.3104 453.001H66.4554C61.0554 453.001 58.7704 445.075 63.0354 441.229C81.2254 424.791 122 419.55 122 419.55L128.96 407.348" fill="#FFB859"/>
<path d="M320.435 347.559C320.435 347.559 332.63 361.022 328.825 402.759C328.548 405.739 327.656 408.597 326.225 411.091L324.9 413.415C322.727 417.197 319.451 419.938 315.675 421.132C307.71 423.659 293.26 429.516 284.335 440.614C280.565 445.315 283.37 452.973 288.9 452.973C289.931 452.977 290.947 452.683 291.857 452.12C292.767 451.556 293.543 450.739 294.115 449.743C297.75 443.386 308.755 429.888 335.3 430.173C365.24 430.492 377.3 444.327 381.165 450.289C381.699 451.12 382.392 451.796 383.19 452.262C383.988 452.728 384.868 452.971 385.76 452.973C386.879 452.97 387.973 452.589 388.908 451.874C389.843 451.16 390.578 450.144 391.024 448.951C391.469 447.758 391.605 446.439 391.415 445.158C391.225 443.876 390.718 442.687 389.955 441.736C378.28 426.994 364 421.498 356.12 419.458C352.161 418.466 348.664 415.791 346.315 411.957C344.517 408.999 343.494 405.499 343.37 401.881C342.93 388.941 342.7 357.529 350.245 347.57" fill="#FFB859"/>
<path d="M165.115 340.591C186.56 328.493 209.835 320.556 232.72 313.084C255.75 305.565 279.005 299.005 302.33 292.84C311.65 290.382 321.055 288.192 330.33 285.42" stroke="black" stroke-width="4.11" stroke-miterlimit="10"/>
<path d="M185.235 247.594H185.25H185.261" stroke="black" stroke-width="4.11" stroke-miterlimit="10"/>
<path d="M182.83 246.02C181.485 247.566 176.685 255.822 175.48 257.304C168.86 265.549 161.828 273.333 154.42 280.616C152.555 282.417 150.58 284.277 148.5 286.159C148.09 286.525 147.665 286.909 147.24 287.275C133.14 299.709 114.74 311.679 97.7404 304.009C97.2904 303.817 96.8504 303.597 96.4154 303.37C70.3404 289.802 52.1155 255.822 50.5255 223.022C50.4705 221.953 50.4405 220.89 50.4305 219.838C50.2905 210.872 51.4305 201.907 58.8304 197.177" stroke="black" stroke-width="4.11" stroke-miterlimit="10"/>
<path d="M40.4054 210.777L40.5104 209.824C42.1704 194.356 23.2705 189.139 18.7855 203.833C8.21553 238.511 -3.60445 313.397 61.7854 376.848C103.99 417.818 172.32 418.103 214.365 376.714C220.215 370.956 226.27 364.338 230.165 356.581C240.02 336.964 224.97 321.235 207.995 326.064" stroke="black" stroke-width="4.11" stroke-miterlimit="10"/>
<path d="M144.23 407.551L150.81 418.37C150.81 418.37 190.625 420.171 212.415 441.426C216.445 445.36 214.035 453.001 208.775 453.001C207.456 453.006 206.179 452.467 205.17 451.479C200.025 446.458 180.37 430.677 135.91 430.2C92.5903 429.73 75.9754 445.308 71.3804 450.985C70.8564 451.626 70.2249 452.136 69.5249 452.483C68.8249 452.829 68.0714 453.006 67.3104 453.001H66.4554C61.0554 453.001 58.7704 445.075 63.0354 441.229C81.2254 424.791 122 419.55 122 419.55L128.96 407.348" stroke="black" stroke-width="4.11" stroke-miterlimit="10"/>
<path d="M122 248.402C138.69 243.173 145.565 215.811 148.335 197.415" stroke="black" stroke-width="4.11" stroke-miterlimit="10"/>
<path d="M106.31 219.004C110.947 218.299 115.35 216.223 119.099 212.976C122.849 209.729 125.819 205.418 127.725 200.457C128.124 199.47 128.318 198.388 128.292 197.298C128.266 196.208 128.021 195.141 127.575 194.181C125.755 190.265 123.04 185.727 123.685 181.032C124.15 177.72 126.495 175.39 129.185 174.641C130.549 174.225 131.985 174.254 133.335 174.722C134.145 174.989 134.893 175.461 135.526 176.105C136.159 176.749 136.661 177.549 136.995 178.447C137.65 180.23 136.87 181.997 135.665 183.159C134.46 184.321 133.05 184.734 131.58 185.198C131.39 185.262 130.87 185.39 130.295 185.518" stroke="black" stroke-width="4.11" stroke-miterlimit="10"/>
<path d="M330.31 285.408C330.31 285.408 363.21 277.401 369.39 265.867C370.549 263.764 371.271 261.377 371.5 258.895" stroke="black" stroke-width="4.11" stroke-miterlimit="10"/>
<path d="M168.42 265.71C225.805 258.627 290.575 259.673 290.575 259.673H326.925C329.274 259.677 331.616 259.356 333.9 258.72C339.48 257.174 350.48 253.787 359.21 249.004C365.13 245.756 372.035 250.963 371.53 258.563C371.53 258.656 371.53 258.755 371.5 258.865C372.654 258.866 373.79 259.189 374.813 259.808C375.836 260.427 376.715 261.324 377.377 262.422C378.038 263.52 378.462 264.788 378.612 266.117C378.762 267.445 378.635 268.797 378.24 270.056C365.98 309.213 330.31 307.987 330.31 307.987C325.75 308.144 321.2 308.353 316.635 308.626C276.42 310.898 236.56 317.458 197.54 329.039C186.7 332.24 175.97 336.807 165.12 340.584C155.87 343.832 146.525 346.488 136.92 347.301C118.34 348.864 99.2805 343.286 83.9655 330.805C50.4205 303.449 21.5506 246.413 44.7905 200.115C52.9955 183.775 71.5755 179.301 84.5255 190.818C102.79 207.058 117.38 238.697 124.865 257.36" stroke="black" stroke-width="4.11" stroke-miterlimit="10"/>
<path d="M377.48 347.559H297.62" stroke="black" stroke-width="4.11" stroke-miterlimit="10"/>
<path d="M281.5 328.812C281.512 323.844 283.215 319.084 286.237 315.571C289.26 312.057 293.356 310.077 297.63 310.062H377.5C381.776 310.075 385.873 312.055 388.896 315.569C391.919 319.082 393.623 323.844 393.635 328.812" stroke="black" stroke-width="4.11" stroke-miterlimit="10"/>
<path d="M395.205 335.461C395.209 337.051 394.943 338.627 394.42 340.097C393.898 341.567 393.131 342.903 392.163 344.027C391.195 345.151 390.046 346.042 388.78 346.648C387.515 347.254 386.159 347.563 384.79 347.558H290.29C287.925 347.298 285.742 345.97 284.21 343.859C282.679 341.747 281.921 339.022 282.101 336.269C282.28 333.515 283.382 330.953 285.17 329.135C286.958 327.315 289.288 326.385 291.66 326.541H386.16C387.838 326.539 389.491 327.007 390.978 327.909C392.466 328.811 393.743 330.118 394.7 331.719C395.035 332.928 395.205 334.19 395.205 335.461Z" fill="#D7E8F0"/>
<path d="M395.205 335.46C395.209 337.05 394.942 338.626 394.42 340.096C393.898 341.566 393.131 342.902 392.163 344.026C391.195 345.151 390.045 346.041 388.78 346.647C387.515 347.253 386.159 347.563 384.79 347.557H290.29C288.904 347.593 287.525 347.306 286.235 346.714C284.945 346.121 283.77 345.235 282.779 344.108C281.787 342.981 280.999 341.635 280.462 340.149C279.924 338.664 279.647 337.069 279.647 335.457C279.647 333.845 279.924 332.249 280.462 330.764C280.999 329.278 281.787 327.932 282.779 326.805C283.77 325.678 284.945 324.792 286.235 324.2C287.525 323.608 288.904 323.321 290.29 323.356H384.79C386.99 323.355 389.134 324.164 390.914 325.666C392.695 327.168 394.02 329.286 394.7 331.718C395.035 332.927 395.205 334.19 395.205 335.46Z" stroke="black" stroke-width="4.11" stroke-miterlimit="10"/>
<path d="M148.155 196.984L147.965 198.849C147.878 199.696 147.528 200.476 146.98 201.042C146.431 201.609 145.724 201.922 144.99 201.923H134.605C133.872 201.922 133.164 201.609 132.616 201.042C132.068 200.476 131.717 199.696 131.63 198.849L130.29 185.485C130.865 185.357 131.385 185.229 131.575 185.165C133.045 184.701 134.47 184.305 135.66 183.126C136.85 181.946 137.66 180.221 136.99 178.414C136.656 177.516 136.154 176.716 135.521 176.073C134.888 175.428 134.14 174.956 133.33 174.689C131.979 174.221 130.544 174.192 129.18 174.608L128.865 171.424C128.819 170.937 128.861 170.444 128.99 169.978C129.118 169.512 129.329 169.082 129.61 168.718C129.89 168.352 130.234 168.06 130.618 167.859C131.003 167.659 131.419 167.555 131.84 167.554H147.775C148.196 167.555 148.612 167.661 148.996 167.861C149.379 168.062 149.722 168.354 150.002 168.719C150.282 169.084 150.493 169.514 150.621 169.98C150.749 170.446 150.792 170.937 150.745 171.424L150.375 175.055" stroke="black" stroke-width="4.11" stroke-miterlimit="10"/>
<path d="M149.541 183.357L149.525 183.485" stroke="black" stroke-width="4.11" stroke-miterlimit="10"/>
<path d="M148.76 191.034V190.981" stroke="black" stroke-width="4.11" stroke-miterlimit="10"/>
<path d="M148.91 191.032C148.866 191.023 148.82 191.023 148.775 191.032C148.712 191.024 148.648 191.024 148.585 191.032C147.937 191.035 147.314 191.32 146.838 191.831C146.363 192.343 146.07 193.043 146.017 193.794C145.965 194.544 146.158 195.29 146.556 195.884C146.955 196.478 147.531 196.876 148.17 196.999C148.446 197.063 148.73 197.063 149.005 196.999C150.253 196.768 151.393 196.036 152.225 194.931C153.335 192.81 154.106 190.473 154.5 188.033C154.507 188.009 154.507 187.982 154.5 187.958C154.805 186.16 154.921 184.326 154.845 182.496M154.845 182.496C154.845 181.712 154.76 180.933 154.68 180.172C154.528 178.898 154.027 177.716 153.252 176.798C152.476 175.881 151.468 175.277 150.375 175.076C150.32 175.076 150.255 175.076 150.2 175.041C148.1 174.739 145.155 175.663 144.61 178.417C144.11 180.904 146.43 183.036 148.335 183.228C148.335 183.228 148.835 183.304 149.54 183.356C150.95 183.466 153.295 183.449 154.845 182.496ZM154.845 182.496C155.073 182.359 155.288 182.193 155.485 182.002" stroke="black" stroke-width="4.11" stroke-miterlimit="10"/>
<path d="M151.1 183.492H150.755H148.09H146.915C146.121 183.495 145.358 183.851 144.782 184.488C144.206 185.124 143.862 185.992 143.82 186.915C143.781 187.811 144.03 188.691 144.518 189.386C145.005 190.082 145.697 190.543 146.46 190.68C149.91 191.325 153.85 191.458 154.525 187.868" stroke="black" stroke-width="4.11" stroke-miterlimit="10"/>
<path d="M320.435 347.559C320.435 347.559 332.63 361.022 328.825 402.759C328.548 405.739 327.656 408.597 326.225 411.091L324.9 413.415C322.727 417.197 319.451 419.938 315.675 421.132C307.71 423.659 293.26 429.516 284.335 440.614C280.565 445.315 283.37 452.973 288.9 452.973C289.931 452.977 290.947 452.683 291.857 452.12C292.767 451.556 293.543 450.739 294.115 449.743C297.75 443.386 308.755 429.888 335.3 430.173C365.24 430.492 377.3 444.327 381.165 450.289C381.699 451.12 382.392 451.796 383.19 452.262C383.988 452.728 384.868 452.971 385.76 452.973C386.879 452.97 387.973 452.589 388.908 451.874C389.843 451.16 390.578 450.144 391.024 448.951C391.469 447.758 391.605 446.439 391.415 445.158C391.225 443.876 390.718 442.687 389.955 441.736C378.28 426.994 364 421.498 356.12 419.458C352.161 418.466 348.664 415.791 346.315 411.957C344.517 408.999 343.494 405.499 343.37 401.881C342.93 388.941 342.7 357.529 350.245 347.57" stroke="black" stroke-width="4.11" stroke-miterlimit="10"/>
<path d="M295.085 250.004V250.945C295.085 257.389 290.615 258.499 286.755 258.609L212.05 260.631C208.775 260.724 206.02 257.4 205.95 253.24V253.066C205.95 248.998 208.53 245.599 211.76 245.512C211.76 245.512 253.555 244.141 285.915 243.106C286.535 245.384 288.035 247.139 289.915 248.516C291.473 249.599 293.273 250.116 295.085 250.004Z" stroke="black" stroke-width="4.11" stroke-miterlimit="10"/>
<path d="M334.795 158.138C334.799 159.199 334.59 160.245 334.185 161.195L300.775 240.787C300.383 241.711 299.822 242.525 299.131 243.17C298.44 243.815 297.636 244.277 296.775 244.523C295.396 244.934 293.935 244.761 292.655 244.035C291.629 243.449 290.766 242.537 290.164 241.407C289.562 240.277 289.245 238.973 289.25 237.644C289.253 237.317 289.273 236.991 289.31 236.668C289.399 235.947 289.585 235.248 289.86 234.593L323.265 154.989C323.869 153.561 324.871 152.411 326.108 151.729C327.345 151.048 328.744 150.872 330.078 151.233C331.412 151.593 332.601 152.468 333.453 153.715C334.304 154.962 334.766 156.506 334.765 158.098L334.795 158.138Z" stroke="black" stroke-width="4.11" stroke-miterlimit="10"/>
<path d="M64.3154 150.284C64.2754 150.121 64.2204 149.964 64.1754 149.807C64.1304 149.65 64.0654 149.47 64.0254 149.296" stroke="black" stroke-width="4.11" stroke-linecap="round" stroke-linejoin="round"/>
<path d="M64.3154 150.29L65.3404 149.093L67.3004 146.786" stroke="black" stroke-width="4.11" stroke-linecap="round" stroke-linejoin="round"/>
<path d="M75.8503 153.44C75.8503 153.44 77.1653 158.002 82.1903 158.31" stroke="black" stroke-width="4.11" stroke-miterlimit="10"/>
<path d="M53.5004 164.124C49.0004 166.768 43.8954 161.051 44.2504 156.338C44.4804 153.108 43.8504 150.877 41.7954 148.535C41.6604 148.378 41.5354 148.215 41.4154 148.058C40.6329 147.069 40.1244 145.83 39.9549 144.501C39.7854 143.172 39.9634 141.814 40.4654 140.603C41.4004 138.076 43.4154 136.594 42.0154 133.869C41.4009 132.691 40.9524 131.406 40.6854 130.063C40.4059 128.283 40.4584 126.454 40.8389 124.698C41.2194 122.943 41.9189 121.304 42.8904 119.889C44.9504 116.984 48.3054 117.785 51.0604 116.769C54.3754 115.543 55.9254 111.4 59.4053 110.127C61.1453 109.494 62.7603 109.779 64.5003 110.238C65.9653 110.639 67.4353 111.086 68.8603 111.609C70.2853 112.132 71.5853 112.579 73.0103 112.085C74.8753 111.452 76.3103 109.459 78.3403 109.442C80.3703 109.424 81.9303 110.813 82.8403 112.754C84.2803 115.798 84.2903 120.226 82.9353 122.852C81.5353 125.572 78.6053 126.722 76.0853 127.309C72.8653 128.076 69.5353 128.279 66.2753 128.616L64.3803 129.157C63.6593 129.417 63.0568 129.998 62.7043 130.774C62.3518 131.549 62.2783 132.456 62.5003 133.294C63.6728 137.983 65.2858 142.508 67.3103 146.786" stroke="black" stroke-width="4.11" stroke-miterlimit="10"/>
<path d="M67.3004 164.792C67.3004 164.792 77.2204 173.235 82.8754 168.581C88.5304 163.926 85.3354 150.283 85.3354 150.283" stroke="black" stroke-width="4.11" stroke-linecap="round" stroke-linejoin="round"/>
<path d="M137.395 161.725C137.395 161.725 133.18 158.413 135.86 155.032C138.54 151.65 134.97 147.188 134.97 147.188" stroke="black" stroke-width="4.11" stroke-miterlimit="10"/>
<path d="M141.285 162.301C141.285 162.301 144.075 160.11 142.285 157.867C140.495 155.624 142.88 152.638 142.88 152.638" stroke="black" stroke-width="4.11" stroke-miterlimit="10"/>
<path d="M160.51 130.739C190.864 130.739 215.47 102.143 215.47 66.8694C215.47 31.5954 190.864 3 160.51 3C130.157 3 105.55 31.5954 105.55 66.8694C105.55 102.143 130.157 130.739 160.51 130.739Z" stroke="#CCDDE2" stroke-width="4.11" stroke-miterlimit="10"/>
<path d="M160.51 101.946C177.181 101.946 190.695 86.2411 190.695 66.8682C190.695 47.4947 177.181 31.79 160.51 31.79C143.839 31.79 130.325 47.4947 130.325 66.8682C130.325 86.2411 143.839 101.946 160.51 101.946Z" stroke="#CCDDE2" stroke-width="4.11" stroke-miterlimit="10"/>
<path d="M160.51 72.8804C163.368 72.8804 165.685 70.1877 165.685 66.8664C165.685 63.5451 163.368 60.8525 160.51 60.8525C157.652 60.8525 155.335 63.5451 155.335 66.8664C155.335 70.1877 157.652 72.8804 160.51 72.8804Z" stroke="#CCDDE2" stroke-width="4.11" stroke-miterlimit="10"/>
<path d="M171.225 46.7871L163.235 61.7551" stroke="#CCDDE2" stroke-width="4.11" stroke-miterlimit="10"/>
<path d="M160.51 31.79V38.0305" stroke="#CCDDE2" stroke-width="4.11" stroke-miterlimit="10"/>
<path d="M190.695 66.8682H185.605" stroke="#CCDDE2" stroke-width="4.11" stroke-miterlimit="10"/>
<path d="M160.51 101.953V95.8867" stroke="#CCDDE2" stroke-width="4.11" stroke-miterlimit="10"/>
<path d="M130.32 66.8682H134.91" stroke="#CCDDE2" stroke-width="4.11" stroke-miterlimit="10"/>
<path d="M213.185 173.062C224.479 173.062 233.635 162.422 233.635 149.297C233.635 136.172 224.479 125.532 213.185 125.532C201.891 125.532 192.735 136.172 192.735 149.297C192.735 162.422 201.891 173.062 213.185 173.062Z" fill="#3FBDF1"/>
<path d="M219.91 141.359C219.622 140.586 219.234 139.869 218.76 139.233C217.95 138.119 216.818 137.386 215.576 137.172C214.335 136.958 213.069 137.278 212.015 138.071C211.328 138.591 210.754 139.29 210.337 140.111C209.921 140.933 209.674 141.855 209.615 142.806C208.539 142.348 207.363 142.308 206.266 142.694C205.169 143.079 204.209 143.869 203.532 144.944C202.854 146.019 202.496 147.321 202.511 148.653C202.526 149.985 202.914 151.276 203.615 152.33C205.08 154.549 207.57 156.008 209.825 156.856C211.008 157.296 212.226 157.596 213.46 157.751C214.085 157.832 217.65 158.39 217.96 157.751C220.185 153.707 221.765 146.298 219.91 141.359Z" fill="white"/>
<g opacity="0.72">
<path opacity="0.72" d="M264.155 139.46C270.374 139.46 275.415 133.602 275.415 126.374C275.415 119.148 270.374 113.289 264.155 113.289C257.937 113.289 252.895 119.148 252.895 126.374C252.895 133.602 257.937 139.46 264.155 139.46Z" fill="#3FBDF1"/>
<path opacity="0.72" d="M269.04 128.692C269.319 128.362 269.552 127.984 269.73 127.57C270.051 126.858 270.138 126.034 269.973 125.253C269.808 124.472 269.404 123.787 268.835 123.329C268.464 123.031 268.038 122.837 267.591 122.762C267.145 122.687 266.689 122.734 266.26 122.899C266.236 122.165 266.007 121.461 265.609 120.892C265.21 120.324 264.663 119.921 264.05 119.745C263.437 119.569 262.791 119.63 262.21 119.918C261.63 120.206 261.145 120.705 260.83 121.342C260.218 122.78 259.98 124.396 260.145 125.99C260.202 126.777 260.325 127.555 260.515 128.314C260.61 128.703 261.11 130.929 261.45 130.999C263.685 131.434 267.265 130.824 269.04 128.692Z" fill="white"/>
</g>
<path d="M248.02 188.167L242.667 201.32C240.726 206.09 242.48 211.784 246.584 214.04L257.902 220.26C262.006 222.515 266.906 220.477 268.847 215.708L274.2 202.555C276.14 197.786 274.387 192.091 270.283 189.836L258.965 183.616C254.861 181.36 249.96 183.398 248.02 188.167Z" fill="#3FBDF1"/>
<path d="M271.145 204.857L267.27 214.38C266.457 216.364 265.002 217.893 263.222 218.635C261.442 219.376 259.482 219.269 257.77 218.337L247.94 212.933C246.234 211.987 244.919 210.296 244.283 208.227C243.646 206.16 243.738 203.882 244.54 201.893L244.8 201.254C247.47 198.779 252.085 195.444 253.77 199.982C256.195 206.536 259.35 204.421 263.38 201.678C266.745 199.366 270.785 198.593 271.145 204.857Z" fill="white"/>
<path d="M255.92 194.736C257.591 194.736 258.945 193.162 258.945 191.22C258.945 189.279 257.591 187.705 255.92 187.705C254.25 187.705 252.895 189.279 252.895 191.22C252.895 193.162 254.25 194.736 255.92 194.736Z" fill="white"/>
<path d="M307.53 145.025C308.132 146.3 308.568 147.67 308.825 149.093C309.283 151.695 309.152 154.391 308.444 156.916C307.735 159.441 306.475 161.709 304.785 163.497C303.445 164.874 301.74 165.949 300.385 167.39C299.397 168.381 298.669 169.677 298.285 171.126C298.215 171.622 298.044 172.09 297.785 172.492C296.995 173.48 296.22 171.911 295.535 171.643C294.431 171.226 293.234 171.294 292.17 171.835C289.374 173.194 286.259 173.387 283.354 172.382C280.449 171.377 277.933 169.234 276.232 166.319C274.531 163.404 273.75 159.895 274.021 156.387C274.292 152.878 275.599 149.587 277.72 147.071C279.815 144.59 282.555 143.003 285.22 141.388C287.55 139.953 289.87 138.425 292.4 137.565C298.33 135.502 304.66 138.936 307.53 145.025Z" fill="#3FBDF1"/>
<path d="M283.65 162.976C285.224 162.976 286.5 161.493 286.5 159.664C286.5 157.834 285.224 156.352 283.65 156.352C282.076 156.352 280.8 157.834 280.8 159.664C280.8 161.493 282.076 162.976 283.65 162.976Z" fill="white"/>
<path d="M291.325 158.203C292.899 158.203 294.175 156.72 294.175 154.891C294.175 153.062 292.899 151.579 291.325 151.579C289.751 151.579 288.475 153.062 288.475 154.891C288.475 156.72 289.751 158.203 291.325 158.203Z" fill="white"/>
<path d="M298.525 153.729C300.099 153.729 301.375 152.247 301.375 150.417C301.375 148.588 300.099 147.105 298.525 147.105C296.951 147.105 295.675 148.588 295.675 150.417C295.675 152.247 296.951 153.729 298.525 153.729Z" fill="white"/>
<path d="M211.63 43.3887C211.63 43.3887 230.395 110.837 302.63 107.194C326.63 103.708 355.195 107.194 380.63 146.125C419.295 205.346 403.77 271.318 386.2 313.194" stroke="#CCDDE2" stroke-width="4.11" stroke-miterlimit="10"/>
<g opacity="0.54">
<path opacity="0.54" d="M316.045 69.8767C315.974 70.8941 315.839 71.904 315.64 72.8981L313.39 84.2403C312.7 87.7266 311.925 91.3757 309.785 93.9207C305.785 98.6621 299.135 97.5755 293.575 96.1403L279.925 92.6191C276.79 91.8114 273.605 90.9805 270.795 89.1735C267.985 87.3664 265.545 84.4088 264.895 80.754C264.395 78.0579 264.93 75.2689 265.44 72.5844L267.5 61.6954C268.185 58.1278 268.955 54.3625 271.17 51.7652C275.115 47.1459 281.67 48.1976 287.12 49.5747L301.1 53.1075C309.53 55.2225 316.715 59.7664 316.045 69.8767Z" fill="#3FBDF1"/>
<path opacity="0.54" d="M297.22 70.1793C297.805 70.8109 298.236 71.6104 298.47 72.4971C298.705 73.3844 298.734 74.3274 298.555 75.2316C298.376 76.1357 297.995 76.9689 297.451 77.6482C296.907 78.3268 296.219 78.8271 295.455 79.0985L291.295 80.5801L287.135 82.0618C286.372 82.3332 285.56 82.3663 284.782 82.1577C284.005 81.9491 283.288 81.5069 282.703 80.8742C282.119 80.242 281.689 79.4424 281.455 78.5552C281.221 77.6685 281.191 76.7254 281.37 75.8213L282.37 70.894L283.345 65.9725C283.523 65.0678 283.903 64.2339 284.447 63.5541C284.991 62.8749 285.679 62.3734 286.443 62.1015C287.206 61.829 288.018 61.7958 288.796 62.0039C289.574 62.2125 290.291 62.6552 290.875 63.288L294.06 66.7336L297.22 70.1793Z" fill="white"/>
</g>
<path d="M21.2404 452.975H453" stroke="black" stroke-width="4.11" stroke-miterlimit="10"/>
</svg>
