<svg width="88" height="79" viewBox="0 0 88 79" fill="none" xmlns="http://www.w3.org/2000/svg">
<ellipse cx="44" cy="39.4007" rx="44" ry="39.3412" fill="#F3EBFF"/>
<g clip-path="url(#clip0_104_4768)" filter="url(#filter0_d_104_4768)">
<path d="M49.8016 35.3809C50.071 36.0551 49.91 36.8458 49.2947 37.3961C48.4513 38.1502 47.0862 38.1502 46.2427 37.396C45.3993 36.6419 45.3991 35.4214 46.2427 34.6672C46.855 34.1197 47.7397 33.9722 48.4965 34.214L54.695 28.6719L41.1612 30.9128L37.3634 38.5531C37.594 38.7593 44.1407 44.6129 44.9487 45.3353L44.9487 45.3352L53.4938 41.9396L56.0001 29.8388L49.8016 35.3809Z" fill="#7118EF"/>
<path d="M35.052 38.3057L32 41.0346L42.1734 50.1308L45.2254 47.4019C44.5199 46.7711 35.5623 38.7619 35.052 38.3057V38.3057Z" fill="#7118EF"/>
<path d="M47.0494 36.0319C47.0494 36.3873 47.3713 36.6751 47.7688 36.6751C47.961 36.6751 48.1416 36.6082 48.2774 36.4867L48.2774 36.4867C48.5586 36.2354 48.5586 35.8285 48.2774 35.577C48.1416 35.4556 47.9609 35.3887 47.7688 35.3887C47.3712 35.3887 47.0494 35.6764 47.0494 36.0319Z" fill="#7118EF"/>
</g>
<defs>
<filter id="filter0_d_104_4768" x="17" y="23.6719" width="54" height="51.459" filterUnits="userSpaceOnUse" color-interpolation-filters="sRGB">
<feFlood flood-opacity="0" result="BackgroundImageFix"/>
<feColorMatrix in="SourceAlpha" type="matrix" values="0 0 0 0 0 0 0 0 0 0 0 0 0 0 0 0 0 0 127 0" result="hardAlpha"/>
<feOffset dy="10"/>
<feGaussianBlur stdDeviation="7.5"/>
<feColorMatrix type="matrix" values="0 0 0 0 0.443137 0 0 0 0 0.0941176 0 0 0 0 0.937255 0 0 0 0.2 0"/>
<feBlend mode="normal" in2="BackgroundImageFix" result="effect1_dropShadow_104_4768"/>
<feBlend mode="normal" in="SourceGraphic" in2="effect1_dropShadow_104_4768" result="shape"/>
</filter>
<clipPath id="clip0_104_4768">
<rect width="24" height="21.4588" fill="white" transform="translate(32 28.6719)"/>
</clipPath>
</defs>
</svg>
